SplineFontDB: 3.2
FontName: Lato-Light
FullName: Lato-Light
FamilyName: Lato Light
Weight: Light
Copyright: Copyright (c) 2010-2011 by tyPoland Lukasz Dziedzic with Reserved Font Name "Lato". Licensed under the SIL Open Font License, Version 1.1. 
Version: 1.104; Western+Polish opensource
ItalicAngle: 0
UnderlinePosition: -200
UnderlineWidth: 68
Ascent: 1610
Descent: 390
InvalidEm: 0
sfntRevision: 0x00011aa0
LayerCount: 2
Layer: 0 1 "Back" 1
Layer: 1 1 "Fore" 0
XUID: [1021 665 200184042 7279477]
StyleMap: 0x0040
FSType: 0
OS2Version: 3
OS2_WeightWidthSlopeOnly: 0
OS2_UseTypoMetrics: 0
CreationTime: 1315810800
ModificationTime: 1626812748
PfmFamily: 17
TTFWeight: 300
TTFWidth: 5
LineGap: 0
VLineGap: 0
Panose: 2 15 3 2 2 2 4 3 2 3
OS2TypoAscent: 1610
OS2TypoAOffset: 0
OS2TypoDescent: -390
OS2TypoDOffset: 0
OS2TypoLinegap: 400
OS2WinAscent: 1974
OS2WinAOffset: 0
OS2WinDescent: 426
OS2WinDOffset: 0
HheadAscent: 1974
HheadAOffset: 0
HheadDescent: -426
HheadDOffset: 0
OS2SubXSize: 1400
OS2SubYSize: 1300
OS2SubXOff: 0
OS2SubYOff: 280
OS2SupXSize: 1400
OS2SupYSize: 1300
OS2SupXOff: 0
OS2SupYOff: 954
OS2StrikeYSize: 68
OS2StrikeYPos: 500
OS2CapHeight: 1415
OS2XHeight: 995
OS2FamilyClass: 2051
OS2Vendor: 'tyPL'
OS2CodePages: 20000093.00000000
OS2UnicodeRanges: 8000002f.0000004a.00000000.00000000
Lookup: 4 0 1 "'liga' Standard Ligatures in Latin lookup 0" { "'liga' Standard Ligatures in Latin lookup 0 subtable"  } ['liga' ('DFLT' <'dflt' > 'latn' <'dflt' > ) ]
Lookup: 258 0 0 "'kern' Horizontal Kerning in Latin lookup 0" { "'kern' Horizontal Kerning in Latin lookup 0 subtable"  } ['kern' ('DFLT' <'dflt' > 'latn' <'dflt' > ) ]
DEI: 91125
TtTable: prep
PUSHW_1
 0
CALL
SVTCA[y-axis]
PUSHW_3
 1
 2
 2
CALL
SVTCA[x-axis]
PUSHW_3
 3
 2
 2
CALL
SVTCA[x-axis]
PUSHW_8
 3
 116
 95
 74
 53
 32
 0
 8
CALL
PUSHW_8
 4
 151
 124
 96
 69
 42
 0
 8
CALL
SVTCA[y-axis]
PUSHW_8
 1
 181
 148
 115
 82
 50
 0
 8
CALL
PUSHW_8
 2
 151
 124
 96
 69
 42
 0
 8
CALL
SVTCA[y-axis]
PUSHW_3
 5
 4
 7
CALL

StartChar: .notdef
Encoding: 65536 -1 0
Width: 1025
Flags: W
LayerCount: 2
Fore
SplineSet
262 1134 m 1,0,1
 283 1154 283 1154 308.5 1172 c 128,-1,2
 334 1190 334 1190 364 1204 c 128,-1,3
 394 1218 394 1218 429.5 1226.5 c 128,-1,4
 465 1235 465 1235 507 1235 c 0,5,6
 561 1235 561 1235 607.5 1219.5 c 128,-1,7
 654 1204 654 1204 688.5 1174.5 c 128,-1,8
 723 1145 723 1145 742.5 1103.5 c 128,-1,9
 762 1062 762 1062 762 1010 c 0,10,11
 762 955 762 955 745.5 915.5 c 128,-1,12
 729 876 729 876 704.5 846.5 c 128,-1,13
 680 817 680 817 651 794.5 c 128,-1,14
 622 772 622 772 596.5 752 c 128,-1,15
 571 732 571 732 552.5 712.5 c 128,-1,16
 534 693 534 693 532 668 c 2,17,-1
 522 554 l 1,18,-1
 457 554 l 1,19,-1
 451 676 l 2,20,21
 449 707 449 707 465 730.5 c 128,-1,22
 481 754 481 754 505.5 775 c 128,-1,23
 530 796 530 796 559.5 817 c 128,-1,24
 589 838 589 838 614 864.5 c 128,-1,25
 639 891 639 891 656 924.5 c 128,-1,26
 673 958 673 958 673 1005 c 0,27,28
 673 1041 673 1041 659 1069 c 128,-1,29
 645 1097 645 1097 621.5 1116.5 c 128,-1,30
 598 1136 598 1136 566.5 1146.5 c 128,-1,31
 535 1157 535 1157 500 1157 c 0,32,33
 454 1157 454 1157 421 1145.5 c 128,-1,34
 388 1134 388 1134 365 1119.5 c 128,-1,35
 342 1105 342 1105 328.5 1093.5 c 128,-1,36
 315 1082 315 1082 308 1082 c 0,37,38
 294 1082 294 1082 287 1093 c 2,39,-1
 262 1134 l 1,0,1
410 265 m 256,40,41
 410 297 410 297 432 320 c 128,-1,42
 454 343 454 343 487 343 c 0,43,44
 519 343 519 343 541 320 c 128,-1,45
 563 297 563 297 563 265 c 256,46,47
 563 233 563 233 541 210 c 128,-1,48
 519 187 519 187 487 187 c 0,49,50
 454 187 454 187 432 210 c 128,-1,51
 410 233 410 233 410 265 c 256,40,41
47 1415 m 1,52,-1
 978 1415 l 1,53,-1
 978 0 l 1,54,-1
 47 0 l 1,55,-1
 47 1415 l 1,52,-1
82 36 m 1,56,-1
 941 36 l 1,57,-1
 941 1379 l 1,58,-1
 82 1379 l 1,59,-1
 82 36 l 1,56,-1
EndSplineSet
EndChar

StartChar: exclam
Encoding: 33 33 4
Width: 645
Flags: W
LayerCount: 2
Fore
SplineSet
372 1415 m 1,0,-1
 372 843 l 2,1,2
 372 798 372 798 371 758 c 128,-1,3
 370 718 370 718 368.5 676.5 c 128,-1,4
 367 635 367 635 364 589 c 128,-1,5
 361 543 361 543 358 487 c 1,6,-1
 293 487 l 1,7,8
 290 543 290 543 287 589 c 128,-1,9
 284 635 284 635 282.5 676.5 c 128,-1,10
 281 718 281 718 280 758 c 128,-1,11
 279 798 279 798 279 843 c 2,12,-1
 279 1415 l 1,13,-1
 372 1415 l 1,0,-1
230 77 m 0,14,15
 230 96 230 96 237 113 c 128,-1,16
 244 130 244 130 256.5 142.5 c 128,-1,17
 269 155 269 155 285.5 162.5 c 128,-1,18
 302 170 302 170 322 170 c 0,19,20
 341 170 341 170 358 162.5 c 128,-1,21
 375 155 375 155 387.5 142.5 c 128,-1,22
 400 130 400 130 407.5 113 c 128,-1,23
 415 96 415 96 415 77 c 0,24,25
 415 57 415 57 407.5 40.5 c 128,-1,26
 400 24 400 24 387.5 11.5 c 128,-1,27
 375 -1 375 -1 358 -8 c 128,-1,28
 341 -15 341 -15 322 -15 c 0,29,30
 283 -15 283 -15 256.5 11.5 c 128,-1,31
 230 38 230 38 230 77 c 0,14,15
EndSplineSet
EndChar

StartChar: quotedbl
Encoding: 34 34 5
Width: 734
Flags: W
LayerCount: 2
Fore
SplineSet
263 1415 m 1,0,-1
 263 1123 l 1,1,-1
 254 970 l 2,2,3
 252 953 252 953 245 943.5 c 128,-1,4
 238 934 238 934 221 934 c 0,5,6
 207 934 207 934 199 943.5 c 128,-1,7
 191 953 191 953 189 970 c 2,8,-1
 180 1123 l 1,9,-1
 180 1415 l 1,10,-1
 263 1415 l 1,0,-1
553 1415 m 1,11,-1
 553 1123 l 1,12,-1
 544 970 l 2,13,14
 542 953 542 953 535 943.5 c 128,-1,15
 528 934 528 934 511 934 c 0,16,17
 497 934 497 934 489 943.5 c 128,-1,18
 481 953 481 953 479 970 c 2,19,-1
 470 1123 l 1,20,-1
 470 1415 l 1,21,-1
 553 1415 l 1,11,-1
EndSplineSet
EndChar

StartChar: numbersign
Encoding: 35 35 6
Width: 1160
Flags: W
LayerCount: 2
Fore
SplineSet
757 443 m 1,0,-1
 663 0 l 1,1,-1
 622 0 l 2,2,3
 608 0 608 0 599 8.5 c 128,-1,4
 590 17 590 17 590 33 c 0,5,6
 590 40 590 40 591 44 c 2,7,-1
 677 443 l 1,8,-1
 379 443 l 1,9,-1
 293 40 l 2,10,11
 288 18 288 18 276 9 c 128,-1,12
 264 0 264 0 247 0 c 2,13,-1
 205 0 l 1,14,-1
 299 443 l 1,15,-1
 116 443 l 2,16,17
 102 443 102 443 94 449.5 c 128,-1,18
 86 456 86 456 86 473 c 0,19,20
 86 478 86 478 86 482.5 c 128,-1,21
 86 487 86 487 88 497 c 2,22,-1
 91 513 l 1,23,-1
 309 513 l 1,24,-1
 391 902 l 1,25,-1
 138 902 l 1,26,-1
 144 940 l 2,27,28
 148 973 148 973 188 973 c 2,29,-1
 401 973 l 1,30,-1
 488 1377 l 2,31,32
 492 1396 492 1396 504.5 1405.5 c 128,-1,33
 517 1415 517 1415 534 1415 c 2,34,-1
 576 1415 l 1,35,-1
 481 973 l 1,36,-1
 779 973 l 1,37,-1
 874 1415 l 1,38,-1
 916 1415 l 2,39,40
 947 1415 947 1415 947 1385 c 0,41,42
 947 1377 947 1377 946 1373 c 2,43,-1
 859 973 l 1,44,-1
 1084 973 l 1,45,-1
 1078 935 l 2,46,47
 1073 902 1073 902 1033 902 c 2,48,-1
 849 902 l 1,49,-1
 767 513 l 1,50,-1
 992 513 l 2,51,52
 1022 513 1022 513 1022 487 c 2,53,-1
 1018 443 l 1,54,-1
 757 443 l 1,0,-1
389 513 m 1,55,-1
 687 513 l 1,56,-1
 769 902 l 1,57,-1
 471 902 l 1,58,-1
 389 513 l 1,55,-1
EndSplineSet
EndChar

StartChar: dollar
Encoding: 36 36 7
Width: 1160
Flags: W
LayerCount: 2
Fore
SplineSet
542 -15 m 1,0,1
 414 -9 414 -9 319 40 c 128,-1,2
 224 89 224 89 152 169 c 1,3,-1
 179 208 l 2,4,5
 191 223 191 223 207 223 c 0,6,7
 216 223 216 223 229.5 212 c 128,-1,8
 243 201 243 201 262 184.5 c 128,-1,9
 281 168 281 168 307 148.5 c 128,-1,10
 333 129 333 129 367.5 111.5 c 128,-1,11
 402 94 402 94 446 81 c 128,-1,12
 490 68 490 68 546 65 c 1,13,-1
 578 701 l 1,14,15
 510 722 510 722 445.5 748 c 128,-1,16
 381 774 381 774 330.5 814.5 c 128,-1,17
 280 855 280 855 249 914.5 c 128,-1,18
 218 974 218 974 218 1064 c 0,19,20
 218 1133 218 1133 244 1197.5 c 128,-1,21
 270 1262 270 1262 320.5 1312.5 c 128,-1,22
 371 1363 371 1363 445 1394 c 128,-1,23
 519 1425 519 1425 614 1428 c 1,24,-1
 623 1596 l 2,25,26
 624 1610 624 1610 631.5 1619 c 128,-1,27
 639 1628 639 1628 653 1628 c 2,28,-1
 689 1628 l 1,29,-1
 678 1427 l 1,30,31
 779 1420 779 1420 855 1382.5 c 128,-1,32
 931 1345 931 1345 994 1282 c 1,33,-1
 972 1248 l 2,34,35
 962 1231 962 1231 946 1231 c 0,36,37
 934 1231 934 1231 914.5 1247.5 c 128,-1,38
 895 1264 895 1264 863.5 1284 c 128,-1,39
 832 1304 832 1304 785.5 1322.5 c 128,-1,40
 739 1341 739 1341 674 1346 c 1,41,-1
 645 774 l 1,42,43
 692 759 692 759 739.5 743 c 128,-1,44
 787 727 787 727 830.5 707 c 128,-1,45
 874 687 874 687 911 661 c 128,-1,46
 948 635 948 635 975.5 599.5 c 128,-1,47
 1003 564 1003 564 1018.5 518.5 c 128,-1,48
 1034 473 1034 473 1034 413 c 0,49,50
 1034 327 1034 327 1005 251 c 128,-1,51
 976 175 976 175 921.5 117.5 c 128,-1,52
 867 60 867 60 787.5 25 c 128,-1,53
 708 -10 708 -10 606 -15 c 1,54,-1
 595 -226 l 2,55,56
 594 -239 594 -239 586.5 -248 c 128,-1,57
 579 -257 579 -257 566 -257 c 2,58,-1
 530 -257 l 1,59,-1
 542 -15 l 1,0,1
944 398 m 0,60,61
 944 464 944 464 919 510 c 128,-1,62
 894 556 894 556 852 588 c 128,-1,63
 810 620 810 620 755.5 641.5 c 128,-1,64
 701 663 701 663 641 682 c 1,65,-1
 610 65 l 1,66,67
 690 70 690 70 752.5 97.5 c 128,-1,68
 815 125 815 125 857.5 169.5 c 128,-1,69
 900 214 900 214 922 272.5 c 128,-1,70
 944 331 944 331 944 398 c 0,60,61
307 1072 m 0,71,72
 307 1010 307 1010 329 966 c 128,-1,73
 351 922 351 922 389 890.5 c 128,-1,74
 427 859 427 859 476.5 836.5 c 128,-1,75
 526 814 526 814 582 795 c 1,76,-1
 610 1347 l 1,77,78
 534 1343 534 1343 477.5 1319 c 128,-1,79
 421 1295 421 1295 383 1257.5 c 128,-1,80
 345 1220 345 1220 326 1172 c 128,-1,81
 307 1124 307 1124 307 1072 c 0,71,72
EndSplineSet
EndChar

StartChar: percent
Encoding: 37 37 8
Width: 1534
Flags: W
LayerCount: 2
Fore
SplineSet
682 1075 m 0,0,1
 682 988 682 988 658 921.5 c 128,-1,2
 634 855 634 855 593 811 c 128,-1,3
 552 767 552 767 498 744.5 c 128,-1,4
 444 722 444 722 384 722 c 0,5,6
 322 722 322 722 267.5 744.5 c 128,-1,7
 213 767 213 767 173 811 c 128,-1,8
 133 855 133 855 110 921.5 c 128,-1,9
 87 988 87 988 87 1075 c 0,10,11
 87 1163 87 1163 110 1230 c 128,-1,12
 133 1297 133 1297 173 1341.5 c 128,-1,13
 213 1386 213 1386 267.5 1408.5 c 128,-1,14
 322 1431 322 1431 384 1431 c 256,15,16
 446 1431 446 1431 500 1408.5 c 128,-1,17
 554 1386 554 1386 594.5 1341.5 c 128,-1,18
 635 1297 635 1297 658.5 1230 c 128,-1,19
 682 1163 682 1163 682 1075 c 0,0,1
606 1075 m 256,20,21
 606 1152 606 1152 588.5 1207 c 128,-1,22
 571 1262 571 1262 540.5 1297.5 c 128,-1,23
 510 1333 510 1333 469.5 1349.5 c 128,-1,24
 429 1366 429 1366 384 1366 c 256,25,26
 339 1366 339 1366 299 1349.5 c 128,-1,27
 259 1333 259 1333 229 1297.5 c 128,-1,28
 199 1262 199 1262 181.5 1207 c 128,-1,29
 164 1152 164 1152 164 1075 c 256,30,31
 164 998 164 998 181.5 943.5 c 128,-1,32
 199 889 199 889 229 854 c 128,-1,33
 259 819 259 819 299 802.5 c 128,-1,34
 339 786 339 786 384 786 c 256,35,36
 429 786 429 786 469.5 802.5 c 128,-1,37
 510 819 510 819 540.5 854 c 128,-1,38
 571 889 571 889 588.5 943.5 c 128,-1,39
 606 998 606 998 606 1075 c 256,20,21
1219 1397 m 2,40,41
 1225 1405 1225 1405 1233.5 1410 c 128,-1,42
 1242 1415 1242 1415 1256 1415 c 2,43,-1
 1323 1415 l 1,44,-1
 307 18 l 2,45,46
 294 0 294 0 272 0 c 2,47,-1
 204 0 l 1,48,-1
 1219 1397 l 2,40,41
1446 336 m 0,49,50
 1446 249 1446 249 1422 182.5 c 128,-1,51
 1398 116 1398 116 1357.5 72 c 128,-1,52
 1317 28 1317 28 1263 5.5 c 128,-1,53
 1209 -17 1209 -17 1149 -17 c 0,54,55
 1087 -17 1087 -17 1032.5 5.5 c 128,-1,56
 978 28 978 28 938 72 c 128,-1,57
 898 116 898 116 875 182.5 c 128,-1,58
 852 249 852 249 852 336 c 0,59,60
 852 424 852 424 875 491 c 128,-1,61
 898 558 898 558 938 602.5 c 128,-1,62
 978 647 978 647 1032.5 669.5 c 128,-1,63
 1087 692 1087 692 1149 692 c 256,64,65
 1211 692 1211 692 1265 669.5 c 128,-1,66
 1319 647 1319 647 1359.5 602.5 c 128,-1,67
 1400 558 1400 558 1423 491 c 128,-1,68
 1446 424 1446 424 1446 336 c 0,49,50
1370 336 m 256,69,70
 1370 413 1370 413 1352.5 468.5 c 128,-1,71
 1335 524 1335 524 1305 559.5 c 128,-1,72
 1275 595 1275 595 1234.5 611.5 c 128,-1,73
 1194 628 1194 628 1149 628 c 256,74,75
 1104 628 1104 628 1063.5 611.5 c 128,-1,76
 1023 595 1023 595 993 559.5 c 128,-1,77
 963 524 963 524 945.5 468.5 c 128,-1,78
 928 413 928 413 928 336 c 256,79,80
 928 259 928 259 945.5 204.5 c 128,-1,81
 963 150 963 150 993 115 c 128,-1,82
 1023 80 1023 80 1063.5 64 c 128,-1,83
 1104 48 1104 48 1149 48 c 256,84,85
 1194 48 1194 48 1234.5 64 c 128,-1,86
 1275 80 1275 80 1305 115 c 128,-1,87
 1335 150 1335 150 1352.5 204.5 c 128,-1,88
 1370 259 1370 259 1370 336 c 256,69,70
EndSplineSet
EndChar

StartChar: ampersand
Encoding: 38 38 9
Width: 1383
Flags: W
LayerCount: 2
Fore
SplineSet
659 1431 m 0,0,1
 726 1431 726 1431 786 1408 c 128,-1,2
 846 1385 846 1385 890.5 1346 c 128,-1,3
 935 1307 935 1307 961.5 1255.5 c 128,-1,4
 988 1204 988 1204 990 1148 c 1,5,6
 976 1145 976 1145 965 1142 c 0,7,8
 942 1137 942 1137 929 1137 c 0,9,10
 921 1137 921 1137 914 1143 c 128,-1,11
 907 1149 907 1149 904 1160 c 0,12,13
 897 1186 897 1186 880 1220 c 128,-1,14
 863 1254 863 1254 834 1284 c 128,-1,15
 805 1314 805 1314 761.5 1335 c 128,-1,16
 718 1356 718 1356 659 1356 c 0,17,18
 599 1356 599 1356 550 1337.5 c 128,-1,19
 501 1319 501 1319 466 1285.5 c 128,-1,20
 431 1252 431 1252 411.5 1206 c 128,-1,21
 392 1160 392 1160 392 1105 c 0,22,23
 392 1023 392 1023 434 948 c 128,-1,24
 476 873 476 873 564 787 c 2,25,-1
 1010 347 l 1,26,27
 1055 419 1055 419 1081.5 497 c 128,-1,28
 1108 575 1108 575 1116 648 c 0,29,30
 1118 661 1118 661 1124 668.5 c 128,-1,31
 1130 676 1130 676 1142 676 c 2,32,-1
 1197 676 l 1,33,34
 1195 582 1195 582 1161.5 482.5 c 128,-1,35
 1128 383 1128 383 1066 292 c 1,36,-1
 1364 0 l 1,37,-1
 1275 0 l 2,38,39
 1257 0 1257 0 1245.5 4 c 128,-1,40
 1234 8 1234 8 1219 22 c 2,41,-1
 1014 223 l 1,42,43
 969 171 969 171 915 127 c 128,-1,44
 861 83 861 83 798 51.5 c 128,-1,45
 735 20 735 20 663.5 2 c 128,-1,46
 592 -16 592 -16 513 -16 c 0,47,48
 438 -16 438 -16 365 9 c 128,-1,49
 292 34 292 34 234.5 82.5 c 128,-1,50
 177 131 177 131 141.5 201.5 c 128,-1,51
 106 272 106 272 106 362 c 0,52,53
 106 434 106 434 132 499.5 c 128,-1,54
 158 565 158 565 203 619.5 c 128,-1,55
 248 674 248 674 310 717 c 128,-1,56
 372 760 372 760 444 787 c 1,57,58
 373 867 373 867 337.5 942.5 c 128,-1,59
 302 1018 302 1018 302 1104 c 0,60,61
 302 1174 302 1174 327.5 1233.5 c 128,-1,62
 353 1293 353 1293 400 1337 c 128,-1,63
 447 1381 447 1381 512.5 1406 c 128,-1,64
 578 1431 578 1431 659 1431 c 0,0,1
203 368 m 0,65,66
 203 291 203 291 232.5 234 c 128,-1,67
 262 177 262 177 309 138.5 c 128,-1,68
 356 100 356 100 413.5 81 c 128,-1,69
 471 62 471 62 527 62 c 0,70,71
 597 62 597 62 659.5 78 c 128,-1,72
 722 94 722 94 776.5 122.5 c 128,-1,73
 831 151 831 151 876.5 190 c 128,-1,74
 922 229 922 229 960 276 c 1,75,-1
 501 727 l 2,76,77
 495 732 495 732 490 738 c 1,78,79
 424 710 424 710 370.5 671 c 128,-1,80
 317 632 317 632 280 584.5 c 128,-1,81
 243 537 243 537 223 482 c 128,-1,82
 203 427 203 427 203 368 c 0,65,66
EndSplineSet
EndChar

StartChar: quotesingle
Encoding: 39 39 10
Width: 443
Flags: W
LayerCount: 2
Fore
SplineSet
263 1415 m 1,0,-1
 263 1123 l 1,1,-1
 254 970 l 2,2,3
 252 953 252 953 245 943.5 c 128,-1,4
 238 934 238 934 221 934 c 0,5,6
 207 934 207 934 199 943.5 c 128,-1,7
 191 953 191 953 189 970 c 2,8,-1
 180 1123 l 1,9,-1
 180 1415 l 1,10,-1
 263 1415 l 1,0,-1
EndSplineSet
EndChar

StartChar: parenleft
Encoding: 40 40 11
Width: 600
Flags: W
LayerCount: 2
Fore
SplineSet
253 630 m 0,0,1
 253 406 253 406 313.5 200.5 c 128,-1,2
 374 -5 374 -5 494 -196 c 0,3,4
 501 -207 501 -207 501 -217 c 0,5,6
 501 -232 501 -232 487 -239 c 2,7,-1
 445 -265 l 1,8,9
 368 -147 368 -147 315.5 -36.5 c 128,-1,10
 263 74 263 74 231 183.5 c 128,-1,11
 199 293 199 293 184.5 403 c 128,-1,12
 170 513 170 513 170 630 c 256,13,14
 170 747 170 747 184.5 857.5 c 128,-1,15
 199 968 199 968 231 1077.5 c 128,-1,16
 263 1187 263 1187 315.5 1297.5 c 128,-1,17
 368 1408 368 1408 445 1526 c 1,18,-1
 487 1500 l 2,19,20
 500 1493 500 1493 500 1479 c 0,21,22
 500 1469 500 1469 493 1458 c 0,23,24
 374 1266 374 1266 313.5 1060.5 c 128,-1,25
 253 855 253 855 253 630 c 0,0,1
EndSplineSet
EndChar

StartChar: parenright
Encoding: 41 41 12
Width: 600
Flags: W
LayerCount: 2
Fore
SplineSet
346 630 m 0,0,1
 346 855 346 855 285.5 1060.5 c 128,-1,2
 225 1266 225 1266 106 1458 c 0,3,4
 99 1469 99 1469 99 1479 c 0,5,6
 99 1493 99 1493 112 1500 c 2,7,-1
 154 1526 l 1,8,9
 230 1408 230 1408 283 1297.5 c 128,-1,10
 336 1187 336 1187 368 1077.5 c 128,-1,11
 400 968 400 968 414.5 857.5 c 128,-1,12
 429 747 429 747 429 630 c 256,13,14
 429 513 429 513 414.5 403 c 128,-1,15
 400 293 400 293 368 183.5 c 128,-1,16
 336 74 336 74 283 -36.5 c 128,-1,17
 230 -147 230 -147 154 -265 c 1,18,-1
 112 -239 l 2,19,20
 98 -232 98 -232 98 -217 c 0,21,22
 98 -207 98 -207 105 -196 c 0,23,24
 225 -5 225 -5 285.5 200.5 c 128,-1,25
 346 406 346 406 346 630 c 0,0,1
EndSplineSet
EndChar

StartChar: asterisk
Encoding: 42 42 13
Width: 800
Flags: W
LayerCount: 2
Fore
SplineSet
372 897 m 1,0,-1
 372 1110 l 2,1,2
 372 1127 372 1127 374.5 1140 c 128,-1,3
 377 1153 377 1153 385 1170 c 1,4,5
 374 1155 374 1155 363.5 1147 c 128,-1,6
 353 1139 353 1139 338 1130 c 2,7,-1
 150 1021 l 1,8,-1
 125 1065 l 1,9,-1
 313 1175 l 2,10,11
 327 1183 327 1183 340 1187 c 128,-1,12
 353 1191 353 1191 371 1194 c 1,13,14
 352 1197 352 1197 339.5 1202 c 128,-1,15
 327 1207 327 1207 313 1215 c 2,16,-1
 123 1325 l 1,17,-1
 149 1370 l 1,18,-1
 338 1260 l 2,19,20
 354 1250 354 1250 363.5 1240.5 c 128,-1,21
 373 1231 373 1231 387 1214 c 1,22,23
 379 1233 379 1233 375.5 1247.5 c 128,-1,24
 372 1262 372 1262 372 1279 c 2,25,-1
 372 1493 l 1,26,-1
 424 1493 l 1,27,-1
 424 1280 l 2,28,29
 424 1262 424 1262 421.5 1247.5 c 128,-1,30
 419 1233 419 1233 411 1215 c 1,31,32
 423 1232 423 1232 433 1241.5 c 128,-1,33
 443 1251 443 1251 459 1260 c 2,34,-1
 647 1369 l 1,35,-1
 673 1324 l 1,36,-1
 485 1215 l 2,37,38
 470 1206 470 1206 457 1201 c 128,-1,39
 444 1196 444 1196 427 1194 c 1,40,41
 445 1191 445 1191 457.5 1187 c 128,-1,42
 470 1183 470 1183 485 1175 c 2,43,-1
 674 1065 l 1,44,-1
 649 1020 l 1,45,-1
 459 1130 l 2,46,47
 444 1139 444 1139 434 1147 c 128,-1,48
 424 1155 424 1155 411 1172 c 1,49,50
 417 1154 417 1154 420.5 1141 c 128,-1,51
 424 1128 424 1128 424 1111 c 2,52,-1
 424 897 l 1,53,-1
 372 897 l 1,0,-1
EndSplineSet
EndChar

StartChar: plus
Encoding: 43 43 14
Width: 1160
Flags: W
LayerCount: 2
Fore
SplineSet
617 1158 m 1,0,-1
 617 707 l 1,1,-1
 1048 707 l 1,2,-1
 1048 634 l 1,3,-1
 617 634 l 1,4,-1
 617 181 l 1,5,-1
 539 181 l 1,6,-1
 539 634 l 1,7,-1
 109 634 l 1,8,-1
 109 707 l 1,9,-1
 539 707 l 1,10,-1
 539 1158 l 1,11,-1
 617 1158 l 1,0,-1
EndSplineSet
EndChar

StartChar: comma
Encoding: 44 44 15
Width: 395
Flags: W
LayerCount: 2
Fore
SplineSet
110 85 m 0,0,1
 110 120 110 120 134 145 c 128,-1,2
 158 170 158 170 197 170 c 0,3,4
 240 170 240 170 263.5 140.5 c 128,-1,5
 287 111 287 111 287 63 c 0,6,7
 287 22 287 22 276.5 -20.5 c 128,-1,8
 266 -63 266 -63 246 -104 c 128,-1,9
 226 -145 226 -145 198 -183 c 128,-1,10
 170 -221 170 -221 136 -253 c 1,11,-1
 121 -238 l 2,12,13
 113 -230 113 -230 113 -221 c 0,14,15
 113 -216 113 -216 116 -211 c 128,-1,16
 119 -206 119 -206 123 -202 c 0,17,18
 133 -192 133 -192 148.5 -172.5 c 128,-1,19
 164 -153 164 -153 179.5 -126.5 c 128,-1,20
 195 -100 195 -100 207.5 -68 c 128,-1,21
 220 -36 220 -36 224 0 c 1,22,23
 218 -2 218 -2 210.5 -3 c 128,-1,24
 203 -4 203 -4 194 -4 c 0,25,26
 157 -4 157 -4 133.5 21 c 128,-1,27
 110 46 110 46 110 85 c 0,0,1
EndSplineSet
EndChar

StartChar: hyphen
Encoding: 45 45 16
Width: 665
Flags: W
LayerCount: 2
Fore
SplineSet
100 634 m 1,0,-1
 565 634 l 1,1,-1
 565 553 l 1,2,-1
 100 553 l 1,3,-1
 100 634 l 1,0,-1
EndSplineSet
EndChar

StartChar: period
Encoding: 46 46 17
Width: 395
Flags: W
LayerCount: 2
Fore
SplineSet
105 77 m 0,0,1
 105 96 105 96 112 113 c 128,-1,2
 119 130 119 130 131.5 142.5 c 128,-1,3
 144 155 144 155 160.5 162.5 c 128,-1,4
 177 170 177 170 197 170 c 0,5,6
 216 170 216 170 233 162.5 c 128,-1,7
 250 155 250 155 262.5 142.5 c 128,-1,8
 275 130 275 130 282.5 113 c 128,-1,9
 290 96 290 96 290 77 c 0,10,11
 290 57 290 57 282.5 40.5 c 128,-1,12
 275 24 275 24 262.5 11.5 c 128,-1,13
 250 -1 250 -1 233 -8 c 128,-1,14
 216 -15 216 -15 197 -15 c 0,15,16
 158 -15 158 -15 131.5 11.5 c 128,-1,17
 105 38 105 38 105 77 c 0,0,1
EndSplineSet
EndChar

StartChar: slash
Encoding: 47 47 18
Width: 713
Flags: W
LayerCount: 2
Fore
SplineSet
91 -45 m 2,0,1
 83 -65 83 -65 67 -74.5 c 128,-1,2
 51 -84 51 -84 34 -84 c 2,3,-1
 -5 -84 l 1,4,-1
 617 1418 l 2,5,6
 632 1455 632 1455 671 1455 c 2,7,-1
 712 1455 l 1,8,-1
 91 -45 l 2,0,1
EndSplineSet
EndChar

StartChar: zero
Encoding: 48 48 19
Width: 1160
Flags: W
LayerCount: 2
Fore
SplineSet
1087 708 m 256,0,1
 1087 522 1087 522 1047 386 c 128,-1,2
 1007 250 1007 250 938 161 c 128,-1,3
 869 72 869 72 776.5 28.5 c 128,-1,4
 684 -15 684 -15 579 -15 c 256,5,6
 474 -15 474 -15 382 28.5 c 128,-1,7
 290 72 290 72 221 161 c 128,-1,8
 152 250 152 250 112.5 386 c 128,-1,9
 73 522 73 522 73 708 c 256,10,11
 73 894 73 894 112.5 1030 c 128,-1,12
 152 1166 152 1166 221 1255 c 128,-1,13
 290 1344 290 1344 382 1387.5 c 128,-1,14
 474 1431 474 1431 579 1431 c 256,15,16
 684 1431 684 1431 776.5 1387.5 c 128,-1,17
 869 1344 869 1344 938 1255 c 128,-1,18
 1007 1166 1007 1166 1047 1030 c 128,-1,19
 1087 894 1087 894 1087 708 c 256,0,1
987 708 m 0,20,21
 987 880 987 880 954 1002 c 128,-1,22
 921 1124 921 1124 865.5 1201.5 c 128,-1,23
 810 1279 810 1279 735.5 1315 c 128,-1,24
 661 1351 661 1351 579 1351 c 256,25,26
 497 1351 497 1351 423 1315 c 128,-1,27
 349 1279 349 1279 293 1201.5 c 128,-1,28
 237 1124 237 1124 204 1002 c 128,-1,29
 171 880 171 880 171 708 c 0,30,31
 171 535 171 535 204 413.5 c 128,-1,32
 237 292 237 292 293 214.5 c 128,-1,33
 349 137 349 137 423 101.5 c 128,-1,34
 497 66 497 66 579 66 c 256,35,36
 661 66 661 66 735.5 101.5 c 128,-1,37
 810 137 810 137 865.5 214.5 c 128,-1,38
 921 292 921 292 954 413.5 c 128,-1,39
 987 535 987 535 987 708 c 0,20,21
EndSplineSet
EndChar

StartChar: one
Encoding: 49 49 20
Width: 1160
Flags: W
LayerCount: 2
Fore
SplineSet
309 74 m 1,0,-1
 634 74 l 1,1,-1
 634 1222 l 2,2,3
 634 1256 634 1256 637 1294 c 1,4,-1
 325 1017 l 2,5,6
 315 1008 315 1008 301 1008 c 0,7,8
 284 1008 284 1008 275 1020 c 2,9,-1
 246 1060 l 1,10,-1
 655 1421 l 1,11,-1
 729 1421 l 1,12,-1
 729 74 l 1,13,-1
 1038 74 l 1,14,-1
 1038 0 l 1,15,-1
 309 0 l 1,16,-1
 309 74 l 1,0,-1
EndSplineSet
EndChar

StartChar: two
Encoding: 50 50 21
Width: 1160
Flags: W
LayerCount: 2
Fore
SplineSet
602 1431 m 0,0,1
 683 1431 683 1431 756.5 1407.5 c 128,-1,2
 830 1384 830 1384 886 1336.5 c 128,-1,3
 942 1289 942 1289 975 1217.5 c 128,-1,4
 1008 1146 1008 1146 1008 1050 c 0,5,6
 1008 970 1008 970 983.5 901.5 c 128,-1,7
 959 833 959 833 917 770 c 128,-1,8
 875 707 875 707 819.5 647.5 c 128,-1,9
 764 588 764 588 703 526 c 2,10,-1
 260 74 l 1,11,12
 292 82 292 82 326.5 86 c 128,-1,13
 361 90 361 90 396 90 c 2,14,-1
 1007 90 l 2,15,16
 1023 90 1023 90 1032.5 80.5 c 128,-1,17
 1042 71 1042 71 1042 56 c 2,18,-1
 1042 0 l 1,19,-1
 129 0 l 1,20,-1
 129 34 l 2,21,22
 129 45 129 45 134.5 56.5 c 128,-1,23
 140 68 140 68 148 76 c 2,24,-1
 631 565 l 2,25,26
 691 626 691 626 742 683 c 128,-1,27
 793 740 793 740 830.5 798 c 128,-1,28
 868 856 868 856 889.5 917 c 128,-1,29
 911 978 911 978 911 1047 c 0,30,31
 911 1125 911 1125 885 1182.5 c 128,-1,32
 859 1240 859 1240 815.5 1277 c 128,-1,33
 772 1314 772 1314 715.5 1332 c 128,-1,34
 659 1350 659 1350 597 1350 c 0,35,36
 530 1350 530 1350 473.5 1329.5 c 128,-1,37
 417 1309 417 1309 373.5 1272.5 c 128,-1,38
 330 1236 330 1236 301.5 1185.5 c 128,-1,39
 273 1135 273 1135 262 1075 c 0,40,41
 252 1040 252 1040 222 1040 c 0,42,43
 220 1040 220 1040 217 1040.5 c 128,-1,44
 214 1041 214 1041 212 1041 c 2,45,-1
 164 1049 l 1,46,47
 176 1140 176 1140 213.5 1211 c 128,-1,48
 251 1282 251 1282 308 1331 c 128,-1,49
 365 1380 365 1380 440 1405.5 c 128,-1,50
 515 1431 515 1431 602 1431 c 0,0,1
EndSplineSet
EndChar

StartChar: three
Encoding: 51 51 22
Width: 1160
Flags: W
LayerCount: 2
Fore
SplineSet
613 1431 m 0,0,1
 694 1431 694 1431 766 1408.5 c 128,-1,2
 838 1386 838 1386 892.5 1341 c 128,-1,3
 947 1296 947 1296 978.5 1229 c 128,-1,4
 1010 1162 1010 1162 1010 1074 c 0,5,6
 1010 1005 1010 1005 988.5 949.5 c 128,-1,7
 967 894 967 894 929.5 852 c 128,-1,8
 892 810 892 810 841 781.5 c 128,-1,9
 790 753 790 753 730 738 c 1,10,11
 886 709 886 709 966 617.5 c 128,-1,12
 1046 526 1046 526 1046 389 c 0,13,14
 1046 302 1046 302 1011 227.5 c 128,-1,15
 976 153 976 153 915 99 c 128,-1,16
 854 45 854 45 771 14.5 c 128,-1,17
 688 -16 688 -16 591 -16 c 0,18,19
 470 -16 470 -16 389.5 16.5 c 128,-1,20
 309 49 309 49 257 101 c 128,-1,21
 205 153 205 153 176 217.5 c 128,-1,22
 147 282 147 282 129 346 c 1,23,-1
 167 362 l 2,24,25
 179 367 179 367 190 367 c 256,26,27
 201 367 201 367 211 362 c 128,-1,28
 221 357 221 357 226 343 c 2,29,-1
 233 323 l 2,30,31
 239 305 239 305 250 278.5 c 128,-1,32
 261 252 261 252 278.5 223.5 c 128,-1,33
 296 195 296 195 322 166.5 c 128,-1,34
 348 138 348 138 385.5 115.5 c 128,-1,35
 423 93 423 93 473.5 79 c 128,-1,36
 524 65 524 65 590 65 c 0,37,38
 680 65 680 65 747.5 95 c 128,-1,39
 815 125 815 125 860.5 171.5 c 128,-1,40
 906 218 906 218 928.5 275.5 c 128,-1,41
 951 333 951 333 951 387 c 0,42,43
 951 452 951 452 930.5 508 c 128,-1,44
 910 564 910 564 862 604.5 c 128,-1,45
 814 645 814 645 735.5 668.5 c 128,-1,46
 657 692 657 692 542 692 c 1,47,-1
 542 761 l 1,48,49
 634 763 634 763 704 785.5 c 128,-1,50
 774 808 774 808 821 847 c 128,-1,51
 868 886 868 886 892 940 c 128,-1,52
 916 994 916 994 916 1059 c 0,53,54
 916 1134 916 1134 891 1189 c 128,-1,55
 866 1244 866 1244 824 1280 c 128,-1,56
 782 1316 782 1316 726 1333 c 128,-1,57
 670 1350 670 1350 609 1350 c 0,58,59
 542 1350 542 1350 486 1330 c 128,-1,60
 430 1310 430 1310 387 1274 c 128,-1,61
 344 1238 344 1238 315 1187.5 c 128,-1,62
 286 1137 286 1137 272 1075 c 0,63,64
 264 1040 264 1040 235 1040 c 0,65,66
 228 1040 228 1040 224 1041 c 2,67,-1
 175 1049 l 1,68,69
 188 1140 188 1140 225 1211 c 128,-1,70
 262 1282 262 1282 319 1331 c 128,-1,71
 376 1380 376 1380 451 1405.5 c 128,-1,72
 526 1431 526 1431 613 1431 c 0,0,1
EndSplineSet
EndChar

StartChar: four
Encoding: 52 52 23
Width: 1160
Flags: W
LayerCount: 2
Fore
SplineSet
859 482 m 1,0,-1
 1118 482 l 1,1,-1
 1118 430 l 2,2,3
 1118 419 1118 419 1111.5 412.5 c 128,-1,4
 1105 406 1105 406 1091 406 c 2,5,-1
 859 406 l 1,6,-1
 859 0 l 1,7,-1
 773 0 l 1,8,-1
 773 406 l 1,9,-1
 106 406 l 2,10,11
 91 406 91 406 83 412.5 c 128,-1,12
 75 419 75 419 72 430 c 2,13,-1
 63 477 l 1,14,-1
 774 1417 l 1,15,-1
 859 1417 l 1,16,-1
 859 482 l 1,0,-1
773 1223 m 2,17,18
 773 1240 773 1240 774 1259 c 128,-1,19
 775 1278 775 1278 778 1298 c 1,20,-1
 167 482 l 1,21,-1
 773 482 l 1,22,-1
 773 1223 l 2,17,18
EndSplineSet
EndChar

StartChar: five
Encoding: 53 53 24
Width: 1160
Flags: W
LayerCount: 2
Fore
SplineSet
966 1374 m 2,0,1
 966 1354 966 1354 952.5 1340.5 c 128,-1,2
 939 1327 939 1327 910 1327 c 2,3,-1
 398 1327 l 1,4,-1
 313 855 l 1,5,6
 380 872 380 872 440 879.5 c 128,-1,7
 500 887 500 887 555 887 c 0,8,9
 665 887 665 887 749 855.5 c 128,-1,10
 833 824 833 824 889.5 767.5 c 128,-1,11
 946 711 946 711 975 633 c 128,-1,12
 1004 555 1004 555 1004 463 c 0,13,14
 1004 351 1004 351 965 262.5 c 128,-1,15
 926 174 926 174 859.5 112 c 128,-1,16
 793 50 793 50 704 17 c 128,-1,17
 615 -16 615 -16 515 -16 c 0,18,19
 456 -16 456 -16 403 -5.5 c 128,-1,20
 350 5 350 5 303 22.5 c 128,-1,21
 256 40 256 40 217 63 c 128,-1,22
 178 86 178 86 148 110 c 1,23,-1
 176 149 l 2,24,25
 186 164 186 164 205 164 c 0,26,27
 218 164 218 164 242.5 149 c 128,-1,28
 267 134 267 134 305.5 116 c 128,-1,29
 344 98 344 98 396.5 83 c 128,-1,30
 449 68 449 68 519 68 c 0,31,32
 601 68 601 68 672 94.5 c 128,-1,33
 743 121 743 121 795.5 171 c 128,-1,34
 848 221 848 221 877.5 294.5 c 128,-1,35
 907 368 907 368 907 461 c 0,36,37
 907 537 907 537 884.5 601 c 128,-1,38
 862 665 862 665 816.5 710.5 c 128,-1,39
 771 756 771 756 701.5 781.5 c 128,-1,40
 632 807 632 807 538 807 c 0,41,42
 481 807 481 807 417 798 c 128,-1,43
 353 789 353 789 281 769 c 1,44,-1
 219 788 l 1,45,-1
 330 1415 l 1,46,-1
 966 1415 l 1,47,-1
 966 1374 l 2,0,1
EndSplineSet
EndChar

StartChar: six
Encoding: 54 54 25
Width: 1160
Flags: W
LayerCount: 2
Fore
SplineSet
628 846 m 0,0,1
 719 846 719 846 796 816 c 128,-1,2
 873 786 873 786 928.5 731.5 c 128,-1,3
 984 677 984 677 1015.5 599.5 c 128,-1,4
 1047 522 1047 522 1047 426 c 256,5,6
 1047 330 1047 330 1012.5 249 c 128,-1,7
 978 168 978 168 916.5 109 c 128,-1,8
 855 50 855 50 769 17 c 128,-1,9
 683 -16 683 -16 580 -16 c 0,10,11
 481 -16 481 -16 399 16 c 128,-1,12
 317 48 317 48 258.5 108 c 128,-1,13
 200 168 200 168 168 254.5 c 128,-1,14
 136 341 136 341 136 450 c 0,15,16
 136 533 136 533 178 637.5 c 128,-1,17
 220 742 220 742 316 872 c 2,18,-1
 702 1392 l 2,19,20
 719 1415 719 1415 753 1415 c 2,21,-1
 837 1415 l 1,22,-1
 415 864 l 2,23,24
 384 823 384 823 358 787 c 128,-1,25
 332 751 332 751 311 716 c 1,26,27
 370 777 370 777 451 811.5 c 128,-1,28
 532 846 532 846 628 846 c 0,0,1
229 427 m 0,29,30
 229 348 229 348 253.5 281 c 128,-1,31
 278 214 278 214 323 165.5 c 128,-1,32
 368 117 368 117 433 90 c 128,-1,33
 498 63 498 63 579 63 c 0,34,35
 665 63 665 63 734 90 c 128,-1,36
 803 117 803 117 851.5 164.5 c 128,-1,37
 900 212 900 212 926 277.5 c 128,-1,38
 952 343 952 343 952 420 c 0,39,40
 952 501 952 501 926.5 566.5 c 128,-1,41
 901 632 901 632 854.5 677.5 c 128,-1,42
 808 723 808 723 744 747.5 c 128,-1,43
 680 772 680 772 602 772 c 0,44,45
 514 772 514 772 444.5 741.5 c 128,-1,46
 375 711 375 711 327 662.5 c 128,-1,47
 279 614 279 614 254 552 c 128,-1,48
 229 490 229 490 229 427 c 0,29,30
EndSplineSet
EndChar

StartChar: seven
Encoding: 55 55 26
Width: 1160
Flags: W
LayerCount: 2
Fore
SplineSet
1071 1415 m 1,0,-1
 1071 1372 l 2,1,2
 1071 1355 1071 1355 1067.5 1342.5 c 128,-1,3
 1064 1330 1064 1330 1059 1321 c 2,4,-1
 410 36 l 2,5,6
 402 20 402 20 388.5 10 c 128,-1,7
 375 0 375 0 353 0 c 2,8,-1
 288 0 l 1,9,-1
 941 1280 l 2,10,11
 954 1306 954 1306 972 1327 c 1,12,-1
 156 1327 l 2,13,14
 145 1327 145 1327 137.5 1335 c 128,-1,15
 130 1343 130 1343 130 1354 c 2,16,-1
 130 1415 l 1,17,-1
 1071 1415 l 1,0,-1
EndSplineSet
EndChar

StartChar: eight
Encoding: 56 56 27
Width: 1160
Flags: W
LayerCount: 2
Fore
SplineSet
580 -16 m 256,0,1
 478 -16 478 -16 393.5 11 c 128,-1,2
 309 38 309 38 248.5 89 c 128,-1,3
 188 140 188 140 154 212 c 128,-1,4
 120 284 120 284 120 374 c 0,5,6
 120 452 120 452 142.5 513 c 128,-1,7
 165 574 165 574 206 619 c 128,-1,8
 247 664 247 664 303.5 694 c 128,-1,9
 360 724 360 724 428 739 c 1,10,11
 366 757 366 757 318 788 c 128,-1,12
 270 819 270 819 237.5 862 c 128,-1,13
 205 905 205 905 188 957.5 c 128,-1,14
 171 1010 171 1010 171 1070 c 0,15,16
 171 1145 171 1145 199.5 1211 c 128,-1,17
 228 1277 228 1277 281 1326 c 128,-1,18
 334 1375 334 1375 409.5 1403 c 128,-1,19
 485 1431 485 1431 580 1431 c 0,20,21
 674 1431 674 1431 749.5 1403 c 128,-1,22
 825 1375 825 1375 878.5 1326 c 128,-1,23
 932 1277 932 1277 960.5 1211 c 128,-1,24
 989 1145 989 1145 989 1070 c 0,25,26
 989 1010 989 1010 972 957.5 c 128,-1,27
 955 905 955 905 922 862 c 128,-1,28
 889 819 889 819 841 788 c 128,-1,29
 793 757 793 757 731 739 c 1,30,31
 799 724 799 724 855.5 694 c 128,-1,32
 912 664 912 664 953 619 c 128,-1,33
 994 574 994 574 1017 513 c 128,-1,34
 1040 452 1040 452 1040 374 c 0,35,36
 1040 284 1040 284 1006 212 c 128,-1,37
 972 140 972 140 911.5 89 c 128,-1,38
 851 38 851 38 766.5 11 c 128,-1,39
 682 -16 682 -16 580 -16 c 256,0,1
580 60 m 256,40,41
 661 60 661 60 727.5 82.5 c 128,-1,42
 794 105 794 105 842 146.5 c 128,-1,43
 890 188 890 188 916 246 c 128,-1,44
 942 304 942 304 942 375 c 0,45,46
 942 468 942 468 908 530 c 128,-1,47
 874 592 874 592 821 629 c 128,-1,48
 768 666 768 666 704 681.5 c 128,-1,49
 640 697 640 697 580 697 c 256,50,51
 520 697 520 697 456 681.5 c 128,-1,52
 392 666 392 666 339 629 c 128,-1,53
 286 592 286 592 252 530 c 128,-1,54
 218 468 218 468 218 375 c 0,55,56
 218 304 218 304 244 246 c 128,-1,57
 270 188 270 188 317.5 146.5 c 128,-1,58
 365 105 365 105 432 82.5 c 128,-1,59
 499 60 499 60 580 60 c 256,40,41
580 774 m 0,60,61
 661 774 661 774 720.5 798.5 c 128,-1,62
 780 823 780 823 819 864.5 c 128,-1,63
 858 906 858 906 876.5 959 c 128,-1,64
 895 1012 895 1012 895 1069 c 0,65,66
 895 1130 895 1130 874 1182.5 c 128,-1,67
 853 1235 853 1235 812.5 1274 c 128,-1,68
 772 1313 772 1313 713.5 1335 c 128,-1,69
 655 1357 655 1357 580 1357 c 256,70,71
 505 1357 505 1357 446 1335 c 128,-1,72
 387 1313 387 1313 346.5 1274 c 128,-1,73
 306 1235 306 1235 285 1182.5 c 128,-1,74
 264 1130 264 1130 264 1069 c 0,75,76
 264 1012 264 1012 282.5 959 c 128,-1,77
 301 906 301 906 340 864.5 c 128,-1,78
 379 823 379 823 438.5 798.5 c 128,-1,79
 498 774 498 774 580 774 c 0,60,61
EndSplineSet
EndChar

StartChar: nine
Encoding: 57 57 28
Width: 1160
Flags: W
LayerCount: 2
Fore
SplineSet
573 602 m 0,0,1
 486 602 486 602 412.5 630.5 c 128,-1,2
 339 659 339 659 285.5 712 c 128,-1,3
 232 765 232 765 202 839.5 c 128,-1,4
 172 914 172 914 172 1006 c 0,5,6
 172 1097 172 1097 205.5 1174.5 c 128,-1,7
 239 1252 239 1252 299 1309 c 128,-1,8
 359 1366 359 1366 441.5 1398.5 c 128,-1,9
 524 1431 524 1431 622 1431 c 0,10,11
 716 1431 716 1431 794.5 1399 c 128,-1,12
 873 1367 873 1367 929.5 1308.5 c 128,-1,13
 986 1250 986 1250 1017.5 1168.5 c 128,-1,14
 1049 1087 1049 1087 1049 987 c 0,15,16
 1049 932 1049 932 1037.5 882 c 128,-1,17
 1026 832 1026 832 1003.5 782 c 128,-1,18
 981 732 981 732 949 679.5 c 128,-1,19
 917 627 917 627 876 567 c 2,20,-1
 505 23 l 2,21,22
 490 0 490 0 456 0 c 2,23,-1
 370 0 l 1,24,-1
 788 584 l 2,25,26
 818 626 818 626 843.5 663.5 c 128,-1,27
 869 701 869 701 890 736 c 1,28,29
 832 672 832 672 749.5 637 c 128,-1,30
 667 602 667 602 573 602 c 0,0,1
957 1005 m 0,31,32
 957 1082 957 1082 932 1146 c 128,-1,33
 907 1210 907 1210 862 1255.5 c 128,-1,34
 817 1301 817 1301 755.5 1326.5 c 128,-1,35
 694 1352 694 1352 621 1352 c 0,36,37
 543 1352 543 1352 477.5 1327 c 128,-1,38
 412 1302 412 1302 365.5 1257 c 128,-1,39
 319 1212 319 1212 293 1149.5 c 128,-1,40
 267 1087 267 1087 267 1012 c 0,41,42
 267 934 267 934 291 871.5 c 128,-1,43
 315 809 315 809 358.5 765.5 c 128,-1,44
 402 722 402 722 463.5 699 c 128,-1,45
 525 676 525 676 600 676 c 0,46,47
 685 676 685 676 751.5 705 c 128,-1,48
 818 734 818 734 864 781 c 128,-1,49
 910 828 910 828 933.5 886.5 c 128,-1,50
 957 945 957 945 957 1005 c 0,31,32
EndSplineSet
EndChar

StartChar: colon
Encoding: 58 58 29
Width: 475
Flags: W
LayerCount: 2
Fore
SplineSet
145 77 m 0,0,1
 145 96 145 96 152 113 c 128,-1,2
 159 130 159 130 171.5 142.5 c 128,-1,3
 184 155 184 155 200.5 162.5 c 128,-1,4
 217 170 217 170 237 170 c 0,5,6
 256 170 256 170 273 162.5 c 128,-1,7
 290 155 290 155 302.5 142.5 c 128,-1,8
 315 130 315 130 322.5 113 c 128,-1,9
 330 96 330 96 330 77 c 0,10,11
 330 57 330 57 322.5 40.5 c 128,-1,12
 315 24 315 24 302.5 11.5 c 128,-1,13
 290 -1 290 -1 273 -8 c 128,-1,14
 256 -15 256 -15 237 -15 c 0,15,16
 198 -15 198 -15 171.5 11.5 c 128,-1,17
 145 38 145 38 145 77 c 0,0,1
145 874 m 0,18,19
 145 893 145 893 152 910 c 128,-1,20
 159 927 159 927 171.5 939.5 c 128,-1,21
 184 952 184 952 200.5 959.5 c 128,-1,22
 217 967 217 967 237 967 c 0,23,24
 256 967 256 967 273 959.5 c 128,-1,25
 290 952 290 952 302.5 939.5 c 128,-1,26
 315 927 315 927 322.5 910 c 128,-1,27
 330 893 330 893 330 874 c 0,28,29
 330 854 330 854 322.5 837.5 c 128,-1,30
 315 821 315 821 302.5 808.5 c 128,-1,31
 290 796 290 796 273 789 c 128,-1,32
 256 782 256 782 237 782 c 0,33,34
 198 782 198 782 171.5 808.5 c 128,-1,35
 145 835 145 835 145 874 c 0,18,19
EndSplineSet
EndChar

StartChar: semicolon
Encoding: 59 59 30
Width: 475
Flags: W
LayerCount: 2
Fore
SplineSet
145 874 m 0,0,1
 145 893 145 893 152 910 c 128,-1,2
 159 927 159 927 171.5 939.5 c 128,-1,3
 184 952 184 952 200.5 959.5 c 128,-1,4
 217 967 217 967 237 967 c 0,5,6
 256 967 256 967 273 959.5 c 128,-1,7
 290 952 290 952 302.5 939.5 c 128,-1,8
 315 927 315 927 322.5 910 c 128,-1,9
 330 893 330 893 330 874 c 0,10,11
 330 854 330 854 322.5 837.5 c 128,-1,12
 315 821 315 821 302.5 808.5 c 128,-1,13
 290 796 290 796 273 789 c 128,-1,14
 256 782 256 782 237 782 c 0,15,16
 198 782 198 782 171.5 808.5 c 128,-1,17
 145 835 145 835 145 874 c 0,0,1
150 85 m 0,18,19
 150 120 150 120 174 145 c 128,-1,20
 198 170 198 170 237 170 c 0,21,22
 280 170 280 170 303.5 140.5 c 128,-1,23
 327 111 327 111 327 63 c 0,24,25
 327 22 327 22 316.5 -20.5 c 128,-1,26
 306 -63 306 -63 286 -104 c 128,-1,27
 266 -145 266 -145 238 -183 c 128,-1,28
 210 -221 210 -221 176 -253 c 1,29,-1
 161 -238 l 2,30,31
 153 -230 153 -230 153 -221 c 0,32,33
 153 -216 153 -216 156 -211 c 128,-1,34
 159 -206 159 -206 163 -202 c 0,35,36
 173 -192 173 -192 188.5 -172.5 c 128,-1,37
 204 -153 204 -153 219.5 -126.5 c 128,-1,38
 235 -100 235 -100 247.5 -68 c 128,-1,39
 260 -36 260 -36 264 0 c 1,40,41
 258 -2 258 -2 250.5 -3 c 128,-1,42
 243 -4 243 -4 234 -4 c 0,43,44
 197 -4 197 -4 173.5 21 c 128,-1,45
 150 46 150 46 150 85 c 0,18,19
EndSplineSet
EndChar

StartChar: less
Encoding: 60 60 31
Width: 1160
Flags: W
LayerCount: 2
Fore
SplineSet
160 692 m 1,0,-1
 910 1077 l 1,1,-1
 910 1012 l 2,2,3
 910 1001 910 1001 904 993 c 128,-1,4
 898 985 898 985 883 977 c 2,5,-1
 330 697 l 2,6,7
 297 680 297 680 258 671 c 1,8,9
 300 662 300 662 330 646 c 2,10,-1
 883 365 l 2,11,12
 898 357 898 357 904 349 c 128,-1,13
 910 341 910 341 910 330 c 2,14,-1
 910 265 l 1,15,-1
 160 651 l 1,16,-1
 160 692 l 1,0,-1
EndSplineSet
EndChar

StartChar: equal
Encoding: 61 61 32
Width: 1160
Flags: W
LayerCount: 2
Fore
SplineSet
166 556 m 1,0,-1
 993 556 l 1,1,-1
 993 482 l 1,2,-1
 166 482 l 1,3,-1
 166 556 l 1,0,-1
166 869 m 1,4,-1
 993 869 l 1,5,-1
 993 795 l 1,6,-1
 166 795 l 1,7,-1
 166 869 l 1,4,-1
EndSplineSet
EndChar

StartChar: greater
Encoding: 62 62 33
Width: 1160
Flags: W
LayerCount: 2
Fore
SplineSet
251 265 m 1,0,-1
 251 330 l 2,1,2
 251 341 251 341 257 349.5 c 128,-1,3
 263 358 263 358 277 365 c 2,4,-1
 831 646 l 2,5,6
 862 662 862 662 902 671 c 1,7,8
 882 676 882 676 865 682.5 c 128,-1,9
 848 689 848 689 831 697 c 2,10,-1
 277 977 l 2,11,12
 251 991 251 991 251 1012 c 2,13,-1
 251 1077 l 1,14,-1
 1001 692 l 1,15,-1
 1001 651 l 1,16,-1
 251 265 l 1,0,-1
EndSplineSet
EndChar

StartChar: question
Encoding: 63 63 34
Width: 741
Flags: W
LayerCount: 2
Fore
SplineSet
33 1292 m 1,0,1
 60 1319 60 1319 94 1344 c 128,-1,2
 128 1369 128 1369 168.5 1388.5 c 128,-1,3
 209 1408 209 1408 257 1419.5 c 128,-1,4
 305 1431 305 1431 361 1431 c 0,5,6
 431 1431 431 1431 493 1410 c 128,-1,7
 555 1389 555 1389 601.5 1350 c 128,-1,8
 648 1311 648 1311 675.5 1254.5 c 128,-1,9
 703 1198 703 1198 703 1128 c 0,10,11
 703 1052 703 1052 679.5 997 c 128,-1,12
 656 942 656 942 620 900.5 c 128,-1,13
 584 859 584 859 542 827.5 c 128,-1,14
 500 796 500 796 463.5 768.5 c 128,-1,15
 427 741 427 741 401.5 713 c 128,-1,16
 376 685 376 685 374 651 c 2,17,-1
 362 487 l 1,18,-1
 297 487 l 1,19,-1
 292 658 l 1,20,-1
 292 663 l 2,21,22
 292 704 292 704 316 735 c 128,-1,23
 340 766 340 766 375.5 795 c 128,-1,24
 411 824 411 824 452.5 854 c 128,-1,25
 494 884 494 884 529.5 921.5 c 128,-1,26
 565 959 565 959 589 1008 c 128,-1,27
 613 1057 613 1057 613 1124 c 0,28,29
 613 1178 613 1178 592 1220.5 c 128,-1,30
 571 1263 571 1263 535 1292.5 c 128,-1,31
 499 1322 499 1322 452 1337.5 c 128,-1,32
 405 1353 405 1353 354 1353 c 0,33,34
 288 1353 288 1353 239.5 1335.5 c 128,-1,35
 191 1318 191 1318 158 1296.5 c 128,-1,36
 125 1275 125 1275 106 1257.5 c 128,-1,37
 87 1240 87 1240 80 1240 c 0,38,39
 65 1240 65 1240 58 1252 c 2,40,-1
 33 1292 l 1,0,1
235 77 m 0,41,42
 235 96 235 96 242 113 c 128,-1,43
 249 130 249 130 261.5 142.5 c 128,-1,44
 274 155 274 155 290.5 162.5 c 128,-1,45
 307 170 307 170 327 170 c 0,46,47
 346 170 346 170 363 162.5 c 128,-1,48
 380 155 380 155 392.5 142.5 c 128,-1,49
 405 130 405 130 412.5 113 c 128,-1,50
 420 96 420 96 420 77 c 0,51,52
 420 57 420 57 412.5 40.5 c 128,-1,53
 405 24 405 24 392.5 11.5 c 128,-1,54
 380 -1 380 -1 363 -8 c 128,-1,55
 346 -15 346 -15 327 -15 c 0,56,57
 288 -15 288 -15 261.5 11.5 c 128,-1,58
 235 38 235 38 235 77 c 0,41,42
EndSplineSet
EndChar

StartChar: at
Encoding: 64 64 35
Width: 1643
Flags: W
LayerCount: 2
Fore
SplineSet
1167 188 m 0,0,1
 1079 188 1079 188 1034.5 234.5 c 128,-1,2
 990 281 990 281 988 368 c 1,3,4
 932 275 932 275 861.5 233.5 c 128,-1,5
 791 192 791 192 709 192 c 0,6,7
 653 192 653 192 612 211.5 c 128,-1,8
 571 231 571 231 544 265 c 128,-1,9
 517 299 517 299 503.5 345 c 128,-1,10
 490 391 490 391 490 444 c 0,11,12
 490 529 490 529 522.5 614.5 c 128,-1,13
 555 700 555 700 617.5 768.5 c 128,-1,14
 680 837 680 837 771 880 c 128,-1,15
 862 923 862 923 978 923 c 0,16,17
 1031 923 1031 923 1077.5 914 c 128,-1,18
 1124 905 1124 905 1161 888 c 1,19,-1
 1070 541 l 2,20,21
 1058 495 1058 495 1052.5 458.5 c 128,-1,22
 1047 422 1047 422 1047 393 c 0,23,24
 1047 349 1047 349 1058 321.5 c 128,-1,25
 1069 294 1069 294 1087.5 278 c 128,-1,26
 1106 262 1106 262 1130 256.5 c 128,-1,27
 1154 251 1154 251 1180 251 c 0,28,29
 1237 251 1237 251 1289 281 c 128,-1,30
 1341 311 1341 311 1381 366.5 c 128,-1,31
 1421 422 1421 422 1444.5 501 c 128,-1,32
 1468 580 1468 580 1468 678 c 0,33,34
 1468 826 1468 826 1419.5 936.5 c 128,-1,35
 1371 1047 1371 1047 1287.5 1120 c 128,-1,36
 1204 1193 1204 1193 1093 1229 c 128,-1,37
 982 1265 982 1265 857 1265 c 0,38,39
 720 1265 720 1265 597.5 1212 c 128,-1,40
 475 1159 475 1159 382.5 1064 c 128,-1,41
 290 969 290 969 235.5 837.5 c 128,-1,42
 181 706 181 706 181 549 c 0,43,44
 181 372 181 372 237.5 237.5 c 128,-1,45
 294 103 294 103 391 12.5 c 128,-1,46
 488 -78 488 -78 617.5 -124.5 c 128,-1,47
 747 -171 747 -171 893 -171 c 0,48,49
 1041 -171 1041 -171 1163.5 -137 c 128,-1,50
 1286 -103 1286 -103 1386 -38 c 0,51,52
 1393 -33 1393 -33 1403 -33 c 0,53,54
 1417 -33 1417 -33 1423 -47 c 2,55,-1
 1438 -84 l 1,56,57
 1326 -158 1326 -158 1191.5 -198 c 128,-1,58
 1057 -238 1057 -238 893 -238 c 0,59,60
 728 -238 728 -238 585 -185.5 c 128,-1,61
 442 -133 442 -133 336 -32.5 c 128,-1,62
 230 68 230 68 169 214.5 c 128,-1,63
 108 361 108 361 108 549 c 0,64,65
 108 716 108 716 167 859 c 128,-1,66
 226 1002 226 1002 328 1107 c 128,-1,67
 430 1212 430 1212 566 1271.5 c 128,-1,68
 702 1331 702 1331 857 1331 c 0,69,70
 991 1331 991 1331 1114 1289.5 c 128,-1,71
 1237 1248 1237 1248 1331.5 1165.5 c 128,-1,72
 1426 1083 1426 1083 1482.5 961 c 128,-1,73
 1539 839 1539 839 1539 678 c 0,74,75
 1539 569 1539 569 1510 479 c 128,-1,76
 1481 389 1481 389 1430.5 324.5 c 128,-1,77
 1380 260 1380 260 1312 224 c 128,-1,78
 1244 188 1244 188 1167 188 c 0,0,1
727 258 m 0,79,80
 763 258 763 258 801.5 270 c 128,-1,81
 840 282 840 282 875.5 313.5 c 128,-1,82
 911 345 911 345 942 398.5 c 128,-1,83
 973 452 973 452 994 535 c 2,84,-1
 1074 845 l 1,85,86
 1050 852 1050 852 1024.5 855.5 c 128,-1,87
 999 859 999 859 965 859 c 0,88,89
 875 859 875 859 801.5 822.5 c 128,-1,90
 728 786 728 786 676.5 727 c 128,-1,91
 625 668 625 668 596.5 594.5 c 128,-1,92
 568 521 568 521 568 446 c 0,93,94
 568 406 568 406 578 371.5 c 128,-1,95
 588 337 588 337 608 312 c 128,-1,96
 628 287 628 287 657.5 272.5 c 128,-1,97
 687 258 687 258 727 258 c 0,79,80
EndSplineSet
EndChar

StartChar: A
Encoding: 65 65 36
Width: 1289
Flags: W
LayerCount: 2
Fore
SplineSet
1275 0 m 1,0,-1
 1196 0 l 2,1,2
 1182 0 1182 0 1173 7.5 c 128,-1,3
 1164 15 1164 15 1159 27 c 2,4,-1
 992 438 l 1,5,-1
 297 438 l 1,6,-1
 131 27 l 2,7,8
 127 16 127 16 117 8 c 128,-1,9
 107 0 107 0 93 0 c 2,10,-1
 15 0 l 1,11,-1
 594 1415 l 1,12,-1
 696 1415 l 1,13,-1
 1275 0 l 1,0,-1
328 514 m 1,14,-1
 962 514 l 1,15,-1
 673 1229 l 2,16,17
 666 1246 666 1246 659 1267.5 c 128,-1,18
 652 1289 652 1289 645 1313 c 1,19,20
 638 1289 638 1289 631 1267.5 c 128,-1,21
 624 1246 624 1246 617 1228 c 2,22,-1
 328 514 l 1,14,-1
EndSplineSet
EndChar

StartChar: B
Encoding: 66 66 37
Width: 1282
Flags: W
LayerCount: 2
Fore
SplineSet
210 0 m 1,0,-1
 210 1415 l 1,1,-1
 617 1415 l 2,2,3
 738 1415 738 1415 826.5 1391 c 128,-1,4
 915 1367 915 1367 973 1320.5 c 128,-1,5
 1031 1274 1031 1274 1059.5 1207 c 128,-1,6
 1088 1140 1088 1140 1088 1055 c 0,7,8
 1088 999 1088 999 1068.5 947 c 128,-1,9
 1049 895 1049 895 1012 851 c 128,-1,10
 975 807 975 807 921.5 774.5 c 128,-1,11
 868 742 868 742 799 725 c 1,12,13
 966 700 966 700 1056 614 c 128,-1,14
 1146 528 1146 528 1146 387 c 0,15,16
 1146 297 1146 297 1114 225 c 128,-1,17
 1082 153 1082 153 1021 103 c 128,-1,18
 960 53 960 53 871 26.5 c 128,-1,19
 782 0 782 0 669 0 c 2,20,-1
 210 0 l 1,0,-1
312 678 m 1,21,-1
 312 82 l 1,22,-1
 667 82 l 2,23,24
 854 82 854 82 949 162.5 c 128,-1,25
 1044 243 1044 243 1044 389 c 0,26,27
 1044 456 1044 456 1018.5 509.5 c 128,-1,28
 993 563 993 563 945 600.5 c 128,-1,29
 897 638 897 638 827 658 c 128,-1,30
 757 678 757 678 668 678 c 2,31,-1
 312 678 l 1,21,-1
312 753 m 1,32,-1
 619 753 l 2,33,34
 717 753 717 753 786.5 778 c 128,-1,35
 856 803 856 803 900.5 844 c 128,-1,36
 945 885 945 885 966 937 c 128,-1,37
 987 989 987 989 987 1044 c 0,38,39
 987 1187 987 1187 896.5 1260.5 c 128,-1,40
 806 1334 806 1334 617 1334 c 2,41,-1
 312 1334 l 1,42,-1
 312 753 l 1,32,-1
EndSplineSet
EndChar

StartChar: C
Encoding: 67 67 38
Width: 1407
Flags: W
LayerCount: 2
Fore
SplineSet
1238 238 m 0,0,1
 1248 238 1248 238 1255 231 c 2,2,-1
 1295 188 l 1,3,4
 1251 141 1251 141 1199 103.5 c 128,-1,5
 1147 66 1147 66 1085.5 39.5 c 128,-1,6
 1024 13 1024 13 950.5 -1.5 c 128,-1,7
 877 -16 877 -16 789 -16 c 0,8,9
 642 -16 642 -16 519.5 35.5 c 128,-1,10
 397 87 397 87 309.5 181.5 c 128,-1,11
 222 276 222 276 173 410 c 128,-1,12
 124 544 124 544 124 708 c 0,13,14
 124 869 124 869 174.5 1002 c 128,-1,15
 225 1135 225 1135 316.5 1230.5 c 128,-1,16
 408 1326 408 1326 535.5 1378.5 c 128,-1,17
 663 1431 663 1431 817 1431 c 0,18,19
 894 1431 894 1431 958 1419.5 c 128,-1,20
 1022 1408 1022 1408 1077.5 1386.5 c 128,-1,21
 1133 1365 1133 1365 1182 1333 c 128,-1,22
 1231 1301 1231 1301 1278 1259 c 1,23,-1
 1247 1214 l 2,24,25
 1239 1202 1239 1202 1222 1202 c 0,26,27
 1213 1202 1213 1202 1199 1212.5 c 128,-1,28
 1185 1223 1185 1223 1163.5 1238.5 c 128,-1,29
 1142 1254 1142 1254 1111.5 1272.5 c 128,-1,30
 1081 1291 1081 1291 1039 1306.5 c 128,-1,31
 997 1322 997 1322 942 1332.5 c 128,-1,32
 887 1343 887 1343 817 1343 c 0,33,34
 688 1343 688 1343 580 1298.5 c 128,-1,35
 472 1254 472 1254 394 1171.5 c 128,-1,36
 316 1089 316 1089 272.5 971.5 c 128,-1,37
 229 854 229 854 229 708 c 0,38,39
 229 558 229 558 272 440 c 128,-1,40
 315 322 315 322 391 240.5 c 128,-1,41
 467 159 467 159 570.5 115.5 c 128,-1,42
 674 72 674 72 795 72 c 0,43,44
 871 72 871 72 930.5 82 c 128,-1,45
 990 92 990 92 1040 112 c 128,-1,46
 1090 132 1090 132 1133 161 c 128,-1,47
 1176 190 1176 190 1218 229 c 0,48,49
 1223 233 1223 233 1227.5 235.5 c 128,-1,50
 1232 238 1232 238 1238 238 c 0,0,1
EndSplineSet
EndChar

StartChar: D
Encoding: 68 68 39
Width: 1520
Flags: W
LayerCount: 2
Fore
SplineSet
1401 708 m 0,0,1
 1401 544 1401 544 1352 413 c 128,-1,2
 1303 282 1303 282 1214 190 c 128,-1,3
 1125 98 1125 98 1001 49 c 128,-1,4
 877 0 877 0 726 0 c 2,5,-1
 210 0 l 1,6,-1
 210 1415 l 1,7,-1
 726 1415 l 2,8,9
 877 1415 877 1415 1001 1366 c 128,-1,10
 1125 1317 1125 1317 1214 1225 c 128,-1,11
 1303 1133 1303 1133 1352 1002 c 128,-1,12
 1401 871 1401 871 1401 708 c 0,0,1
1295 708 m 0,13,14
 1295 856 1295 856 1254 972 c 128,-1,15
 1213 1088 1213 1088 1138.5 1168 c 128,-1,16
 1064 1248 1064 1248 959 1290 c 128,-1,17
 854 1332 854 1332 726 1332 c 2,18,-1
 313 1332 l 1,19,-1
 313 83 l 1,20,-1
 726 83 l 2,21,22
 854 83 854 83 959 125 c 128,-1,23
 1064 167 1064 167 1138.5 247 c 128,-1,24
 1213 327 1213 327 1254 443 c 128,-1,25
 1295 559 1295 559 1295 708 c 0,13,14
EndSplineSet
EndChar

StartChar: E
Encoding: 69 69 40
Width: 1182
Flags: W
LayerCount: 2
Fore
SplineSet
1058 1415 m 1,0,-1
 1058 1330 l 1,1,-1
 313 1330 l 1,2,-1
 313 758 l 1,3,-1
 933 758 l 1,4,-1
 933 675 l 1,5,-1
 313 675 l 1,6,-1
 313 85 l 1,7,-1
 1058 85 l 1,8,-1
 1058 0 l 1,9,-1
 210 0 l 1,10,-1
 210 1415 l 1,11,-1
 1058 1415 l 1,0,-1
EndSplineSet
EndChar

StartChar: F
Encoding: 70 70 41
Width: 1144
Flags: W
LayerCount: 2
Fore
SplineSet
1058 1415 m 1,0,-1
 1058 1330 l 1,1,-1
 313 1330 l 1,2,-1
 313 735 l 1,3,-1
 958 735 l 1,4,-1
 958 650 l 1,5,-1
 313 650 l 1,6,-1
 313 0 l 1,7,-1
 210 0 l 1,8,-1
 210 1415 l 1,9,-1
 1058 1415 l 1,0,-1
EndSplineSet
EndChar

StartChar: G
Encoding: 71 71 42
Width: 1497
Flags: W
LayerCount: 2
Fore
SplineSet
818 67 m 0,0,1
 891 67 891 67 951 74.5 c 128,-1,2
 1011 82 1011 82 1062.5 97 c 128,-1,3
 1114 112 1114 112 1160.5 133.5 c 128,-1,4
 1207 155 1207 155 1254 182 c 1,5,-1
 1254 563 l 1,6,-1
 982 563 l 2,7,8
 971 563 971 563 963.5 570 c 128,-1,9
 956 577 956 577 956 586 c 2,10,-1
 956 642 l 1,11,-1
 1347 642 l 1,12,-1
 1347 139 l 1,13,14
 1294 102 1294 102 1237 73 c 128,-1,15
 1180 44 1180 44 1115 24.5 c 128,-1,16
 1050 5 1050 5 975 -5.5 c 128,-1,17
 900 -16 900 -16 811 -16 c 0,18,19
 658 -16 658 -16 531.5 35.5 c 128,-1,20
 405 87 405 87 314.5 181.5 c 128,-1,21
 224 276 224 276 174 410 c 128,-1,22
 124 544 124 544 124 708 c 256,23,24
 124 872 124 872 174 1005.5 c 128,-1,25
 224 1139 224 1139 316 1233.5 c 128,-1,26
 408 1328 408 1328 539.5 1379.5 c 128,-1,27
 671 1431 671 1431 834 1431 c 0,28,29
 915 1431 915 1431 983.5 1420 c 128,-1,30
 1052 1409 1052 1409 1111 1387.5 c 128,-1,31
 1170 1366 1170 1366 1221 1334.5 c 128,-1,32
 1272 1303 1272 1303 1319 1262 c 1,33,-1
 1292 1218 l 2,34,35
 1283 1203 1283 1203 1267 1203 c 0,36,37
 1258 1203 1258 1203 1250 1207 c 0,38,39
 1235 1213 1235 1213 1206.5 1235 c 128,-1,40
 1178 1257 1178 1257 1129.5 1281 c 128,-1,41
 1081 1305 1081 1305 1008 1324 c 128,-1,42
 935 1343 935 1343 831 1343 c 0,43,44
 693 1343 693 1343 582 1299 c 128,-1,45
 471 1255 471 1255 392.5 1173 c 128,-1,46
 314 1091 314 1091 271.5 973 c 128,-1,47
 229 855 229 855 229 708 c 0,48,49
 229 558 229 558 272 439 c 128,-1,50
 315 320 315 320 392.5 237.5 c 128,-1,51
 470 155 470 155 578.5 111 c 128,-1,52
 687 67 687 67 818 67 c 0,0,1
EndSplineSet
EndChar

StartChar: H
Encoding: 72 72 43
Width: 1512
Flags: W
LayerCount: 2
Fore
SplineSet
1302 0 m 1,0,-1
 1199 0 l 1,1,-1
 1199 678 l 1,2,-1
 313 678 l 1,3,-1
 313 0 l 1,4,-1
 210 0 l 1,5,-1
 210 1415 l 1,6,-1
 313 1415 l 1,7,-1
 313 755 l 1,8,-1
 1199 755 l 1,9,-1
 1199 1415 l 1,10,-1
 1302 1415 l 1,11,-1
 1302 0 l 1,0,-1
EndSplineSet
EndChar

StartChar: I
Encoding: 73 73 44
Width: 598
Flags: W
LayerCount: 2
Fore
SplineSet
350 0 m 1,0,-1
 247 0 l 1,1,-1
 247 1415 l 1,2,-1
 350 1415 l 1,3,-1
 350 0 l 1,0,-1
EndSplineSet
EndChar

StartChar: J
Encoding: 74 74 45
Width: 908
Flags: W
LayerCount: 2
Fore
SplineSet
698 472 m 2,0,1
 698 353 698 353 668.5 262 c 128,-1,2
 639 171 639 171 584.5 109 c 128,-1,3
 530 47 530 47 451.5 15.5 c 128,-1,4
 373 -16 373 -16 275 -16 c 0,5,6
 230 -16 230 -16 184 -9 c 128,-1,7
 138 -2 138 -2 89 13 c 1,8,9
 91 27 91 27 92.5 41 c 128,-1,10
 94 55 94 55 95 69 c 0,11,12
 97 78 97 78 102.5 85 c 128,-1,13
 108 92 108 92 122 92 c 0,14,15
 131 92 131 92 143.5 88.5 c 128,-1,16
 156 85 156 85 173.5 81 c 128,-1,17
 191 77 191 77 213.5 73.5 c 128,-1,18
 236 70 236 70 266 70 c 0,19,20
 342 70 342 70 403 94 c 128,-1,21
 464 118 464 118 507 167.5 c 128,-1,22
 550 217 550 217 572.5 292.5 c 128,-1,23
 595 368 595 368 595 470 c 2,24,-1
 595 1415 l 1,25,-1
 698 1415 l 1,26,-1
 698 472 l 2,0,1
EndSplineSet
EndChar

StartChar: K
Encoding: 75 75 46
Width: 1320
Flags: W
LayerCount: 2
Fore
SplineSet
342 762 m 1,0,-1
 426 762 l 2,1,2
 445 762 445 762 459 763.5 c 128,-1,3
 473 765 473 765 484.5 769.5 c 128,-1,4
 496 774 496 774 506 781 c 128,-1,5
 516 788 516 788 527 799 c 2,6,-1
 1098 1386 l 2,7,8
 1114 1402 1114 1402 1127.5 1408.5 c 128,-1,9
 1141 1415 1141 1415 1161 1415 c 2,10,-1
 1244 1415 l 1,11,-1
 626 780 l 2,12,13
 607 760 607 760 592.5 749 c 128,-1,14
 578 738 578 738 560 731 c 1,15,16
 581 725 581 725 597.5 712.5 c 128,-1,17
 614 700 614 700 631 680 c 2,18,-1
 1283 0 l 1,19,-1
 1200 0 l 2,20,21
 1174 0 1174 0 1163 7.5 c 128,-1,22
 1152 15 1152 15 1140 27 c 2,23,-1
 541 639 l 2,24,25
 530 650 530 650 521 658 c 128,-1,26
 512 666 512 666 500.5 671.5 c 128,-1,27
 489 677 489 677 473 679.5 c 128,-1,28
 457 682 457 682 433 682 c 2,29,-1
 342 682 l 1,30,-1
 342 0 l 1,31,-1
 240 0 l 1,32,-1
 240 1417 l 1,33,-1
 342 1417 l 1,34,-1
 342 762 l 1,0,-1
EndSplineSet
EndChar

StartChar: L
Encoding: 76 76 47
Width: 1023
Flags: W
LayerCount: 2
Fore
SplineSet
312 87 m 1,0,-1
 983 87 l 1,1,-1
 983 0 l 1,2,-1
 210 0 l 1,3,-1
 210 1415 l 1,4,-1
 312 1415 l 1,5,-1
 312 87 l 1,0,-1
EndSplineSet
EndChar

StartChar: M
Encoding: 77 77 48
Width: 1818
Flags: W
LayerCount: 2
Fore
SplineSet
890 412 m 1,0,1
 905 384 905 384 916 352 c 1,2,3
 922 368 922 368 928.5 383.5 c 128,-1,4
 935 399 935 399 943 413 c 2,5,-1
 1499 1396 l 2,6,7
 1507 1409 1507 1409 1515 1412 c 128,-1,8
 1523 1415 1523 1415 1537 1415 c 2,9,-1
 1608 1415 l 1,10,-1
 1608 0 l 1,11,-1
 1518 0 l 1,12,-1
 1518 1206 l 2,13,14
 1518 1232 1518 1232 1521 1261 c 1,15,-1
 964 272 l 2,16,17
 950 246 950 246 924 246 c 2,18,-1
 908 246 l 2,19,20
 883 246 883 246 868 272 c 2,21,-1
 296 1262 l 1,22,23
 299 1233 299 1233 299 1206 c 2,24,-1
 299 0 l 1,25,-1
 210 0 l 1,26,-1
 210 1415 l 1,27,-1
 280 1415 l 2,28,29
 294 1415 294 1415 302.5 1412 c 128,-1,30
 311 1409 311 1409 319 1396 c 2,31,-1
 890 412 l 1,32,-1
 890 412 l 1,0,1
EndSplineSet
EndChar

StartChar: N
Encoding: 78 78 49
Width: 1512
Flags: W
LayerCount: 2
Fore
SplineSet
260 1415 m 1,0,1
 274 1415 274 1415 282 1411.5 c 128,-1,2
 290 1408 290 1408 299 1396 c 2,3,-1
 1215 170 l 1,4,5
 1212 200 1212 200 1212 228 c 2,6,-1
 1212 1415 l 1,7,-1
 1302 1415 l 1,8,-1
 1302 0 l 1,9,-1
 1253 0 l 2,10,11
 1230 0 1230 0 1216 20 c 2,12,-1
 296 1248 l 1,13,14
 299 1218 299 1218 299 1191 c 2,15,-1
 299 0 l 1,16,-1
 210 0 l 1,17,-1
 210 1415 l 1,18,-1
 260 1415 l 1,19,-1
 260 1415 l 1,0,1
EndSplineSet
EndChar

StartChar: O
Encoding: 79 79 50
Width: 1595
Flags: W
LayerCount: 2
Fore
SplineSet
1472 708 m 0,0,1
 1472 544 1472 544 1423 410.5 c 128,-1,2
 1374 277 1374 277 1285 182.5 c 128,-1,3
 1196 88 1196 88 1072 36.5 c 128,-1,4
 948 -15 948 -15 797 -15 c 0,5,6
 648 -15 648 -15 524 36.5 c 128,-1,7
 400 88 400 88 311 182.5 c 128,-1,8
 222 277 222 277 172.5 410.5 c 128,-1,9
 123 544 123 544 123 708 c 0,10,11
 123 871 123 871 172.5 1004.5 c 128,-1,12
 222 1138 222 1138 311 1232.5 c 128,-1,13
 400 1327 400 1327 524 1379 c 128,-1,14
 648 1431 648 1431 797 1431 c 0,15,16
 948 1431 948 1431 1072 1379.5 c 128,-1,17
 1196 1328 1196 1328 1285 1233 c 128,-1,18
 1374 1138 1374 1138 1423 1004.5 c 128,-1,19
 1472 871 1472 871 1472 708 c 0,0,1
1366 708 m 0,20,21
 1366 856 1366 856 1325 974 c 128,-1,22
 1284 1092 1284 1092 1209.5 1174 c 128,-1,23
 1135 1256 1135 1256 1030 1299.5 c 128,-1,24
 925 1343 925 1343 797 1343 c 0,25,26
 671 1343 671 1343 566.5 1299.5 c 128,-1,27
 462 1256 462 1256 386.5 1174 c 128,-1,28
 311 1092 311 1092 269.5 974 c 128,-1,29
 228 856 228 856 228 708 c 0,30,31
 228 559 228 559 269.5 441.5 c 128,-1,32
 311 324 311 324 386.5 242 c 128,-1,33
 462 160 462 160 566.5 117 c 128,-1,34
 671 74 671 74 797 74 c 0,35,36
 925 74 925 74 1030 117 c 128,-1,37
 1135 160 1135 160 1209.5 242 c 128,-1,38
 1284 324 1284 324 1325 441.5 c 128,-1,39
 1366 559 1366 559 1366 708 c 0,20,21
EndSplineSet
EndChar

StartChar: P
Encoding: 80 80 51
Width: 1187
Flags: W
LayerCount: 2
Fore
SplineSet
342 570 m 1,0,-1
 342 0 l 1,1,-1
 240 0 l 1,2,-1
 240 1415 l 1,3,-1
 605 1415 l 2,4,5
 854 1415 854 1415 980.5 1306 c 128,-1,6
 1107 1197 1107 1197 1107 995 c 0,7,8
 1107 902 1107 902 1072.5 824 c 128,-1,9
 1038 746 1038 746 973 689.5 c 128,-1,10
 908 633 908 633 815 601.5 c 128,-1,11
 722 570 722 570 605 570 c 2,12,-1
 342 570 l 1,0,-1
342 652 m 1,13,-1
 605 652 l 2,14,15
 699 652 699 652 773 678 c 128,-1,16
 847 704 847 704 898.5 750 c 128,-1,17
 950 796 950 796 977.5 858.5 c 128,-1,18
 1005 921 1005 921 1005 995 c 0,19,20
 1005 1158 1005 1158 904.5 1246 c 128,-1,21
 804 1334 804 1334 605 1334 c 2,22,-1
 342 1334 l 1,23,-1
 342 652 l 1,13,-1
EndSplineSet
EndChar

StartChar: Q
Encoding: 81 81 52
Width: 1595
Flags: W
LayerCount: 2
Fore
SplineSet
1472 708 m 0,0,1
 1472 601 1472 601 1450.5 506.5 c 128,-1,2
 1429 412 1429 412 1389 332.5 c 128,-1,3
 1349 253 1349 253 1291.5 190 c 128,-1,4
 1234 127 1234 127 1162 82 c 1,5,-1
 1530 -312 l 1,6,-1
 1444 -312 l 2,7,8
 1424 -312 1424 -312 1408 -306.5 c 128,-1,9
 1392 -301 1392 -301 1380 -287 c 2,10,-1
 1078 39 l 1,11,12
 1015 13 1015 13 945 -1 c 128,-1,13
 875 -15 875 -15 797 -15 c 0,14,15
 648 -15 648 -15 524 36.5 c 128,-1,16
 400 88 400 88 311 182.5 c 128,-1,17
 222 277 222 277 172.5 410.5 c 128,-1,18
 123 544 123 544 123 708 c 0,19,20
 123 871 123 871 172.5 1004.5 c 128,-1,21
 222 1138 222 1138 311 1232.5 c 128,-1,22
 400 1327 400 1327 524 1379 c 128,-1,23
 648 1431 648 1431 797 1431 c 0,24,25
 948 1431 948 1431 1072 1379.5 c 128,-1,26
 1196 1328 1196 1328 1285 1233 c 128,-1,27
 1374 1138 1374 1138 1423 1004.5 c 128,-1,28
 1472 871 1472 871 1472 708 c 0,0,1
1366 708 m 0,29,30
 1366 856 1366 856 1325 974 c 128,-1,31
 1284 1092 1284 1092 1209.5 1174 c 128,-1,32
 1135 1256 1135 1256 1030 1299.5 c 128,-1,33
 925 1343 925 1343 797 1343 c 0,34,35
 671 1343 671 1343 566.5 1299.5 c 128,-1,36
 462 1256 462 1256 386.5 1174 c 128,-1,37
 311 1092 311 1092 269.5 974 c 128,-1,38
 228 856 228 856 228 708 c 0,39,40
 228 559 228 559 269.5 441.5 c 128,-1,41
 311 324 311 324 386.5 242 c 128,-1,42
 462 160 462 160 566.5 117 c 128,-1,43
 671 74 671 74 797 74 c 0,44,45
 925 74 925 74 1030 117 c 128,-1,46
 1135 160 1135 160 1209.5 242 c 128,-1,47
 1284 324 1284 324 1325 441.5 c 128,-1,48
 1366 559 1366 559 1366 708 c 0,29,30
EndSplineSet
EndChar

StartChar: R
Encoding: 82 82 53
Width: 1262
Flags: W
LayerCount: 2
Fore
SplineSet
342 640 m 1,0,-1
 342 0 l 1,1,-1
 240 0 l 1,2,-1
 240 1415 l 1,3,-1
 601 1415 l 2,4,5
 846 1415 846 1415 967 1320.5 c 128,-1,6
 1088 1226 1088 1226 1088 1043 c 0,7,8
 1088 962 1088 962 1060 895 c 128,-1,9
 1032 828 1032 828 979.5 777.5 c 128,-1,10
 927 727 927 727 853 694.5 c 128,-1,11
 779 662 779 662 686 652 c 1,12,13
 710 637 710 637 729 612 c 2,14,-1
 1216 0 l 1,15,-1
 1127 0 l 2,16,17
 1111 0 1111 0 1099.5 6 c 128,-1,18
 1088 12 1088 12 1077 26 c 2,19,-1
 624 600 l 2,20,21
 607 622 607 622 587.5 631 c 128,-1,22
 568 640 568 640 527 640 c 2,23,-1
 342 640 l 1,0,-1
342 716 m 1,24,-1
 588 716 l 2,25,26
 682 716 682 716 756.5 738.5 c 128,-1,27
 831 761 831 761 882.5 803 c 128,-1,28
 934 845 934 845 961 904 c 128,-1,29
 988 963 988 963 988 1037 c 0,30,31
 988 1188 988 1188 889 1261 c 128,-1,32
 790 1334 790 1334 601 1334 c 2,33,-1
 342 1334 l 1,34,-1
 342 716 l 1,24,-1
EndSplineSet
EndChar

StartChar: S
Encoding: 83 83 54
Width: 1045
Flags: W
LayerCount: 2
Fore
SplineSet
894 1243 m 2,0,1
 885 1226 885 1226 868 1226 c 0,2,3
 855 1226 855 1226 834.5 1244.5 c 128,-1,4
 814 1263 814 1263 779 1285.5 c 128,-1,5
 744 1308 744 1308 691.5 1327 c 128,-1,6
 639 1346 639 1346 562 1346 c 256,7,8
 485 1346 485 1346 426.5 1324 c 128,-1,9
 368 1302 368 1302 328.5 1264 c 128,-1,10
 289 1226 289 1226 268.5 1176 c 128,-1,11
 248 1126 248 1126 248 1071 c 0,12,13
 248 999 248 999 278.5 952 c 128,-1,14
 309 905 309 905 359 872 c 128,-1,15
 409 839 409 839 472.5 816.5 c 128,-1,16
 536 794 536 794 603 772 c 128,-1,17
 670 750 670 750 733.5 723.5 c 128,-1,18
 797 697 797 697 847 657 c 128,-1,19
 897 617 897 617 927.5 558.5 c 128,-1,20
 958 500 958 500 958 413 c 0,21,22
 958 324 958 324 927.5 245.5 c 128,-1,23
 897 167 897 167 839 109 c 128,-1,24
 781 51 781 51 697 17.5 c 128,-1,25
 613 -16 613 -16 505 -16 c 0,26,27
 365 -16 365 -16 264 33.5 c 128,-1,28
 163 83 163 83 87 169 c 1,29,-1
 115 213 l 2,30,31
 127 228 127 228 143 228 c 0,32,33
 152 228 152 228 166 216 c 128,-1,34
 180 204 180 204 200 186.5 c 128,-1,35
 220 169 220 169 248 148.5 c 128,-1,36
 276 128 276 128 313 110.5 c 128,-1,37
 350 93 350 93 398 81 c 128,-1,38
 446 69 446 69 507 69 c 0,39,40
 591 69 591 69 657 94.5 c 128,-1,41
 723 120 723 120 768.5 164 c 128,-1,42
 814 208 814 208 838 268.5 c 128,-1,43
 862 329 862 329 862 398 c 0,44,45
 862 473 862 473 831.5 521.5 c 128,-1,46
 801 570 801 570 751 602.5 c 128,-1,47
 701 635 701 635 637.5 657 c 128,-1,48
 574 679 574 679 507 700 c 128,-1,49
 440 721 440 721 376.5 747 c 128,-1,50
 313 773 313 773 263 813.5 c 128,-1,51
 213 854 213 854 182.5 914.5 c 128,-1,52
 152 975 152 975 152 1066 c 0,53,54
 152 1137 152 1137 179 1203 c 128,-1,55
 206 1269 206 1269 258 1319.5 c 128,-1,56
 310 1370 310 1370 386.5 1400.5 c 128,-1,57
 463 1431 463 1431 561 1431 c 0,58,59
 671 1431 671 1431 758.5 1396 c 128,-1,60
 846 1361 846 1361 918 1289 c 1,61,-1
 894 1243 l 2,0,1
EndSplineSet
EndChar

StartChar: T
Encoding: 84 84 55
Width: 1169
Flags: W
LayerCount: 2
Fore
SplineSet
1134 1415 m 1,0,-1
 1134 1328 l 1,1,-1
 637 1328 l 1,2,-1
 637 0 l 1,3,-1
 535 0 l 1,4,-1
 535 1328 l 1,5,-1
 35 1328 l 1,6,-1
 35 1415 l 1,7,-1
 1134 1415 l 1,0,-1
EndSplineSet
EndChar

StartChar: U
Encoding: 85 85 56
Width: 1467
Flags: W
LayerCount: 2
Fore
SplineSet
733 73 m 256,0,1
 835 73 835 73 915.5 108.5 c 128,-1,2
 996 144 996 144 1052 207 c 128,-1,3
 1108 270 1108 270 1137.5 355.5 c 128,-1,4
 1167 441 1167 441 1167 540 c 2,5,-1
 1167 1415 l 1,6,-1
 1269 1415 l 1,7,-1
 1269 540 l 2,8,9
 1269 423 1269 423 1232 321.5 c 128,-1,10
 1195 220 1195 220 1125.5 144.5 c 128,-1,11
 1056 69 1056 69 956.5 26 c 128,-1,12
 857 -17 857 -17 733 -17 c 256,13,14
 609 -17 609 -17 509.5 26 c 128,-1,15
 410 69 410 69 340.5 144.5 c 128,-1,16
 271 220 271 220 234 321.5 c 128,-1,17
 197 423 197 423 197 540 c 2,18,-1
 197 1415 l 1,19,-1
 300 1415 l 1,20,-1
 300 541 l 2,21,22
 300 442 300 442 329.5 356.5 c 128,-1,23
 359 271 359 271 414.5 208 c 128,-1,24
 470 145 470 145 550.5 109 c 128,-1,25
 631 73 631 73 733 73 c 256,0,1
EndSplineSet
EndChar

StartChar: V
Encoding: 86 86 57
Width: 1289
Flags: W
LayerCount: 2
Fore
SplineSet
15 1415 m 1,0,-1
 96 1415 l 2,1,2
 110 1415 110 1415 119 1407.5 c 128,-1,3
 128 1400 128 1400 133 1388 c 2,4,-1
 615 214 l 2,5,6
 634 168 634 168 646 116 c 1,7,8
 657 170 657 170 675 214 c 2,9,-1
 1156 1388 l 2,10,11
 1161 1399 1161 1399 1170.5 1407 c 128,-1,12
 1180 1415 1180 1415 1194 1415 c 2,13,-1
 1274 1415 l 1,14,-1
 690 0 l 1,15,-1
 599 0 l 1,16,-1
 15 1415 l 1,0,-1
EndSplineSet
EndChar

StartChar: W
Encoding: 87 87 58
Width: 1974
Flags: W
LayerCount: 2
Fore
SplineSet
17 1415 m 1,0,-1
 102 1415 l 2,1,2
 131 1415 131 1415 139 1388 c 2,3,-1
 496 225 l 2,4,5
 502 205 502 205 506.5 182 c 128,-1,6
 511 159 511 159 516 134 c 1,7,8
 521 159 521 159 526 182 c 128,-1,9
 531 205 531 205 538 225 c 2,10,-1
 938 1388 l 2,11,12
 942 1399 942 1399 952 1407 c 128,-1,13
 962 1415 962 1415 976 1415 c 2,14,-1
 1004 1415 l 2,15,16
 1018 1415 1018 1415 1027 1407.5 c 128,-1,17
 1036 1400 1036 1400 1041 1388 c 2,18,-1
 1441 225 l 2,19,20
 1448 205 1448 205 1453.5 183 c 128,-1,21
 1459 161 1459 161 1464 136 c 1,22,23
 1469 160 1469 160 1473 182.5 c 128,-1,24
 1477 205 1477 205 1483 225 c 2,25,-1
 1840 1388 l 2,26,27
 1843 1399 1843 1399 1853.5 1407 c 128,-1,28
 1864 1415 1864 1415 1878 1415 c 2,29,-1
 1956 1415 l 1,30,-1
 1511 0 l 1,31,-1
 1419 0 l 1,32,-1
 1001 1228 l 2,33,34
 993 1252 993 1252 987 1279 c 1,35,36
 981 1252 981 1252 973 1228 c 2,37,-1
 554 0 l 1,38,-1
 463 0 l 1,39,-1
 17 1415 l 1,0,-1
EndSplineSet
EndChar

StartChar: X
Encoding: 88 88 59
Width: 1199
Flags: W
LayerCount: 2
Fore
SplineSet
528 726 m 1,0,-1
 40 1415 l 1,1,-1
 141 1415 l 2,2,3
 155 1415 155 1415 161.5 1409 c 128,-1,4
 168 1403 168 1403 173 1395 c 2,5,-1
 603 775 l 1,6,7
 606 783 606 783 609.5 790.5 c 128,-1,8
 613 798 613 798 618 806 c 2,9,-1
 1033 1394 l 2,10,11
 1039 1402 1039 1402 1046 1408.5 c 128,-1,12
 1053 1415 1053 1415 1063 1415 c 2,13,-1
 1161 1415 l 1,14,-1
 672 731 l 1,15,-1
 1181 0 l 1,16,-1
 1080 0 l 2,17,18
 1066 0 1066 0 1058 8.5 c 128,-1,19
 1050 17 1050 17 1045 25 c 2,20,-1
 599 677 l 1,21,22
 595 662 595 662 585 648 c 2,23,-1
 147 25 l 2,24,25
 140 16 140 16 131 8 c 128,-1,26
 122 0 122 0 110 0 c 2,27,-1
 17 0 l 1,28,-1
 528 726 l 1,0,-1
EndSplineSet
EndChar

StartChar: Y
Encoding: 89 89 60
Width: 1199
Flags: W
LayerCount: 2
Fore
SplineSet
651 584 m 1,0,-1
 651 0 l 1,1,-1
 548 0 l 1,2,-1
 548 584 l 1,3,-1
 25 1415 l 1,4,-1
 114 1415 l 2,5,6
 128 1415 128 1415 136.5 1408.5 c 128,-1,7
 145 1402 145 1402 153 1390 c 2,8,-1
 558 740 l 2,9,10
 572 717 572 717 582 695.5 c 128,-1,11
 592 674 592 674 600 652 c 1,12,13
 608 674 608 674 618 695.5 c 128,-1,14
 628 717 628 717 642 740 c 2,15,-1
 1046 1390 l 2,16,17
 1052 1401 1052 1401 1061 1408 c 128,-1,18
 1070 1415 1070 1415 1084 1415 c 2,19,-1
 1174 1415 l 1,20,-1
 651 584 l 1,0,-1
EndSplineSet
EndChar

StartChar: Z
Encoding: 90 90 61
Width: 1266
Flags: W
LayerCount: 2
Fore
SplineSet
1163 1415 m 1,0,-1
 1163 1380 l 2,1,2
 1163 1359 1163 1359 1149 1339 c 2,3,-1
 251 85 l 1,4,-1
 1155 85 l 1,5,-1
 1155 0 l 1,6,-1
 115 0 l 1,7,-1
 115 37 l 2,8,9
 115 56 115 56 127 73 c 2,10,-1
 1027 1330 l 1,11,-1
 141 1330 l 1,12,-1
 141 1415 l 1,13,-1
 1163 1415 l 1,0,-1
EndSplineSet
EndChar

StartChar: bracketleft
Encoding: 91 91 62
Width: 600
Flags: W
LayerCount: 2
Fore
SplineSet
175 -264 m 1,0,-1
 175 1517 l 1,1,-1
 493 1517 l 1,2,-1
 493 1481 l 2,3,4
 493 1468 493 1468 484.5 1460 c 128,-1,5
 476 1452 476 1452 462 1452 c 2,6,-1
 256 1452 l 1,7,-1
 256 -199 l 1,8,-1
 462 -199 l 2,9,10
 476 -199 476 -199 484.5 -207 c 128,-1,11
 493 -215 493 -215 493 -228 c 2,12,-1
 493 -264 l 1,13,-1
 175 -264 l 1,0,-1
EndSplineSet
EndChar

StartChar: backslash
Encoding: 92 92 63
Width: 715
Flags: W
LayerCount: 2
Fore
SplineSet
-8 1455 m 1,0,-1
 33 1455 l 2,1,2
 72 1455 72 1455 87 1418 c 2,3,-1
 709 -84 l 1,4,-1
 670 -84 l 2,5,6
 653 -84 653 -84 637 -74.5 c 128,-1,7
 621 -65 621 -65 613 -45 c 2,8,-1
 -8 1455 l 1,0,-1
EndSplineSet
EndChar

StartChar: bracketright
Encoding: 93 93 64
Width: 600
Flags: W
LayerCount: 2
Fore
SplineSet
107 -228 m 2,0,1
 107 -215 107 -215 115 -207 c 128,-1,2
 123 -199 123 -199 137 -199 c 2,3,-1
 343 -199 l 1,4,-1
 343 1452 l 1,5,-1
 137 1452 l 2,6,7
 123 1452 123 1452 115 1460 c 128,-1,8
 107 1468 107 1468 107 1481 c 2,9,-1
 107 1517 l 1,10,-1
 424 1517 l 1,11,-1
 424 -264 l 1,12,-1
 107 -264 l 1,13,-1
 107 -228 l 2,0,1
EndSplineSet
EndChar

StartChar: asciicircum
Encoding: 94 94 65
Width: 1160
Flags: W
LayerCount: 2
Fore
SplineSet
544 1415 m 1,0,-1
 604 1415 l 1,1,-1
 945 800 l 1,2,-1
 877 800 l 2,3,4
 866 800 866 800 857.5 806.5 c 128,-1,5
 849 813 849 813 844 823 c 2,6,-1
 603 1259 l 2,7,8
 594 1276 594 1276 587 1291 c 128,-1,9
 580 1306 580 1306 575 1322 c 1,10,11
 570 1306 570 1306 563.5 1290.5 c 128,-1,12
 557 1275 557 1275 548 1259 c 2,13,-1
 308 823 l 2,14,15
 303 815 303 815 295 807.5 c 128,-1,16
 287 800 287 800 274 800 c 2,17,-1
 203 800 l 1,18,-1
 544 1415 l 1,0,-1
EndSplineSet
EndChar

StartChar: underscore
Encoding: 95 95 66
Width: 788
Flags: W
LayerCount: 2
Fore
SplineSet
788 -205 m 1,0,-1
 788 -273 l 1,1,-1
 0 -273 l 1,2,-1
 0 -205 l 1,3,-1
 788 -205 l 1,0,-1
EndSplineSet
EndChar

StartChar: grave
Encoding: 96 96 67
Width: 585
Flags: W
LayerCount: 2
Fore
SplineSet
178 1431 m 2,0,1
 202 1431 202 1431 214 1424 c 128,-1,2
 226 1417 226 1417 237 1399 c 2,3,-1
 394 1161 l 1,4,-1
 340 1161 l 2,5,6
 328 1161 328 1161 319.5 1164.5 c 128,-1,7
 311 1168 311 1168 303 1178 c 2,8,-1
 86 1431 l 1,9,-1
 178 1431 l 2,0,1
EndSplineSet
EndChar

StartChar: a
Encoding: 97 97 68
Width: 973
Flags: W
LayerCount: 2
Fore
SplineSet
797 0 m 2,0,1
 767 0 767 0 760 28 c 2,2,-1
 746 155 l 1,3,4
 705 115 705 115 664.5 83 c 128,-1,5
 624 51 624 51 580 29 c 128,-1,6
 536 7 536 7 485 -4.5 c 128,-1,7
 434 -16 434 -16 373 -16 c 0,8,9
 322 -16 322 -16 274 -1 c 128,-1,10
 226 14 226 14 189 45 c 128,-1,11
 152 76 152 76 129.5 124.5 c 128,-1,12
 107 173 107 173 107 241 c 0,13,14
 107 304 107 304 143 358 c 128,-1,15
 179 412 179 412 255.5 452 c 128,-1,16
 332 492 332 492 452.5 516 c 128,-1,17
 573 540 573 540 742 544 c 1,18,-1
 742 648 l 2,19,20
 742 786 742 786 682.5 860.5 c 128,-1,21
 623 935 623 935 506 935 c 0,22,23
 434 935 434 935 383.5 915 c 128,-1,24
 333 895 333 895 298 871 c 128,-1,25
 263 847 263 847 241 827 c 128,-1,26
 219 807 219 807 204 807 c 0,27,28
 184 807 184 807 174 825 c 2,29,-1
 157 854 l 1,30,31
 235 932 235 932 321 972 c 128,-1,32
 407 1012 407 1012 516 1012 c 0,33,34
 596 1012 596 1012 656 986.5 c 128,-1,35
 716 961 716 961 755.5 913.5 c 128,-1,36
 795 866 795 866 815 798.5 c 128,-1,37
 835 731 835 731 835 648 c 2,38,-1
 835 0 l 1,39,-1
 797 0 l 2,0,1
397 53 m 0,40,41
 455 53 455 53 503.5 65.5 c 128,-1,42
 552 78 552 78 593.5 100.5 c 128,-1,43
 635 123 635 123 671 154 c 128,-1,44
 707 185 707 185 742 221 c 1,45,-1
 742 480 l 1,46,47
 600 476 600 476 497.5 458.5 c 128,-1,48
 395 441 395 441 328.5 411 c 128,-1,49
 262 381 262 381 230.5 339.5 c 128,-1,50
 199 298 199 298 199 245 c 0,51,52
 199 195 199 195 215.5 158.5 c 128,-1,53
 232 122 232 122 259 98.5 c 128,-1,54
 286 75 286 75 322 64 c 128,-1,55
 358 53 358 53 397 53 c 0,40,41
EndSplineSet
EndChar

StartChar: b
Encoding: 98 98 69
Width: 1092
Flags: W
LayerCount: 2
Fore
SplineSet
172 0 m 1,0,-1
 172 1455 l 1,1,-1
 268 1455 l 1,2,-1
 268 821 l 1,3,4
 334 909 334 909 421 960 c 128,-1,5
 508 1011 508 1011 617 1011 c 0,6,7
 800 1011 800 1011 902.5 884.5 c 128,-1,8
 1005 758 1005 758 1005 504 c 0,9,10
 1005 395 1005 395 976.5 300.5 c 128,-1,11
 948 206 948 206 892.5 136.5 c 128,-1,12
 837 67 837 67 756.5 27 c 128,-1,13
 676 -13 676 -13 571 -13 c 0,14,15
 467 -13 467 -13 392 27.5 c 128,-1,16
 317 68 317 68 263 147 c 1,17,-1
 257 25 l 2,18,19
 254 0 254 0 230 0 c 2,20,-1
 172 0 l 1,0,-1
590 935 m 0,21,22
 491 935 491 935 411 884 c 128,-1,23
 331 833 331 833 268 742 c 1,24,-1
 268 217 l 1,25,26
 325 131 325 131 394 96.5 c 128,-1,27
 463 62 463 62 553 62 c 0,28,29
 641 62 641 62 707 94 c 128,-1,30
 773 126 773 126 817.5 184.5 c 128,-1,31
 862 243 862 243 884.5 324.5 c 128,-1,32
 907 406 907 406 907 504 c 0,33,34
 907 726 907 726 825 830.5 c 128,-1,35
 743 935 743 935 590 935 c 0,21,22
EndSplineSet
EndChar

StartChar: c
Encoding: 99 99 70
Width: 910
Flags: W
LayerCount: 2
Fore
SplineSet
817 862 m 2,0,1
 812 857 812 857 807.5 853.5 c 128,-1,2
 803 850 803 850 795 850 c 0,3,4
 785 850 785 850 767.5 863.5 c 128,-1,5
 750 877 750 877 721 893 c 128,-1,6
 692 909 692 909 648.5 922.5 c 128,-1,7
 605 936 605 936 543 936 c 0,8,9
 457 936 457 936 390.5 905.5 c 128,-1,10
 324 875 324 875 278.5 818 c 128,-1,11
 233 761 233 761 209 680 c 128,-1,12
 185 599 185 599 185 498 c 0,13,14
 185 393 185 393 209.5 312 c 128,-1,15
 234 231 234 231 279 175.5 c 128,-1,16
 324 120 324 120 388 91 c 128,-1,17
 452 62 452 62 530 62 c 0,18,19
 602 62 602 62 650.5 79 c 128,-1,20
 699 96 699 96 730.5 116 c 128,-1,21
 762 136 762 136 780.5 153 c 128,-1,22
 799 170 799 170 810 170 c 0,23,24
 823 170 823 170 830 160 c 2,25,-1
 856 128 l 1,26,27
 833 98 833 98 798 72 c 128,-1,28
 763 46 763 46 719 27 c 128,-1,29
 675 8 675 8 623.5 -2.5 c 128,-1,30
 572 -13 572 -13 516 -13 c 0,31,32
 421 -13 421 -13 342.5 21.5 c 128,-1,33
 264 56 264 56 207.5 121.5 c 128,-1,34
 151 187 151 187 119.5 282 c 128,-1,35
 88 377 88 377 88 498 c 0,36,37
 88 612 88 612 118 706 c 128,-1,38
 148 800 148 800 205.5 868 c 128,-1,39
 263 936 263 936 346.5 973.5 c 128,-1,40
 430 1011 430 1011 538 1011 c 0,41,42
 635 1011 635 1011 710.5 980 c 128,-1,43
 786 949 786 949 842 896 c 1,44,-1
 817 862 l 2,0,1
EndSplineSet
EndChar

StartChar: d
Encoding: 100 100 71
Width: 1092
Flags: W
LayerCount: 2
Fore
SplineSet
867 0 m 2,0,1
 842 0 842 0 838 26 c 2,2,-1
 828 183 l 1,3,4
 762 93 762 93 673.5 40 c 128,-1,5
 585 -13 585 -13 475 -13 c 0,6,7
 292 -13 292 -13 189.5 114 c 128,-1,8
 87 241 87 241 87 495 c 0,9,10
 87 604 87 604 115.5 698.5 c 128,-1,11
 144 793 144 793 199.5 862.5 c 128,-1,12
 255 932 255 932 335.5 972 c 128,-1,13
 416 1012 416 1012 521 1012 c 0,14,15
 622 1012 622 1012 696 974.5 c 128,-1,16
 770 937 770 937 824 865 c 1,17,-1
 824 1455 l 1,18,-1
 920 1455 l 1,19,-1
 920 0 l 1,20,-1
 867 0 l 2,0,1
502 64 m 0,21,22
 601 64 601 64 681 115 c 128,-1,23
 761 166 761 166 824 257 c 1,24,-1
 824 782 l 1,25,26
 766 867 766 867 696.5 902 c 128,-1,27
 627 937 627 937 539 937 c 256,28,29
 451 937 451 937 385 905 c 128,-1,30
 319 873 319 873 274.5 814.5 c 128,-1,31
 230 756 230 756 207.5 674.5 c 128,-1,32
 185 593 185 593 185 495 c 0,33,34
 185 273 185 273 267 168.5 c 128,-1,35
 349 64 349 64 502 64 c 0,21,22
EndSplineSet
EndChar

StartChar: e
Encoding: 101 101 72
Width: 1022
Flags: W
LayerCount: 2
Fore
SplineSet
537 1011 m 0,0,1
 621 1011 621 1011 692.5 982 c 128,-1,2
 764 953 764 953 816.5 897.5 c 128,-1,3
 869 842 869 842 898.5 761 c 128,-1,4
 928 680 928 680 928 575 c 0,5,6
 928 553 928 553 921.5 545 c 128,-1,7
 915 537 915 537 901 537 c 2,8,-1
 182 537 l 1,9,-1
 182 518 l 2,10,11
 182 406 182 406 208 321 c 128,-1,12
 234 236 234 236 282 178.5 c 128,-1,13
 330 121 330 121 398 92 c 128,-1,14
 466 63 466 63 550 63 c 0,15,16
 625 63 625 63 680 79.5 c 128,-1,17
 735 96 735 96 772.5 116.5 c 128,-1,18
 810 137 810 137 832 153.5 c 128,-1,19
 854 170 854 170 864 170 c 0,20,21
 877 170 877 170 884 160 c 2,22,-1
 910 128 l 1,23,24
 886 98 886 98 846.5 72 c 128,-1,25
 807 46 807 46 758.5 27.5 c 128,-1,26
 710 9 710 9 654.5 -2 c 128,-1,27
 599 -13 599 -13 543 -13 c 0,28,29
 441 -13 441 -13 357 22.5 c 128,-1,30
 273 58 273 58 213 126 c 128,-1,31
 153 194 153 194 120.5 292.5 c 128,-1,32
 88 391 88 391 88 518 c 0,33,34
 88 625 88 625 118.5 715.5 c 128,-1,35
 149 806 149 806 206.5 871.5 c 128,-1,36
 264 937 264 937 347.5 974 c 128,-1,37
 431 1011 431 1011 537 1011 c 0,0,1
538 940 m 0,38,39
 461 940 461 940 400 916 c 128,-1,40
 339 892 339 892 294.5 847 c 128,-1,41
 250 802 250 802 222.5 739 c 128,-1,42
 195 676 195 676 186 598 c 1,43,-1
 842 598 l 1,44,45
 842 678 842 678 820 741.5 c 128,-1,46
 798 805 798 805 758 849 c 128,-1,47
 718 893 718 893 662 916.5 c 128,-1,48
 606 940 606 940 538 940 c 0,38,39
EndSplineSet
EndChar

StartChar: f
Encoding: 102 102 73
Width: 644
Flags: W
LayerCount: 2
Fore
SplineSet
199 0 m 1,0,-1
 199 891 l 1,1,-1
 59 900 l 2,2,3
 30 902 30 902 30 925 c 2,4,-1
 30 964 l 1,5,-1
 199 964 l 1,6,-1
 199 1090 l 2,7,8
 199 1175 199 1175 221 1239.5 c 128,-1,9
 243 1304 243 1304 283 1347 c 128,-1,10
 323 1390 323 1390 379.5 1411.5 c 128,-1,11
 436 1433 436 1433 504 1433 c 0,12,13
 535 1433 535 1433 566.5 1427.5 c 128,-1,14
 598 1422 598 1422 622 1412 c 1,15,-1
 619 1366 l 2,16,17
 618 1352 618 1352 600 1352 c 0,18,19
 588 1352 588 1352 567.5 1355 c 128,-1,20
 547 1358 547 1358 517 1358 c 0,21,22
 468 1358 468 1358 426.5 1343.5 c 128,-1,23
 385 1329 385 1329 355 1297 c 128,-1,24
 325 1265 325 1265 308.5 1213.5 c 128,-1,25
 292 1162 292 1162 292 1087 c 2,26,-1
 292 964 l 1,27,-1
 615 964 l 1,28,-1
 615 893 l 1,29,-1
 294 893 l 1,30,-1
 294 0 l 1,31,-1
 199 0 l 1,0,-1
EndSplineSet
EndChar

StartChar: g
Encoding: 103 103 74
Width: 1009
Flags: W
LayerCount: 2
Fore
SplineSet
490 1012 m 0,0,1
 555 1012 555 1012 610.5 996 c 128,-1,2
 666 980 666 980 710 951 c 1,3,-1
 965 951 l 1,4,-1
 965 918 l 2,5,6
 965 893 965 893 937 891 c 2,7,-1
 786 880 l 1,8,9
 814 842 814 842 829 794.5 c 128,-1,10
 844 747 844 747 844 693 c 0,11,12
 844 621 844 621 818 562.5 c 128,-1,13
 792 504 792 504 745.5 462.5 c 128,-1,14
 699 421 699 421 634 398 c 128,-1,15
 569 375 569 375 490 375 c 0,16,17
 404 375 404 375 334 401 c 1,18,19
 292 377 292 377 268 344 c 128,-1,20
 244 311 244 311 244 280 c 0,21,22
 244 237 244 237 274 214 c 128,-1,23
 304 191 304 191 353.5 180.5 c 128,-1,24
 403 170 403 170 466.5 167 c 128,-1,25
 530 164 530 164 595.5 160.5 c 128,-1,26
 661 157 661 157 724.5 148 c 128,-1,27
 788 139 788 139 837.5 116.5 c 128,-1,28
 887 94 887 94 917 53.5 c 128,-1,29
 947 13 947 13 947 -54 c 0,30,31
 947 -116 947 -116 916 -173 c 128,-1,32
 885 -230 885 -230 826.5 -274 c 128,-1,33
 768 -318 768 -318 685 -344.5 c 128,-1,34
 602 -371 602 -371 499 -371 c 0,35,36
 394 -371 394 -371 315 -349.5 c 128,-1,37
 236 -328 236 -328 182.5 -291.5 c 128,-1,38
 129 -255 129 -255 102 -207 c 128,-1,39
 75 -159 75 -159 75 -105 c 0,40,41
 75 -26 75 -26 127 31 c 128,-1,42
 179 88 179 88 270 119 c 1,43,44
 220 136 220 136 190.5 168 c 128,-1,45
 161 200 161 200 161 257 c 0,46,47
 161 278 161 278 169 301 c 128,-1,48
 177 324 177 324 193 346.5 c 128,-1,49
 209 369 209 369 231.5 389 c 128,-1,50
 254 409 254 409 284 425 c 1,51,52
 213 466 213 466 173.5 534 c 128,-1,53
 134 602 134 602 134 693 c 0,54,55
 134 765 134 765 159.5 823.5 c 128,-1,56
 185 882 185 882 231.5 924 c 128,-1,57
 278 966 278 966 344 989 c 128,-1,58
 410 1012 410 1012 490 1012 c 0,0,1
859 -67 m 0,59,60
 859 -20 859 -20 834.5 8.5 c 128,-1,61
 810 37 810 37 769 53 c 128,-1,62
 728 69 728 69 674.5 75.5 c 128,-1,63
 621 82 621 82 562.5 85 c 128,-1,64
 504 88 504 88 445 91 c 128,-1,65
 386 94 386 94 335 103 c 1,66,67
 297 88 297 88 264.5 68.5 c 128,-1,68
 232 49 232 49 209 24.5 c 128,-1,69
 186 0 186 0 173 -29.5 c 128,-1,70
 160 -59 160 -59 160 -94 c 0,71,72
 160 -138 160 -138 182.5 -175.5 c 128,-1,73
 205 -213 205 -213 248.5 -240.5 c 128,-1,74
 292 -268 292 -268 355 -284 c 128,-1,75
 418 -300 418 -300 500 -300 c 0,76,77
 576 -300 576 -300 641.5 -283 c 128,-1,78
 707 -266 707 -266 755.5 -235 c 128,-1,79
 804 -204 804 -204 831.5 -161 c 128,-1,80
 859 -118 859 -118 859 -67 c 0,59,60
490 440 m 0,81,82
 554 440 554 440 604 458.5 c 128,-1,83
 654 477 654 477 688 510 c 128,-1,84
 722 543 722 543 739.5 589 c 128,-1,85
 757 635 757 635 757 691 c 256,86,87
 757 747 757 747 739 793.5 c 128,-1,88
 721 840 721 840 686.5 873 c 128,-1,89
 652 906 652 906 602.5 924 c 128,-1,90
 553 942 553 942 490 942 c 256,91,92
 427 942 427 942 377 924 c 128,-1,93
 327 906 327 906 292.5 873 c 128,-1,94
 258 840 258 840 240 793.5 c 128,-1,95
 222 747 222 747 222 691 c 256,96,97
 222 635 222 635 240 589 c 128,-1,98
 258 543 258 543 292.5 510 c 128,-1,99
 327 477 327 477 377 458.5 c 128,-1,100
 427 440 427 440 490 440 c 0,81,82
EndSplineSet
EndChar

StartChar: h
Encoding: 104 104 75
Width: 1082
Flags: W
LayerCount: 2
Fore
SplineSet
162 0 m 1,0,-1
 162 1455 l 1,1,-1
 257 1455 l 1,2,-1
 257 825 l 1,3,4
 326 910 326 910 414.5 960.5 c 128,-1,5
 503 1011 503 1011 613 1011 c 0,6,7
 695 1011 695 1011 757.5 985 c 128,-1,8
 820 959 820 959 861 910 c 128,-1,9
 902 861 902 861 923 792 c 128,-1,10
 944 723 944 723 944 636 c 2,11,-1
 944 0 l 1,12,-1
 849 0 l 1,13,-1
 849 636 l 2,14,15
 849 776 849 776 785 855.5 c 128,-1,16
 721 935 721 935 589 935 c 0,17,18
 491 935 491 935 407 884.5 c 128,-1,19
 323 834 323 834 257 746 c 1,20,-1
 257 0 l 1,21,-1
 162 0 l 1,0,-1
EndSplineSet
EndChar

StartChar: i
Encoding: 105 105 76
Width: 475
Flags: W
LayerCount: 2
Fore
SplineSet
285 995 m 1,0,-1
 285 0 l 1,1,-1
 190 0 l 1,2,-1
 190 995 l 1,3,-1
 285 995 l 1,0,-1
327 1338 m 256,4,5
 327 1320 327 1320 319.5 1304.5 c 128,-1,6
 312 1289 312 1289 300 1277 c 128,-1,7
 288 1265 288 1265 272 1258 c 128,-1,8
 256 1251 256 1251 238 1251 c 256,9,10
 220 1251 220 1251 204 1258 c 128,-1,11
 188 1265 188 1265 176 1277 c 128,-1,12
 164 1289 164 1289 157 1304.5 c 128,-1,13
 150 1320 150 1320 150 1338 c 256,14,15
 150 1356 150 1356 157 1372.5 c 128,-1,16
 164 1389 164 1389 176 1401 c 128,-1,17
 188 1413 188 1413 204 1420 c 128,-1,18
 220 1427 220 1427 238 1427 c 256,19,20
 256 1427 256 1427 272 1420 c 128,-1,21
 288 1413 288 1413 300 1401 c 128,-1,22
 312 1389 312 1389 319.5 1372.5 c 128,-1,23
 327 1356 327 1356 327 1338 c 256,4,5
EndSplineSet
EndChar

StartChar: j
Encoding: 106 106 77
Width: 471
Flags: W
LayerCount: 2
Fore
SplineSet
285 995 m 1,0,-1
 285 -127 l 2,1,2
 285 -179 285 -179 270 -223 c 128,-1,3
 255 -267 255 -267 225.5 -299.5 c 128,-1,4
 196 -332 196 -332 151.5 -350.5 c 128,-1,5
 107 -369 107 -369 47 -369 c 0,6,7
 18 -369 18 -369 -5 -364 c 128,-1,8
 -28 -359 -28 -359 -50 -348 c 1,9,-1
 -45 -300 l 2,10,11
 -44 -288 -44 -288 -31 -288 c 0,12,13
 -23 -288 -23 -288 -8.5 -292 c 128,-1,14
 6 -296 6 -296 31 -296 c 0,15,16
 112 -296 112 -296 151 -252 c 128,-1,17
 190 -208 190 -208 190 -127 c 2,18,-1
 190 995 l 1,19,-1
 285 995 l 1,0,-1
327 1338 m 256,20,21
 327 1320 327 1320 319.5 1304.5 c 128,-1,22
 312 1289 312 1289 300 1277 c 128,-1,23
 288 1265 288 1265 272 1258 c 128,-1,24
 256 1251 256 1251 238 1251 c 256,25,26
 220 1251 220 1251 204 1258 c 128,-1,27
 188 1265 188 1265 176 1277 c 128,-1,28
 164 1289 164 1289 157 1304.5 c 128,-1,29
 150 1320 150 1320 150 1338 c 256,30,31
 150 1356 150 1356 157 1372.5 c 128,-1,32
 164 1389 164 1389 176 1401 c 128,-1,33
 188 1413 188 1413 204 1420 c 128,-1,34
 220 1427 220 1427 238 1427 c 256,35,36
 256 1427 256 1427 272 1420 c 128,-1,37
 288 1413 288 1413 300 1401 c 128,-1,38
 312 1389 312 1389 319.5 1372.5 c 128,-1,39
 327 1356 327 1356 327 1338 c 256,20,21
EndSplineSet
EndChar

StartChar: k
Encoding: 107 107 78
Width: 984
Flags: W
LayerCount: 2
Fore
SplineSet
268 1455 m 1,0,-1
 268 568 l 1,1,-1
 314 568 l 2,2,3
 328 568 328 568 340.5 572 c 128,-1,4
 353 576 353 576 368 591 c 2,5,-1
 767 970 l 2,6,7
 778 981 778 981 789.5 988 c 128,-1,8
 801 995 801 995 819 995 c 2,9,-1
 903 995 l 1,10,-1
 464 578 l 2,11,12
 454 568 454 568 445 559.5 c 128,-1,13
 436 551 436 551 425 545 c 1,14,15
 441 537 441 537 452 526 c 128,-1,16
 463 515 463 515 475 502 c 2,17,-1
 936 0 l 1,18,-1
 853 0 l 2,19,20
 839 0 839 0 828 5.5 c 128,-1,21
 817 11 817 11 806 23 c 2,22,-1
 388 471 l 2,23,24
 371 489 371 489 357 495.5 c 128,-1,25
 343 502 343 502 313 502 c 2,26,-1
 268 502 l 1,27,-1
 268 0 l 1,28,-1
 172 0 l 1,29,-1
 172 1455 l 1,30,-1
 268 1455 l 1,0,-1
EndSplineSet
EndChar

StartChar: l
Encoding: 108 108 79
Width: 475
Flags: W
LayerCount: 2
Fore
SplineSet
285 1455 m 1,0,-1
 285 0 l 1,1,-1
 190 0 l 1,2,-1
 190 1455 l 1,3,-1
 285 1455 l 1,0,-1
EndSplineSet
EndChar

StartChar: m
Encoding: 109 109 80
Width: 1591
Flags: W
LayerCount: 2
Fore
SplineSet
162 0 m 1,0,-1
 162 995 l 1,1,-1
 214 995 l 2,2,3
 240 995 240 995 244 970 c 2,4,-1
 253 826 l 1,5,6
 282 867 282 867 315 901 c 128,-1,7
 348 935 348 935 385.5 959.5 c 128,-1,8
 423 984 423 984 465.5 997.5 c 128,-1,9
 508 1011 508 1011 555 1011 c 0,10,11
 664 1011 664 1011 729 947.5 c 128,-1,12
 794 884 794 884 817 771 c 1,13,14
 835 833 835 833 867.5 878 c 128,-1,15
 900 923 900 923 942 952.5 c 128,-1,16
 984 982 984 982 1033.5 996.5 c 128,-1,17
 1083 1011 1083 1011 1135 1011 c 0,18,19
 1209 1011 1209 1011 1268 986.5 c 128,-1,20
 1327 962 1327 962 1368.5 914 c 128,-1,21
 1410 866 1410 866 1432 796 c 128,-1,22
 1454 726 1454 726 1454 636 c 2,23,-1
 1454 0 l 1,24,-1
 1358 0 l 1,25,-1
 1358 636 l 2,26,27
 1358 782 1358 782 1295 858.5 c 128,-1,28
 1232 935 1232 935 1115 935 c 0,29,30
 1063 935 1063 935 1015.5 916 c 128,-1,31
 968 897 968 897 931.5 859.5 c 128,-1,32
 895 822 895 822 873.5 766 c 128,-1,33
 852 710 852 710 852 636 c 2,34,-1
 852 0 l 1,35,-1
 757 0 l 1,36,-1
 757 636 l 2,37,38
 757 781 757 781 699 858 c 128,-1,39
 641 935 641 935 530 935 c 0,40,41
 449 935 449 935 380 886.5 c 128,-1,42
 311 838 311 838 257 752 c 1,43,-1
 257 0 l 1,44,-1
 162 0 l 1,0,-1
EndSplineSet
EndChar

StartChar: n
Encoding: 110 110 81
Width: 1082
Flags: W
LayerCount: 2
Fore
SplineSet
162 0 m 1,0,-1
 162 995 l 1,1,-1
 214 995 l 2,2,3
 240 995 240 995 244 970 c 2,4,-1
 253 820 l 1,5,6
 321 906 321 906 411.5 958.5 c 128,-1,7
 502 1011 502 1011 613 1011 c 0,8,9
 695 1011 695 1011 757.5 985 c 128,-1,10
 820 959 820 959 861 910 c 128,-1,11
 902 861 902 861 923 792 c 128,-1,12
 944 723 944 723 944 636 c 2,13,-1
 944 0 l 1,14,-1
 849 0 l 1,15,-1
 849 636 l 2,16,17
 849 776 849 776 785 855.5 c 128,-1,18
 721 935 721 935 589 935 c 0,19,20
 491 935 491 935 407 884.5 c 128,-1,21
 323 834 323 834 257 746 c 1,22,-1
 257 0 l 1,23,-1
 162 0 l 1,0,-1
EndSplineSet
EndChar

StartChar: o
Encoding: 111 111 82
Width: 1082
Flags: W
LayerCount: 2
Fore
SplineSet
541 1011 m 256,0,1
 648 1011 648 1011 732.5 974.5 c 128,-1,2
 817 938 817 938 875 871 c 128,-1,3
 933 804 933 804 963.5 709.5 c 128,-1,4
 994 615 994 615 994 498 c 256,5,6
 994 381 994 381 963.5 287 c 128,-1,7
 933 193 933 193 875 126 c 128,-1,8
 817 59 817 59 732.5 23 c 128,-1,9
 648 -13 648 -13 541 -13 c 256,10,11
 434 -13 434 -13 349.5 23 c 128,-1,12
 265 59 265 59 206.5 126 c 128,-1,13
 148 193 148 193 117.5 287 c 128,-1,14
 87 381 87 381 87 498 c 256,15,16
 87 615 87 615 117.5 709.5 c 128,-1,17
 148 804 148 804 206.5 871 c 128,-1,18
 265 938 265 938 349.5 974.5 c 128,-1,19
 434 1011 434 1011 541 1011 c 256,0,1
541 62 m 256,20,21
 630 62 630 62 696.5 92.5 c 128,-1,22
 763 123 763 123 807.5 180 c 128,-1,23
 852 237 852 237 874 317.5 c 128,-1,24
 896 398 896 398 896 498 c 0,25,26
 896 597 896 597 874 678 c 128,-1,27
 852 759 852 759 807.5 816.5 c 128,-1,28
 763 874 763 874 696.5 905 c 128,-1,29
 630 936 630 936 541 936 c 256,30,31
 452 936 452 936 385.5 905 c 128,-1,32
 319 874 319 874 274.5 816.5 c 128,-1,33
 230 759 230 759 207.5 678 c 128,-1,34
 185 597 185 597 185 498 c 0,35,36
 185 398 185 398 207.5 317.5 c 128,-1,37
 230 237 230 237 274.5 180 c 128,-1,38
 319 123 319 123 385.5 92.5 c 128,-1,39
 452 62 452 62 541 62 c 256,20,21
EndSplineSet
EndChar

StartChar: p
Encoding: 112 112 83
Width: 1070
Flags: W
LayerCount: 2
Fore
SplineSet
162 -352 m 1,0,-1
 162 995 l 1,1,-1
 214 995 l 2,2,3
 227 995 227 995 235 989.5 c 128,-1,4
 243 984 243 984 244 970 c 2,5,-1
 253 816 l 1,6,7
 319 906 319 906 407.5 959 c 128,-1,8
 496 1012 496 1012 606 1012 c 0,9,10
 790 1012 790 1012 892 885 c 128,-1,11
 994 758 994 758 994 504 c 0,12,13
 994 395 994 395 965.5 300.5 c 128,-1,14
 937 206 937 206 882 136.5 c 128,-1,15
 827 67 827 67 746.5 27 c 128,-1,16
 666 -13 666 -13 561 -13 c 0,17,18
 459 -13 459 -13 385 24 c 128,-1,19
 311 61 311 61 257 134 c 1,20,-1
 257 -352 l 1,21,-1
 162 -352 l 1,0,-1
579 935 m 0,22,23
 480 935 480 935 399.5 883.5 c 128,-1,24
 319 832 319 832 257 740 c 1,25,-1
 257 218 l 1,26,27
 314 132 314 132 383.5 97 c 128,-1,28
 453 62 453 62 542 62 c 0,29,30
 630 62 630 62 696 94 c 128,-1,31
 762 126 762 126 806.5 184.5 c 128,-1,32
 851 243 851 243 873.5 324.5 c 128,-1,33
 896 406 896 406 896 504 c 0,34,35
 896 726 896 726 814.5 830.5 c 128,-1,36
 733 935 733 935 579 935 c 0,22,23
EndSplineSet
EndChar

StartChar: q
Encoding: 113 113 84
Width: 1092
Flags: W
LayerCount: 2
Fore
SplineSet
920 995 m 1,0,-1
 920 -352 l 1,1,-1
 824 -352 l 1,2,-1
 824 177 l 1,3,4
 758 89 758 89 670.5 38 c 128,-1,5
 583 -13 583 -13 475 -13 c 0,6,7
 292 -13 292 -13 189.5 114 c 128,-1,8
 87 241 87 241 87 495 c 0,9,10
 87 604 87 604 115.5 698.5 c 128,-1,11
 144 793 144 793 199.5 862.5 c 128,-1,12
 255 932 255 932 335.5 972 c 128,-1,13
 416 1012 416 1012 521 1012 c 0,14,15
 624 1012 624 1012 699.5 973 c 128,-1,16
 775 934 775 934 829 858 c 1,17,-1
 838 970 l 2,18,19
 839 995 839 995 867 995 c 2,20,-1
 920 995 l 1,0,-1
502 64 m 0,21,22
 601 64 601 64 681 115 c 128,-1,23
 761 166 761 166 824 257 c 1,24,-1
 824 783 l 1,25,26
 770 865 770 865 699 901 c 128,-1,27
 628 937 628 937 539 937 c 0,28,29
 451 937 451 937 385 905 c 128,-1,30
 319 873 319 873 274.5 814.5 c 128,-1,31
 230 756 230 756 207.5 674.5 c 128,-1,32
 185 593 185 593 185 495 c 0,33,34
 185 273 185 273 267 168.5 c 128,-1,35
 349 64 349 64 502 64 c 0,21,22
EndSplineSet
EndChar

StartChar: r
Encoding: 114 114 85
Width: 794
Flags: W
LayerCount: 2
Fore
SplineSet
162 0 m 1,0,-1
 162 995 l 1,1,-1
 212 995 l 2,2,3
 229 995 229 995 236.5 988 c 128,-1,4
 244 981 244 981 245 964 c 2,5,-1
 253 754 l 1,6,7
 301 875 301 875 381 943.5 c 128,-1,8
 461 1012 461 1012 578 1012 c 0,9,10
 623 1012 623 1012 661 1002.5 c 128,-1,11
 699 993 699 993 733 975 c 1,12,-1
 720 909 l 2,13,14
 717 893 717 893 700 893 c 0,15,16
 694 893 694 893 683 897 c 128,-1,17
 672 901 672 901 655.5 906 c 128,-1,18
 639 911 639 911 615 915 c 128,-1,19
 591 919 591 919 560 919 c 0,20,21
 447 919 447 919 374.5 849 c 128,-1,22
 302 779 302 779 257 647 c 1,23,-1
 257 0 l 1,24,-1
 162 0 l 1,0,-1
EndSplineSet
EndChar

StartChar: s
Encoding: 115 115 86
Width: 860
Flags: W
LayerCount: 2
Fore
SplineSet
710 872 m 2,0,1
 703 858 703 858 688 858 c 0,2,3
 677 858 677 858 659.5 870.5 c 128,-1,4
 642 883 642 883 613.5 898.5 c 128,-1,5
 585 914 585 914 543.5 926.5 c 128,-1,6
 502 939 502 939 442 939 c 0,7,8
 388 939 388 939 343.5 923.5 c 128,-1,9
 299 908 299 908 267.5 882 c 128,-1,10
 236 856 236 856 218.5 821.5 c 128,-1,11
 201 787 201 787 201 749 c 0,12,13
 201 702 201 702 225 671 c 128,-1,14
 249 640 249 640 288 618 c 128,-1,15
 327 596 327 596 376.5 580 c 128,-1,16
 426 564 426 564 478 548 c 128,-1,17
 530 532 530 532 579.5 512.5 c 128,-1,18
 629 493 629 493 668 464 c 128,-1,19
 707 435 707 435 731 393 c 128,-1,20
 755 351 755 351 755 291 c 0,21,22
 755 226 755 226 731.5 170 c 128,-1,23
 708 114 708 114 663.5 73 c 128,-1,24
 619 32 619 32 554 8 c 128,-1,25
 489 -16 489 -16 406 -16 c 0,26,27
 301 -16 301 -16 225 17.5 c 128,-1,28
 149 51 149 51 89 105 c 1,29,-1
 112 139 l 2,30,31
 117 147 117 147 123 151 c 128,-1,32
 129 155 129 155 140 155 c 0,33,34
 153 155 153 155 172 139 c 128,-1,35
 191 123 191 123 221.5 104.5 c 128,-1,36
 252 86 252 86 297.5 70 c 128,-1,37
 343 54 343 54 410 54 c 0,38,39
 473 54 473 54 521 71.5 c 128,-1,40
 569 89 569 89 601 119 c 128,-1,41
 633 149 633 149 649.5 189.5 c 128,-1,42
 666 230 666 230 666 275 c 0,43,44
 666 325 666 325 642 358 c 128,-1,45
 618 391 618 391 579 414 c 128,-1,46
 540 437 540 437 490.5 453 c 128,-1,47
 441 469 441 469 388.5 485 c 128,-1,48
 336 501 336 501 286.5 520 c 128,-1,49
 237 539 237 539 198 568 c 128,-1,50
 159 597 159 597 135 638.5 c 128,-1,51
 111 680 111 680 111 742 c 0,52,53
 111 795 111 795 134 844 c 128,-1,54
 157 893 157 893 199.5 930 c 128,-1,55
 242 967 242 967 303 989 c 128,-1,56
 364 1011 364 1011 440 1011 c 0,57,58
 531 1011 531 1011 601.5 985 c 128,-1,59
 672 959 672 959 731 905 c 1,60,-1
 710 872 l 2,0,1
EndSplineSet
EndChar

StartChar: t
Encoding: 116 116 87
Width: 713
Flags: W
LayerCount: 2
Fore
SplineSet
434 -16 m 0,0,1
 333 -16 333 -16 276.5 40 c 128,-1,2
 220 96 220 96 220 213 c 2,3,-1
 220 893 l 1,4,-1
 77 893 l 2,5,6
 66 893 66 893 59 899 c 128,-1,7
 52 905 52 905 52 916 c 2,8,-1
 52 953 l 1,9,-1
 222 965 l 1,10,-1
 246 1321 l 2,11,12
 247 1330 247 1330 253.5 1337 c 128,-1,13
 260 1344 260 1344 271 1344 c 2,14,-1
 316 1344 l 1,15,-1
 316 964 l 1,16,-1
 629 964 l 1,17,-1
 629 893 l 1,18,-1
 316 893 l 1,19,-1
 316 218 l 2,20,21
 316 177 316 177 326.5 147.5 c 128,-1,22
 337 118 337 118 355.5 99 c 128,-1,23
 374 80 374 80 399 71 c 128,-1,24
 424 62 424 62 453 62 c 0,25,26
 489 62 489 62 515 72.5 c 128,-1,27
 541 83 541 83 560 95.5 c 128,-1,28
 579 108 579 108 591 118.5 c 128,-1,29
 603 129 603 129 610 129 c 0,30,31
 618 129 618 129 626 119 c 2,32,-1
 652 77 l 1,33,34
 614 35 614 35 555.5 9.5 c 128,-1,35
 497 -16 497 -16 434 -16 c 0,0,1
EndSplineSet
EndChar

StartChar: u
Encoding: 117 117 88
Width: 1082
Flags: W
LayerCount: 2
Fore
SplineSet
233 995 m 1,0,-1
 233 359 l 2,1,2
 233 219 233 219 297 139.5 c 128,-1,3
 361 60 361 60 492 60 c 0,4,5
 589 60 589 60 673 109.5 c 128,-1,6
 757 159 757 159 824 247 c 1,7,-1
 824 995 l 1,8,-1
 920 995 l 1,9,-1
 920 0 l 1,10,-1
 867 0 l 2,11,12
 839 0 839 0 838 26 c 2,13,-1
 829 174 l 1,14,15
 760 88 760 88 669.5 36 c 128,-1,16
 579 -16 579 -16 468 -16 c 0,17,18
 385 -16 385 -16 323 10 c 128,-1,19
 261 36 261 36 220 85 c 128,-1,20
 179 134 179 134 158 203 c 128,-1,21
 137 272 137 272 137 359 c 2,22,-1
 137 995 l 1,23,-1
 233 995 l 1,0,-1
EndSplineSet
EndChar

StartChar: v
Encoding: 118 118 89
Width: 974
Flags: W
LayerCount: 2
Fore
SplineSet
529 0 m 1,0,-1
 445 0 l 1,1,-1
 25 995 l 1,2,-1
 100 995 l 2,3,4
 114 995 114 995 122.5 987.5 c 128,-1,5
 131 980 131 980 135 971 c 2,6,-1
 463 186 l 2,7,8
 473 163 473 163 478 142 c 128,-1,9
 483 121 483 121 488 100 c 1,10,11
 493 121 493 121 498.5 142.5 c 128,-1,12
 504 164 504 164 513 186 c 2,13,-1
 843 971 l 2,14,15
 848 982 848 982 856.5 988.5 c 128,-1,16
 865 995 865 995 877 995 c 2,17,-1
 949 995 l 1,18,-1
 529 0 l 1,0,-1
EndSplineSet
EndChar

StartChar: w
Encoding: 119 119 90
Width: 1474
Flags: W
LayerCount: 2
Fore
SplineSet
22 995 m 1,0,-1
 95 995 l 2,1,2
 109 995 109 995 118 987.5 c 128,-1,3
 127 980 127 980 130 971 c 2,4,-1
 381 186 l 2,5,6
 388 163 388 163 392 142 c 128,-1,7
 396 121 396 121 400 100 c 1,8,9
 405 121 405 121 411 142 c 128,-1,10
 417 163 417 163 425 186 c 2,11,-1
 692 978 l 2,12,13
 699 1000 699 1000 720 1000 c 2,14,-1
 759 1000 l 2,15,16
 781 1000 781 1000 788 978 c 2,17,-1
 1051 186 l 2,18,19
 1066 141 1066 141 1075 99 c 1,20,21
 1079 120 1079 120 1083.5 141.5 c 128,-1,22
 1088 163 1088 163 1096 186 c 2,23,-1
 1348 971 l 2,24,25
 1356 995 1356 995 1382 995 c 2,26,-1
 1452 995 l 1,27,-1
 1119 0 l 1,28,-1
 1049 0 l 2,29,30
 1033 0 1033 0 1026 21 c 2,31,-1
 753 829 l 2,32,33
 748 844 748 844 744 859 c 128,-1,34
 740 874 740 874 737 889 c 1,35,36
 734 874 734 874 730.5 859 c 128,-1,37
 727 844 727 844 722 829 c 2,38,-1
 446 21 l 2,39,40
 440 0 440 0 422 0 c 2,41,-1
 355 0 l 1,42,-1
 22 995 l 1,0,-1
EndSplineSet
EndChar

StartChar: x
Encoding: 120 120 91
Width: 921
Flags: W
LayerCount: 2
Fore
SplineSet
395 509 m 1,0,-1
 49 995 l 1,1,-1
 140 995 l 2,2,3
 154 995 154 995 160.5 989 c 128,-1,4
 167 983 167 983 172 975 c 2,5,-1
 464 553 l 1,6,7
 468 570 468 570 481 589 c 2,8,-1
 754 974 l 2,9,10
 759 983 759 983 766.5 989 c 128,-1,11
 774 995 774 995 784 995 c 2,12,-1
 872 995 l 1,13,-1
 524 514 l 1,14,-1
 886 0 l 1,15,-1
 795 0 l 2,16,17
 781 0 781 0 773 8.5 c 128,-1,18
 765 17 765 17 760 25 c 2,19,-1
 458 465 l 1,20,21
 453 445 453 445 443 431 c 2,22,-1
 153 23 l 2,23,24
 146 14 146 14 138.5 7 c 128,-1,25
 131 0 131 0 120 0 c 2,26,-1
 35 0 l 1,27,-1
 395 509 l 1,0,-1
EndSplineSet
EndChar

StartChar: y
Encoding: 121 121 92
Width: 974
Flags: W
LayerCount: 2
Fore
SplineSet
379 -320 m 2,0,1
 373 -334 373 -334 363.5 -343 c 128,-1,2
 354 -352 354 -352 336 -352 c 2,3,-1
 268 -352 l 1,4,-1
 443 37 l 1,5,-1
 22 995 l 1,6,-1
 101 995 l 2,7,8
 116 995 116 995 124.5 987.5 c 128,-1,9
 133 980 133 980 137 971 c 2,10,-1
 472 197 l 2,11,12
 478 182 478 182 482.5 166.5 c 128,-1,13
 487 151 487 151 491 135 c 1,14,15
 496 151 496 151 501.5 166.5 c 128,-1,16
 507 182 507 182 513 197 c 2,17,-1
 844 971 l 2,18,19
 849 982 849 982 858 988.5 c 128,-1,20
 867 995 867 995 878 995 c 2,21,-1
 951 995 l 1,22,-1
 379 -320 l 2,0,1
EndSplineSet
EndChar

StartChar: z
Encoding: 122 122 93
Width: 904
Flags: W
LayerCount: 2
Fore
SplineSet
826 955 m 2,0,1
 826 934 826 934 812 917 c 2,2,-1
 189 75 l 1,3,-1
 801 75 l 1,4,-1
 801 0 l 1,5,-1
 74 0 l 1,6,-1
 74 38 l 2,7,8
 74 55 74 55 89 75 c 2,9,-1
 714 920 l 1,10,-1
 107 920 l 1,11,-1
 107 995 l 1,12,-1
 826 995 l 1,13,-1
 826 955 l 2,0,1
EndSplineSet
EndChar

StartChar: braceleft
Encoding: 123 123 94
Width: 600
Flags: W
LayerCount: 2
Fore
SplineSet
219 445 m 0,0,1
 219 478 219 478 208 505.5 c 128,-1,2
 197 533 197 533 176.5 553.5 c 128,-1,3
 156 574 156 574 127 585 c 128,-1,4
 98 596 98 596 63 596 c 1,5,-1
 63 657 l 1,6,7
 98 657 98 657 127 668 c 128,-1,8
 156 679 156 679 176.5 699.5 c 128,-1,9
 197 720 197 720 208 747.5 c 128,-1,10
 219 775 219 775 219 808 c 0,11,12
 219 863 219 863 209.5 915 c 128,-1,13
 200 967 200 967 189 1019 c 128,-1,14
 178 1071 178 1071 168.5 1123.5 c 128,-1,15
 159 1176 159 1176 159 1232 c 0,16,17
 159 1293 159 1293 178 1345 c 128,-1,18
 197 1397 197 1397 233 1435.5 c 128,-1,19
 269 1474 269 1474 321.5 1495.5 c 128,-1,20
 374 1517 374 1517 440 1517 c 2,21,-1
 495 1517 l 1,22,-1
 495 1475 l 2,23,24
 495 1464 495 1464 486.5 1458 c 128,-1,25
 478 1452 478 1452 470 1452 c 2,26,-1
 437 1452 l 2,27,28
 394 1452 394 1452 358.5 1437 c 128,-1,29
 323 1422 323 1422 297.5 1394 c 128,-1,30
 272 1366 272 1366 257.5 1326 c 128,-1,31
 243 1286 243 1286 243 1237 c 0,32,33
 243 1180 243 1180 252 1126 c 128,-1,34
 261 1072 261 1072 272 1019.5 c 128,-1,35
 283 967 283 967 292 914.5 c 128,-1,36
 301 862 301 862 301 809 c 0,37,38
 301 772 301 772 288.5 741 c 128,-1,39
 276 710 276 710 255.5 687 c 128,-1,40
 235 664 235 664 208.5 648.5 c 128,-1,41
 182 633 182 633 153 626 c 1,42,43
 182 620 182 620 208.5 604.5 c 128,-1,44
 235 589 235 589 255.5 565.5 c 128,-1,45
 276 542 276 542 288.5 511.5 c 128,-1,46
 301 481 301 481 301 444 c 0,47,48
 301 391 301 391 292 338.5 c 128,-1,49
 283 286 283 286 272 233 c 128,-1,50
 261 180 261 180 252 126 c 128,-1,51
 243 72 243 72 243 16 c 0,52,53
 243 -33 243 -33 257.5 -73 c 128,-1,54
 272 -113 272 -113 297.5 -141 c 128,-1,55
 323 -169 323 -169 358.5 -184 c 128,-1,56
 394 -199 394 -199 437 -199 c 2,57,-1
 470 -199 l 2,58,59
 478 -199 478 -199 486.5 -205 c 128,-1,60
 495 -211 495 -211 495 -222 c 2,61,-1
 495 -264 l 1,62,-1
 440 -264 l 2,63,64
 374 -264 374 -264 321.5 -242.5 c 128,-1,65
 269 -221 269 -221 233 -182.5 c 128,-1,66
 197 -144 197 -144 178 -92 c 128,-1,67
 159 -40 159 -40 159 21 c 0,68,69
 159 77 159 77 168.5 129.5 c 128,-1,70
 178 182 178 182 189 234 c 128,-1,71
 200 286 200 286 209.5 338 c 128,-1,72
 219 390 219 390 219 445 c 0,0,1
EndSplineSet
EndChar

StartChar: bar
Encoding: 124 124 95
Width: 600
Flags: W
LayerCount: 2
Fore
SplineSet
262 1517 m 1,0,-1
 337 1517 l 1,1,-1
 337 -352 l 1,2,-1
 262 -352 l 1,3,-1
 262 1517 l 1,0,-1
EndSplineSet
EndChar

StartChar: braceright
Encoding: 125 125 96
Width: 600
Flags: W
LayerCount: 2
Fore
SplineSet
381 445 m 0,0,1
 381 390 381 390 390.5 338 c 128,-1,2
 400 286 400 286 411 234 c 128,-1,3
 422 182 422 182 431.5 129.5 c 128,-1,4
 441 77 441 77 441 21 c 0,5,6
 441 -40 441 -40 422 -92 c 128,-1,7
 403 -144 403 -144 367 -182.5 c 128,-1,8
 331 -221 331 -221 278.5 -242.5 c 128,-1,9
 226 -264 226 -264 160 -264 c 2,10,-1
 105 -264 l 1,11,-1
 105 -222 l 2,12,13
 105 -211 105 -211 113 -205 c 128,-1,14
 121 -199 121 -199 130 -199 c 2,15,-1
 163 -199 l 2,16,17
 206 -199 206 -199 241.5 -184 c 128,-1,18
 277 -169 277 -169 302.5 -141 c 128,-1,19
 328 -113 328 -113 342.5 -73 c 128,-1,20
 357 -33 357 -33 357 16 c 0,21,22
 357 72 357 72 348 126 c 128,-1,23
 339 180 339 180 328 233 c 128,-1,24
 317 286 317 286 308 338.5 c 128,-1,25
 299 391 299 391 299 444 c 0,26,27
 299 481 299 481 311 511.5 c 128,-1,28
 323 542 323 542 343.5 565.5 c 128,-1,29
 364 589 364 589 390.5 604.5 c 128,-1,30
 417 620 417 620 446 626 c 1,31,32
 417 633 417 633 390.5 648.5 c 128,-1,33
 364 664 364 664 343.5 687 c 128,-1,34
 323 710 323 710 311 741 c 128,-1,35
 299 772 299 772 299 809 c 0,36,37
 299 862 299 862 308 914.5 c 128,-1,38
 317 967 317 967 328 1019.5 c 128,-1,39
 339 1072 339 1072 348 1126 c 128,-1,40
 357 1180 357 1180 357 1237 c 0,41,42
 357 1286 357 1286 342.5 1326 c 128,-1,43
 328 1366 328 1366 302.5 1394 c 128,-1,44
 277 1422 277 1422 241.5 1437 c 128,-1,45
 206 1452 206 1452 163 1452 c 2,46,-1
 130 1452 l 2,47,48
 121 1452 121 1452 113 1458 c 128,-1,49
 105 1464 105 1464 105 1475 c 2,50,-1
 105 1517 l 1,51,-1
 160 1517 l 2,52,53
 226 1517 226 1517 278.5 1495.5 c 128,-1,54
 331 1474 331 1474 367 1435.5 c 128,-1,55
 403 1397 403 1397 422 1345 c 128,-1,56
 441 1293 441 1293 441 1232 c 0,57,58
 441 1176 441 1176 431.5 1123.5 c 128,-1,59
 422 1071 422 1071 411 1019 c 128,-1,60
 400 967 400 967 390.5 915 c 128,-1,61
 381 863 381 863 381 808 c 0,62,63
 381 775 381 775 392 747.5 c 128,-1,64
 403 720 403 720 423.5 699.5 c 128,-1,65
 444 679 444 679 472.5 668 c 128,-1,66
 501 657 501 657 536 657 c 1,67,-1
 536 596 l 1,68,69
 501 596 501 596 472.5 585 c 128,-1,70
 444 574 444 574 423.5 553.5 c 128,-1,71
 403 533 403 533 392 505.5 c 128,-1,72
 381 478 381 478 381 445 c 0,0,1
EndSplineSet
EndChar

StartChar: asciitilde
Encoding: 126 126 97
Width: 1160
Flags: W
LayerCount: 2
Fore
SplineSet
779 567 m 0,0,1
 816 567 816 567 846.5 580.5 c 128,-1,2
 877 594 877 594 898 618 c 128,-1,3
 919 642 919 642 930.5 675 c 128,-1,4
 942 708 942 708 942 747 c 1,5,-1
 1020 747 l 1,6,7
 1020 692 1020 692 1004 645 c 128,-1,8
 988 598 988 598 958 563 c 128,-1,9
 928 528 928 528 884 508 c 128,-1,10
 840 488 840 488 784 488 c 0,11,12
 733 488 733 488 679.5 507.5 c 128,-1,13
 626 527 626 527 573.5 551 c 128,-1,14
 521 575 521 575 472 594.5 c 128,-1,15
 423 614 423 614 380 614 c 0,16,17
 342 614 342 614 312.5 600.5 c 128,-1,18
 283 587 283 587 262 563 c 128,-1,19
 241 539 241 539 229.5 506 c 128,-1,20
 218 473 218 473 217 434 c 1,21,-1
 140 434 l 1,22,23
 140 489 140 489 156 536 c 128,-1,24
 172 583 172 583 202 618 c 128,-1,25
 232 653 232 653 275.5 673 c 128,-1,26
 319 693 319 693 375 693 c 0,27,28
 427 693 427 693 480.5 673.5 c 128,-1,29
 534 654 534 654 586 630 c 128,-1,30
 638 606 638 606 687 586.5 c 128,-1,31
 736 567 736 567 779 567 c 0,0,1
EndSplineSet
EndChar

StartChar: exclamdown
Encoding: 161 161 99
Width: 645
Flags: W
LayerCount: 2
Fore
SplineSet
279 -352 m 1,0,-1
 279 198 l 2,1,2
 279 243 279 243 280 283 c 128,-1,3
 281 323 281 323 282.5 364.5 c 128,-1,4
 284 406 284 406 287 452 c 128,-1,5
 290 498 290 498 293 554 c 1,6,-1
 358 554 l 1,7,8
 361 498 361 498 364 452 c 128,-1,9
 367 406 367 406 368.5 364.5 c 128,-1,10
 370 323 370 323 371 283 c 128,-1,11
 372 243 372 243 372 198 c 2,12,-1
 372 -352 l 1,13,-1
 279 -352 l 1,0,-1
230 919 m 256,14,15
 230 958 230 958 256.5 984.5 c 128,-1,16
 283 1011 283 1011 322 1011 c 0,17,18
 341 1011 341 1011 358 1004 c 128,-1,19
 375 997 375 997 387.5 984.5 c 128,-1,20
 400 972 400 972 407.5 955 c 128,-1,21
 415 938 415 938 415 919 c 0,22,23
 415 899 415 899 407.5 882 c 128,-1,24
 400 865 400 865 387.5 852.5 c 128,-1,25
 375 840 375 840 358 832.5 c 128,-1,26
 341 825 341 825 322 825 c 0,27,28
 283 825 283 825 256.5 852.5 c 128,-1,29
 230 880 230 880 230 919 c 256,14,15
EndSplineSet
EndChar

StartChar: cent
Encoding: 162 162 100
Width: 1160
Flags: W
LayerCount: 2
Fore
SplineSet
589 -11 m 1,0,1
 493 -5 493 -5 414 32 c 128,-1,2
 335 69 335 69 278 134 c 128,-1,3
 221 199 221 199 190 290.5 c 128,-1,4
 159 382 159 382 159 498 c 0,5,6
 159 610 159 610 191 703.5 c 128,-1,7
 223 797 223 797 284.5 864.5 c 128,-1,8
 346 932 346 932 435.5 970.5 c 128,-1,9
 525 1009 525 1009 640 1011 c 1,10,-1
 650 1216 l 2,11,12
 651 1229 651 1229 658.5 1238.5 c 128,-1,13
 666 1248 666 1248 680 1248 c 2,14,-1
 716 1248 l 1,15,-1
 704 1008 l 1,16,17
 791 1000 791 1000 858.5 971 c 128,-1,18
 926 942 926 942 979 896 c 1,19,-1
 955 863 l 2,20,21
 950 858 950 858 945.5 854.5 c 128,-1,22
 941 851 941 851 933 851 c 0,23,24
 924 851 924 851 907.5 862.5 c 128,-1,25
 891 874 891 874 863.5 888.5 c 128,-1,26
 836 903 836 903 796 916.5 c 128,-1,27
 756 930 756 930 700 935 c 1,28,-1
 657 61 l 1,29,30
 732 63 732 63 783 80 c 128,-1,31
 834 97 834 97 867.5 116.5 c 128,-1,32
 901 136 901 136 920.5 152 c 128,-1,33
 940 168 940 168 951 168 c 0,34,35
 959 168 959 168 963 166 c 128,-1,36
 967 164 967 164 971 159 c 2,37,-1
 995 128 l 1,38,39
 972 99 972 99 937.5 74.5 c 128,-1,40
 903 50 903 50 859 31.5 c 128,-1,41
 815 13 815 13 763 1.5 c 128,-1,42
 711 -10 711 -10 653 -12 c 1,43,-1
 643 -222 l 2,44,45
 642 -235 642 -235 634.5 -244 c 128,-1,46
 627 -253 627 -253 613 -253 c 2,47,-1
 577 -253 l 1,48,-1
 589 -11 l 1,0,1
253 498 m 0,49,50
 253 400 253 400 276.5 322.5 c 128,-1,51
 300 245 300 245 344.5 189.5 c 128,-1,52
 389 134 389 134 451.5 102 c 128,-1,53
 514 70 514 70 592 63 c 1,54,-1
 636 936 l 1,55,56
 544 933 544 933 472.5 901.5 c 128,-1,57
 401 870 401 870 352.5 813.5 c 128,-1,58
 304 757 304 757 278.5 677 c 128,-1,59
 253 597 253 597 253 498 c 0,49,50
EndSplineSet
EndChar

StartChar: sterling
Encoding: 163 163 101
Width: 1160
Flags: W
LayerCount: 2
Fore
SplineSet
67 664 m 2,0,1
 67 679 67 679 76.5 689 c 128,-1,2
 86 699 86 699 103 699 c 2,3,-1
 268 699 l 1,4,-1
 268 993 l 2,5,6
 268 1086 268 1086 294 1166 c 128,-1,7
 320 1246 320 1246 371.5 1304.5 c 128,-1,8
 423 1363 423 1363 500.5 1396.5 c 128,-1,9
 578 1430 578 1430 680 1430 c 0,10,11
 756 1430 756 1430 814 1411.5 c 128,-1,12
 872 1393 872 1393 915.5 1361 c 128,-1,13
 959 1329 959 1329 990 1286 c 128,-1,14
 1021 1243 1021 1243 1043 1195 c 1,15,-1
 1005 1173 l 2,16,17
 996 1168 996 1168 983 1168 c 0,18,19
 966 1168 966 1168 953 1185 c 0,20,21
 933 1216 933 1216 910.5 1245.5 c 128,-1,22
 888 1275 888 1275 857 1298 c 128,-1,23
 826 1321 826 1321 783 1334.5 c 128,-1,24
 740 1348 740 1348 680 1348 c 0,25,26
 602 1348 602 1348 543.5 1322 c 128,-1,27
 485 1296 485 1296 445 1249.5 c 128,-1,28
 405 1203 405 1203 385 1137.5 c 128,-1,29
 365 1072 365 1072 365 993 c 2,30,-1
 365 699 l 1,31,-1
 844 699 l 1,32,-1
 844 660 l 2,33,34
 844 649 844 649 835.5 640.5 c 128,-1,35
 827 632 827 632 814 632 c 2,36,-1
 365 632 l 1,37,-1
 365 328 l 2,38,39
 365 239 365 239 329 178.5 c 128,-1,40
 293 118 293 118 230 75 c 1,41,42
 252 79 252 79 273.5 81 c 128,-1,43
 295 83 295 83 318 83 c 2,44,-1
 1105 83 l 1,45,-1
 1105 43 l 2,46,47
 1105 28 1105 28 1093 14 c 128,-1,48
 1081 0 1081 0 1061 0 c 2,49,-1
 91 0 l 1,50,-1
 91 65 l 1,51,52
 125 78 125 78 157 98 c 128,-1,53
 189 118 189 118 214 147 c 128,-1,54
 239 176 239 176 253.5 215 c 128,-1,55
 268 254 268 254 268 306 c 2,56,-1
 268 632 l 1,57,-1
 67 632 l 1,58,-1
 67 664 l 2,0,1
EndSplineSet
EndChar

StartChar: currency
Encoding: 164 164 102
Width: 1160
Flags: W
LayerCount: 2
Fore
SplineSet
237 671 m 0,0,1
 237 733 237 733 257 787.5 c 128,-1,2
 277 842 277 842 313 887 c 1,3,-1
 159 1041 l 1,4,-1
 208 1091 l 1,5,-1
 362 937 l 1,6,7
 407 973 407 973 462 994 c 128,-1,8
 517 1015 517 1015 580 1015 c 0,9,10
 642 1015 642 1015 696.5 994.5 c 128,-1,11
 751 974 751 974 796 938 c 1,12,-1
 950 1092 l 1,13,-1
 999 1042 l 1,14,-1
 846 889 l 1,15,16
 882 844 882 844 903 789 c 128,-1,17
 924 734 924 734 924 671 c 0,18,19
 924 609 924 609 903.5 554.5 c 128,-1,20
 883 500 883 500 847 455 c 1,21,-1
 1001 301 l 1,22,-1
 951 251 l 1,23,-1
 797 405 l 1,24,25
 752 369 752 369 697 348.5 c 128,-1,26
 642 328 642 328 580 328 c 256,27,28
 518 328 518 328 463.5 348 c 128,-1,29
 409 368 409 368 364 404 c 1,30,-1
 209 250 l 1,31,-1
 160 300 l 1,32,-1
 314 453 l 1,33,34
 278 498 278 498 257.5 553 c 128,-1,35
 237 608 237 608 237 671 c 0,0,1
309 671 m 256,36,37
 309 615 309 615 330.5 566 c 128,-1,38
 352 517 352 517 388.5 480.5 c 128,-1,39
 425 444 425 444 474.5 422.5 c 128,-1,40
 524 401 524 401 580 401 c 256,41,42
 636 401 636 401 685.5 422.5 c 128,-1,43
 735 444 735 444 772 480.5 c 128,-1,44
 809 517 809 517 830.5 566 c 128,-1,45
 852 615 852 615 852 671 c 256,46,47
 852 727 852 727 830.5 776.5 c 128,-1,48
 809 826 809 826 772 863 c 128,-1,49
 735 900 735 900 685.5 921.5 c 128,-1,50
 636 943 636 943 580 943 c 256,51,52
 524 943 524 943 474.5 921.5 c 128,-1,53
 425 900 425 900 388.5 863 c 128,-1,54
 352 826 352 826 330.5 776.5 c 128,-1,55
 309 727 309 727 309 671 c 256,36,37
EndSplineSet
EndChar

StartChar: yen
Encoding: 165 165 103
Width: 1160
Flags: W
LayerCount: 2
Fore
SplineSet
161 616 m 1,0,-1
 507 616 l 1,1,-1
 85 1415 l 1,2,-1
 164 1415 l 2,3,4
 190 1415 190 1415 203 1390 c 2,5,-1
 549 725 l 2,6,7
 557 705 557 705 563.5 687.5 c 128,-1,8
 570 670 570 670 575 653 c 1,9,10
 584 686 584 686 601 725 c 2,11,-1
 946 1390 l 2,12,13
 951 1401 951 1401 960.5 1408 c 128,-1,14
 970 1415 970 1415 984 1415 c 2,15,-1
 1064 1415 l 1,16,-1
 641 616 l 1,17,-1
 988 616 l 1,18,-1
 988 558 l 1,19,-1
 622 558 l 1,20,-1
 622 440 l 1,21,-1
 988 440 l 1,22,-1
 988 382 l 1,23,-1
 622 382 l 1,24,-1
 622 0 l 1,25,-1
 527 0 l 1,26,-1
 527 382 l 1,27,-1
 161 382 l 1,28,-1
 161 440 l 1,29,-1
 527 440 l 1,30,-1
 527 558 l 1,31,-1
 161 558 l 1,32,-1
 161 616 l 1,0,-1
EndSplineSet
EndChar

StartChar: brokenbar
Encoding: 166 166 104
Width: 600
Flags: W
LayerCount: 2
Fore
SplineSet
262 1517 m 1,0,-1
 337 1517 l 1,1,-1
 337 739 l 1,2,-1
 262 739 l 1,3,-1
 262 1517 l 1,0,-1
262 425 m 1,4,-1
 337 425 l 1,5,-1
 337 -352 l 1,6,-1
 262 -352 l 1,7,-1
 262 425 l 1,4,-1
EndSplineSet
EndChar

StartChar: section
Encoding: 167 167 105
Width: 1002
Flags: W
LayerCount: 2
Fore
SplineSet
808 1291 m 2,0,1
 801 1278 801 1278 786 1278 c 0,2,3
 775 1278 775 1278 757.5 1290.5 c 128,-1,4
 740 1303 740 1303 711.5 1318 c 128,-1,5
 683 1333 683 1333 641.5 1345.5 c 128,-1,6
 600 1358 600 1358 540 1358 c 0,7,8
 484 1358 484 1358 438.5 1342.5 c 128,-1,9
 393 1327 393 1327 361 1300.5 c 128,-1,10
 329 1274 329 1274 311.5 1239 c 128,-1,11
 294 1204 294 1204 294 1165 c 0,12,13
 294 1119 294 1119 319 1085 c 128,-1,14
 344 1051 344 1051 385 1023.5 c 128,-1,15
 426 996 426 996 478 973 c 128,-1,16
 530 950 530 950 584.5 926 c 128,-1,17
 639 902 639 902 691 874.5 c 128,-1,18
 743 847 743 847 784 812 c 128,-1,19
 825 777 825 777 850 730.5 c 128,-1,20
 875 684 875 684 875 622 c 0,21,22
 875 539 875 539 833 477.5 c 128,-1,23
 791 416 791 416 709 381 c 1,24,25
 763 343 763 343 796.5 294 c 128,-1,26
 830 245 830 245 830 176 c 0,27,28
 830 111 830 111 806.5 55 c 128,-1,29
 783 -1 783 -1 738.5 -42 c 128,-1,30
 694 -83 694 -83 629 -107 c 128,-1,31
 564 -131 564 -131 481 -131 c 0,32,33
 376 -131 376 -131 300 -97.5 c 128,-1,34
 224 -64 224 -64 164 -10 c 1,35,-1
 187 24 l 2,36,37
 192 32 192 32 198 36 c 128,-1,38
 204 40 204 40 215 40 c 0,39,40
 228 40 228 40 247 24 c 128,-1,41
 266 8 266 8 297 -10.5 c 128,-1,42
 328 -29 328 -29 374 -45 c 128,-1,43
 420 -61 420 -61 488 -61 c 0,44,45
 550 -61 550 -61 598 -44 c 128,-1,46
 646 -27 646 -27 679 3 c 128,-1,47
 712 33 712 33 729 73.5 c 128,-1,48
 746 114 746 114 746 161 c 0,49,50
 746 212 746 212 720 250 c 128,-1,51
 694 288 694 288 651 317.5 c 128,-1,52
 608 347 608 347 553.5 371 c 128,-1,53
 499 395 499 395 442.5 419 c 128,-1,54
 386 443 386 443 331.5 469 c 128,-1,55
 277 495 277 495 234 529.5 c 128,-1,56
 191 564 191 564 165 608.5 c 128,-1,57
 139 653 139 653 139 714 c 0,58,59
 139 791 139 791 184.5 852.5 c 128,-1,60
 230 914 230 914 333 951 c 1,61,62
 278 988 278 988 243.5 1037.5 c 128,-1,63
 209 1087 209 1087 209 1161 c 0,64,65
 209 1215 209 1215 232 1263.5 c 128,-1,66
 255 1312 255 1312 297.5 1349.5 c 128,-1,67
 340 1387 340 1387 401 1409 c 128,-1,68
 462 1431 462 1431 538 1431 c 0,69,70
 629 1431 629 1431 699.5 1404.5 c 128,-1,71
 770 1378 770 1378 829 1325 c 1,72,-1
 808 1291 l 2,0,1
224 727 m 0,73,74
 224 686 224 686 243.5 653.5 c 128,-1,75
 263 621 263 621 296.5 594.5 c 128,-1,76
 330 568 330 568 374 545.5 c 128,-1,77
 418 523 418 523 466 502 c 128,-1,78
 514 481 514 481 563.5 459.5 c 128,-1,79
 613 438 613 438 658 413 c 1,80,81
 729 445 729 445 760 493 c 128,-1,82
 791 541 791 541 791 602 c 0,83,84
 791 647 791 647 773 682 c 128,-1,85
 755 717 755 717 724.5 744.5 c 128,-1,86
 694 772 694 772 653.5 794 c 128,-1,87
 613 816 613 816 568 836.5 c 128,-1,88
 523 857 523 857 476.5 876.5 c 128,-1,89
 430 896 430 896 387 919 c 1,90,91
 298 881 298 881 261 834 c 128,-1,92
 224 787 224 787 224 727 c 0,73,74
EndSplineSet
EndChar

StartChar: dieresis
Encoding: 168 168 106
Width: 585
Flags: W
LayerCount: 2
Fore
SplineSet
203 1284 m 0,0,1
 203 1268 203 1268 196 1253.5 c 128,-1,2
 189 1239 189 1239 178 1228 c 128,-1,3
 167 1217 167 1217 151.5 1210.5 c 128,-1,4
 136 1204 136 1204 120 1204 c 256,5,6
 104 1204 104 1204 89.5 1210.5 c 128,-1,7
 75 1217 75 1217 63.5 1228 c 128,-1,8
 52 1239 52 1239 45.5 1253.5 c 128,-1,9
 39 1268 39 1268 39 1284 c 0,10,11
 39 1301 39 1301 45.5 1316 c 128,-1,12
 52 1331 52 1331 63.5 1342.5 c 128,-1,13
 75 1354 75 1354 89.5 1360.5 c 128,-1,14
 104 1367 104 1367 120 1367 c 256,15,16
 136 1367 136 1367 151.5 1360.5 c 128,-1,17
 167 1354 167 1354 178 1342.5 c 128,-1,18
 189 1331 189 1331 196 1316 c 128,-1,19
 203 1301 203 1301 203 1284 c 0,0,1
546 1284 m 0,20,21
 546 1268 546 1268 539 1253.5 c 128,-1,22
 532 1239 532 1239 521 1228 c 128,-1,23
 510 1217 510 1217 494.5 1210.5 c 128,-1,24
 479 1204 479 1204 463 1204 c 0,25,26
 446 1204 446 1204 431.5 1210.5 c 128,-1,27
 417 1217 417 1217 405.5 1228 c 128,-1,28
 394 1239 394 1239 387.5 1253.5 c 128,-1,29
 381 1268 381 1268 381 1284 c 0,30,31
 381 1301 381 1301 387.5 1316 c 128,-1,32
 394 1331 394 1331 405.5 1342.5 c 128,-1,33
 417 1354 417 1354 431.5 1360.5 c 128,-1,34
 446 1367 446 1367 463 1367 c 0,35,36
 479 1367 479 1367 494.5 1360.5 c 128,-1,37
 510 1354 510 1354 521 1342.5 c 128,-1,38
 532 1331 532 1331 539 1316 c 128,-1,39
 546 1301 546 1301 546 1284 c 0,20,21
EndSplineSet
EndChar

StartChar: copyright
Encoding: 169 169 107
Width: 1613
Flags: W
LayerCount: 2
Fore
SplineSet
1080 414 m 0,0,1
 1092 424 1092 424 1103 424 c 0,2,3
 1108 424 1108 424 1112 422 c 128,-1,4
 1116 420 1116 420 1118 418 c 2,5,-1
 1149 387 l 1,6,7
 1090 328 1090 328 1010 293 c 128,-1,8
 930 258 930 258 814 258 c 0,9,10
 718 258 718 258 637.5 290.5 c 128,-1,11
 557 323 557 323 499.5 382 c 128,-1,12
 442 441 442 441 410 524 c 128,-1,13
 378 607 378 607 378 709 c 0,14,15
 378 809 378 809 411.5 892 c 128,-1,16
 445 975 445 975 505 1034.5 c 128,-1,17
 565 1094 565 1094 648 1127 c 128,-1,18
 731 1160 731 1160 830 1160 c 0,19,20
 882 1160 882 1160 925.5 1152.5 c 128,-1,21
 969 1145 969 1145 1006 1130.5 c 128,-1,22
 1043 1116 1043 1116 1075 1095.5 c 128,-1,23
 1107 1075 1107 1075 1138 1048 c 1,24,-1
 1114 1015 l 2,25,26
 1107 1004 1107 1004 1094 1004 c 0,27,28
 1084 1004 1084 1004 1067.5 1017 c 128,-1,29
 1051 1030 1051 1030 1022 1045.5 c 128,-1,30
 993 1061 993 1061 947.5 1074 c 128,-1,31
 902 1087 902 1087 834 1087 c 0,32,33
 751 1087 751 1087 683 1060.5 c 128,-1,34
 615 1034 615 1034 566.5 985 c 128,-1,35
 518 936 518 936 491.5 866 c 128,-1,36
 465 796 465 796 465 709 c 0,37,38
 465 619 465 619 491.5 549 c 128,-1,39
 518 479 518 479 565 430.5 c 128,-1,40
 612 382 612 382 676.5 356.5 c 128,-1,41
 741 331 741 331 818 331 c 0,42,43
 903 331 903 331 964.5 351.5 c 128,-1,44
 1026 372 1026 372 1080 414 c 0,0,1
85 708 m 0,45,46
 85 807 85 807 111 899.5 c 128,-1,47
 137 992 137 992 183.5 1072 c 128,-1,48
 230 1152 230 1152 296 1218 c 128,-1,49
 362 1284 362 1284 442 1331 c 128,-1,50
 522 1378 522 1378 614 1404 c 128,-1,51
 706 1430 706 1430 806 1430 c 256,52,53
 906 1430 906 1430 998 1404 c 128,-1,54
 1090 1378 1090 1378 1170.5 1331 c 128,-1,55
 1251 1284 1251 1284 1317 1218 c 128,-1,56
 1383 1152 1383 1152 1429.5 1072 c 128,-1,57
 1476 992 1476 992 1502 899.5 c 128,-1,58
 1528 807 1528 807 1528 708 c 0,59,60
 1528 608 1528 608 1502 516 c 128,-1,61
 1476 424 1476 424 1429.5 344 c 128,-1,62
 1383 264 1383 264 1317 198 c 128,-1,63
 1251 132 1251 132 1170.5 85 c 128,-1,64
 1090 38 1090 38 998 12 c 128,-1,65
 906 -14 906 -14 806 -14 c 0,66,67
 707 -14 707 -14 614.5 12 c 128,-1,68
 522 38 522 38 442 85 c 128,-1,69
 362 132 362 132 296 198 c 128,-1,70
 230 264 230 264 183.5 344 c 128,-1,71
 137 424 137 424 111 516 c 128,-1,72
 85 608 85 608 85 708 c 0,45,46
144 708 m 256,73,74
 144 569 144 569 195.5 447.5 c 128,-1,75
 247 326 247 326 337 235.5 c 128,-1,76
 427 145 427 145 547.5 93 c 128,-1,77
 668 41 668 41 806 41 c 256,78,79
 944 41 944 41 1065.5 93 c 128,-1,80
 1187 145 1187 145 1277 235.5 c 128,-1,81
 1367 326 1367 326 1419 447.5 c 128,-1,82
 1471 569 1471 569 1471 708 c 256,83,84
 1471 847 1471 847 1419 968.5 c 128,-1,85
 1367 1090 1367 1090 1277 1181 c 128,-1,86
 1187 1272 1187 1272 1065.5 1324.5 c 128,-1,87
 944 1377 944 1377 806 1377 c 256,88,89
 668 1377 668 1377 547.5 1324.5 c 128,-1,90
 427 1272 427 1272 337 1181 c 128,-1,91
 247 1090 247 1090 195.5 968.5 c 128,-1,92
 144 847 144 847 144 708 c 256,73,74
EndSplineSet
EndChar

StartChar: ordfeminine
Encoding: 170 170 108
Width: 671
Flags: W
LayerCount: 2
Fore
SplineSet
565 839 m 1,0,-1
 533 839 l 2,1,2
 522 839 522 839 517 843 c 128,-1,3
 512 847 512 847 507 858 c 2,4,-1
 497 926 l 1,5,6
 472 903 472 903 447.5 885 c 128,-1,7
 423 867 423 867 396.5 855 c 128,-1,8
 370 843 370 843 339.5 836.5 c 128,-1,9
 309 830 309 830 273 830 c 0,10,11
 240 830 240 830 210 839 c 128,-1,12
 180 848 180 848 157 866.5 c 128,-1,13
 134 885 134 885 120 913.5 c 128,-1,14
 106 942 106 942 106 981 c 0,15,16
 106 1017 106 1017 127 1049.5 c 128,-1,17
 148 1082 148 1082 194.5 1106.5 c 128,-1,18
 241 1131 241 1131 315 1146.5 c 128,-1,19
 389 1162 389 1162 494 1164 c 1,20,-1
 494 1215 l 2,21,22
 494 1291 494 1291 460 1330.5 c 128,-1,23
 426 1370 426 1370 353 1370 c 0,24,25
 310 1370 310 1370 280.5 1359 c 128,-1,26
 251 1348 251 1348 231 1335.5 c 128,-1,27
 211 1323 211 1323 197.5 1312 c 128,-1,28
 184 1301 184 1301 173 1301 c 0,29,30
 158 1301 158 1301 151 1314 c 2,31,-1
 139 1337 l 1,32,33
 187 1385 187 1385 240 1407.5 c 128,-1,34
 293 1430 293 1430 360 1430 c 0,35,36
 461 1430 461 1430 513 1371.5 c 128,-1,37
 565 1313 565 1313 565 1215 c 2,38,-1
 565 839 l 1,0,-1
292 883 m 0,39,40
 325 883 325 883 353 890 c 128,-1,41
 381 897 381 897 405.5 909.5 c 128,-1,42
 430 922 430 922 451.5 939 c 128,-1,43
 473 956 473 956 494 976 c 1,44,-1
 494 1114 l 1,45,46
 326 1109 326 1109 250.5 1075 c 128,-1,47
 175 1041 175 1041 175 985 c 0,48,49
 175 958 175 958 184.5 938.5 c 128,-1,50
 194 919 194 919 210.5 906.5 c 128,-1,51
 227 894 227 894 248 888.5 c 128,-1,52
 269 883 269 883 292 883 c 0,39,40
EndSplineSet
EndChar

StartChar: guillemotleft
Encoding: 171 171 109
Width: 874
Flags: W
LayerCount: 2
Fore
SplineSet
155 513 m 1,0,-1
 155 526 l 1,1,-1
 396 904 l 1,2,-1
 426 889 l 2,3,4
 442 879 442 879 442 864 c 0,5,6
 442 852 442 852 435 841 c 2,7,-1
 252 548 l 2,8,9
 239 528 239 528 230 519 c 1,10,11
 240 511 240 511 252 491 c 2,12,-1
 435 197 l 2,13,14
 442 186 442 186 442 174 c 0,15,16
 442 159 442 159 426 149 c 2,17,-1
 396 134 l 1,18,-1
 155 513 l 1,0,-1
410 513 m 1,19,-1
 410 526 l 1,20,-1
 651 904 l 1,21,-1
 681 889 l 2,22,23
 697 879 697 879 697 864 c 0,24,25
 697 852 697 852 690 841 c 2,26,-1
 507 548 l 2,27,28
 494 528 494 528 485 519 c 1,29,30
 495 511 495 511 507 491 c 2,31,-1
 690 197 l 2,32,33
 697 186 697 186 697 174 c 0,34,35
 697 159 697 159 681 149 c 2,36,-1
 651 134 l 1,37,-1
 410 513 l 1,19,-1
EndSplineSet
EndChar

StartChar: logicalnot
Encoding: 172 172 110
Width: 1160
Flags: W
LayerCount: 2
Fore
SplineSet
164 707 m 1,0,-1
 993 707 l 1,1,-1
 993 339 l 1,2,-1
 911 339 l 1,3,-1
 911 634 l 1,4,-1
 164 634 l 1,5,-1
 164 707 l 1,0,-1
EndSplineSet
EndChar

StartChar: uni00AD
Encoding: 173 173 111
Width: 665
Flags: W
LayerCount: 2
Fore
SplineSet
100 634 m 1,0,-1
 565 634 l 1,1,-1
 565 553 l 1,2,-1
 100 553 l 1,3,-1
 100 634 l 1,0,-1
EndSplineSet
EndChar

StartChar: registered
Encoding: 174 174 112
Width: 1613
Flags: W
LayerCount: 2
Fore
SplineSet
85 708 m 0,0,1
 85 807 85 807 111 899.5 c 128,-1,2
 137 992 137 992 183.5 1072 c 128,-1,3
 230 1152 230 1152 296 1218 c 128,-1,4
 362 1284 362 1284 442 1331 c 128,-1,5
 522 1378 522 1378 614 1404 c 128,-1,6
 706 1430 706 1430 806 1430 c 256,7,8
 906 1430 906 1430 998 1404 c 128,-1,9
 1090 1378 1090 1378 1170.5 1331 c 128,-1,10
 1251 1284 1251 1284 1317 1218 c 128,-1,11
 1383 1152 1383 1152 1429.5 1072 c 128,-1,12
 1476 992 1476 992 1502 899.5 c 128,-1,13
 1528 807 1528 807 1528 708 c 0,14,15
 1528 608 1528 608 1502 516 c 128,-1,16
 1476 424 1476 424 1429.5 344 c 128,-1,17
 1383 264 1383 264 1317 198 c 128,-1,18
 1251 132 1251 132 1170.5 85 c 128,-1,19
 1090 38 1090 38 998 12 c 128,-1,20
 906 -14 906 -14 806 -14 c 0,21,22
 707 -14 707 -14 614.5 12 c 128,-1,23
 522 38 522 38 442 85 c 128,-1,24
 362 132 362 132 296 198 c 128,-1,25
 230 264 230 264 183.5 344 c 128,-1,26
 137 424 137 424 111 516 c 128,-1,27
 85 608 85 608 85 708 c 0,0,1
144 708 m 256,28,29
 144 569 144 569 195.5 447.5 c 128,-1,30
 247 326 247 326 337 235.5 c 128,-1,31
 427 145 427 145 547.5 93 c 128,-1,32
 668 41 668 41 806 41 c 256,33,34
 944 41 944 41 1065.5 93 c 128,-1,35
 1187 145 1187 145 1277 235.5 c 128,-1,36
 1367 326 1367 326 1419 447.5 c 128,-1,37
 1471 569 1471 569 1471 708 c 256,38,39
 1471 847 1471 847 1419 968.5 c 128,-1,40
 1367 1090 1367 1090 1277 1181 c 128,-1,41
 1187 1272 1187 1272 1065.5 1324.5 c 128,-1,42
 944 1377 944 1377 806 1377 c 256,43,44
 668 1377 668 1377 547.5 1324.5 c 128,-1,45
 427 1272 427 1272 337 1181 c 128,-1,46
 247 1090 247 1090 195.5 968.5 c 128,-1,47
 144 847 144 847 144 708 c 256,28,29
624 657 m 1,48,-1
 624 266 l 1,49,-1
 539 266 l 1,50,-1
 539 1151 l 1,51,-1
 786 1151 l 2,52,53
 939 1151 939 1151 1017.5 1093.5 c 128,-1,54
 1096 1036 1096 1036 1096 918 c 0,55,56
 1096 818 1096 818 1031.5 754 c 128,-1,57
 967 690 967 690 850 674 c 1,58,59
 862 667 862 667 871.5 657.5 c 128,-1,60
 881 648 881 648 890 634 c 2,61,-1
 1175 266 l 1,62,-1
 1095 266 l 2,63,64
 1085 266 1085 266 1077.5 269 c 128,-1,65
 1070 272 1070 272 1064 282 c 2,66,-1
 794 633 l 2,67,68
 786 644 786 644 773.5 650.5 c 128,-1,69
 761 657 761 657 734 657 c 2,70,-1
 624 657 l 1,48,-1
624 721 m 1,71,-1
 772 721 l 2,72,73
 893 721 893 721 952.5 769.5 c 128,-1,74
 1012 818 1012 818 1012 909 c 0,75,76
 1012 1001 1012 1001 958 1043 c 128,-1,77
 904 1085 904 1085 786 1085 c 2,78,-1
 624 1085 l 1,79,-1
 624 721 l 1,71,-1
EndSplineSet
EndChar

StartChar: macron
Encoding: 175 175 113
Width: 585
Flags: W
LayerCount: 2
Fore
SplineSet
20 1317 m 1,0,-1
 565 1317 l 1,1,-1
 565 1252 l 1,2,-1
 20 1252 l 1,3,-1
 20 1317 l 1,0,-1
EndSplineSet
EndChar

StartChar: degree
Encoding: 176 176 114
Width: 786
Flags: W
LayerCount: 2
Fore
SplineSet
91 1134 m 256,0,1
 91 1196 91 1196 114.5 1250.5 c 128,-1,2
 138 1305 138 1305 178.5 1345.5 c 128,-1,3
 219 1386 219 1386 274 1409 c 128,-1,4
 329 1432 329 1432 392 1432 c 256,5,6
 455 1432 455 1432 510 1409 c 128,-1,7
 565 1386 565 1386 605.5 1345.5 c 128,-1,8
 646 1305 646 1305 669.5 1250.5 c 128,-1,9
 693 1196 693 1196 693 1134 c 256,10,11
 693 1072 693 1072 669.5 1018 c 128,-1,12
 646 964 646 964 605.5 923.5 c 128,-1,13
 565 883 565 883 510 859.5 c 128,-1,14
 455 836 455 836 392 836 c 256,15,16
 329 836 329 836 274 859.5 c 128,-1,17
 219 883 219 883 178.5 923.5 c 128,-1,18
 138 964 138 964 114.5 1018 c 128,-1,19
 91 1072 91 1072 91 1134 c 256,0,1
162 1134 m 256,20,21
 162 1086 162 1086 180 1044 c 128,-1,22
 198 1002 198 1002 229 971 c 128,-1,23
 260 940 260 940 302 922 c 128,-1,24
 344 904 344 904 392 904 c 256,25,26
 440 904 440 904 482 922 c 128,-1,27
 524 940 524 940 554.5 971 c 128,-1,28
 585 1002 585 1002 603 1044 c 128,-1,29
 621 1086 621 1086 621 1134 c 256,30,31
 621 1182 621 1182 603 1224 c 128,-1,32
 585 1266 585 1266 554.5 1297.5 c 128,-1,33
 524 1329 524 1329 482 1347 c 128,-1,34
 440 1365 440 1365 392 1365 c 256,35,36
 344 1365 344 1365 302 1347 c 128,-1,37
 260 1329 260 1329 229 1297.5 c 128,-1,38
 198 1266 198 1266 180 1224 c 128,-1,39
 162 1182 162 1182 162 1134 c 256,20,21
EndSplineSet
EndChar

StartChar: plusminus
Encoding: 177 177 115
Width: 1160
Flags: W
LayerCount: 2
Fore
SplineSet
617 1153 m 1,0,-1
 617 747 l 1,1,-1
 1048 747 l 1,2,-1
 1048 674 l 1,3,-1
 617 674 l 1,4,-1
 617 272 l 1,5,-1
 539 272 l 1,6,-1
 539 674 l 1,7,-1
 109 674 l 1,8,-1
 109 747 l 1,9,-1
 539 747 l 1,10,-1
 539 1153 l 1,11,-1
 617 1153 l 1,0,-1
109 153 m 1,12,-1
 1048 153 l 1,13,-1
 1048 80 l 1,14,-1
 109 80 l 1,15,-1
 109 153 l 1,12,-1
EndSplineSet
EndChar

StartChar: twosuperior
Encoding: 178 178 116
Width: 662
Flags: W
LayerCount: 2
Fore
SplineSet
342 1623 m 0,0,1
 386 1623 386 1623 425 1610 c 128,-1,2
 464 1597 464 1597 492.5 1572.5 c 128,-1,3
 521 1548 521 1548 537.5 1511.5 c 128,-1,4
 554 1475 554 1475 554 1427 c 0,5,6
 554 1387 554 1387 541.5 1352.5 c 128,-1,7
 529 1318 529 1318 508 1286.5 c 128,-1,8
 487 1255 487 1255 459 1225.5 c 128,-1,9
 431 1196 431 1196 401 1166 c 2,10,-1
 194 956 l 1,11,12
 213 961 213 961 232.5 963.5 c 128,-1,13
 252 966 252 966 272 966 c 2,14,-1
 547 966 l 2,15,16
 571 966 571 966 571 942 c 2,17,-1
 571 900 l 1,18,-1
 97 900 l 1,19,-1
 97 924 l 2,20,21
 97 932 97 932 100 940 c 128,-1,22
 103 948 103 948 111 955 c 2,23,-1
 346 1192 l 2,24,25
 374 1220 374 1220 398.5 1248 c 128,-1,26
 423 1276 423 1276 441.5 1304.5 c 128,-1,27
 460 1333 460 1333 470.5 1363 c 128,-1,28
 481 1393 481 1393 481 1425 c 0,29,30
 481 1460 481 1460 469.5 1486 c 128,-1,31
 458 1512 458 1512 438.5 1529 c 128,-1,32
 419 1546 419 1546 393 1554.5 c 128,-1,33
 367 1563 367 1563 339 1563 c 0,34,35
 277 1563 277 1563 241 1527.5 c 128,-1,36
 205 1492 205 1492 185 1437 c 0,37,38
 178 1418 178 1418 158 1418 c 0,39,40
 156 1418 156 1418 150 1418.5 c 128,-1,41
 144 1419 144 1419 141 1420 c 2,42,-1
 111 1425 l 1,43,44
 125 1521 125 1521 187 1572 c 128,-1,45
 249 1623 249 1623 342 1623 c 0,0,1
EndSplineSet
EndChar

StartChar: threesuperior
Encoding: 179 179 117
Width: 662
Flags: W
LayerCount: 2
Fore
SplineSet
348 1623 m 0,0,1
 392 1623 392 1623 430 1610.5 c 128,-1,2
 468 1598 468 1598 495.5 1574.5 c 128,-1,3
 523 1551 523 1551 539 1517.5 c 128,-1,4
 555 1484 555 1484 555 1441 c 0,5,6
 555 1375 555 1375 519 1331.5 c 128,-1,7
 483 1288 483 1288 423 1269 c 1,8,9
 496 1252 496 1252 534.5 1210 c 128,-1,10
 573 1168 573 1168 573 1102 c 0,11,12
 573 1054 573 1054 554.5 1015.5 c 128,-1,13
 536 977 536 977 504 949.5 c 128,-1,14
 472 922 472 922 429 907 c 128,-1,15
 386 892 386 892 338 892 c 0,16,17
 278 892 278 892 237.5 907 c 128,-1,18
 197 922 197 922 169.5 947.5 c 128,-1,19
 142 973 142 973 125.5 1006.5 c 128,-1,20
 109 1040 109 1040 98 1076 c 1,21,-1
 128 1089 l 2,22,23
 132 1091 132 1091 135.5 1092 c 128,-1,24
 139 1093 139 1093 144 1093 c 0,25,26
 152 1093 152 1093 159 1089 c 128,-1,27
 166 1085 166 1085 169 1077 c 2,28,-1
 172 1069 l 2,29,30
 176 1057 176 1057 185.5 1037 c 128,-1,31
 195 1017 195 1017 213 998.5 c 128,-1,32
 231 980 231 980 260.5 966 c 128,-1,33
 290 952 290 952 335 952 c 0,34,35
 376 952 376 952 407 965.5 c 128,-1,36
 438 979 438 979 458.5 1000 c 128,-1,37
 479 1021 479 1021 489.5 1047 c 128,-1,38
 500 1073 500 1073 500 1098 c 0,39,40
 500 1131 500 1131 489.5 1157 c 128,-1,41
 479 1183 479 1183 456 1201.5 c 128,-1,42
 433 1220 433 1220 396 1230 c 128,-1,43
 359 1240 359 1240 306 1240 c 1,44,-1
 306 1289 l 1,45,46
 397 1291 397 1291 441.5 1328.5 c 128,-1,47
 486 1366 486 1366 486 1429 c 0,48,49
 486 1463 486 1463 475 1488 c 128,-1,50
 464 1513 464 1513 444.5 1529.5 c 128,-1,51
 425 1546 425 1546 399.5 1554 c 128,-1,52
 374 1562 374 1562 345 1562 c 0,53,54
 282 1562 282 1562 245.5 1529.5 c 128,-1,55
 209 1497 209 1497 191 1438 c 0,56,57
 185 1418 185 1418 167 1418 c 0,58,59
 160 1418 160 1418 145 1421 c 2,60,-1
 120 1425 l 1,61,62
 134 1521 134 1521 195.5 1572 c 128,-1,63
 257 1623 257 1623 348 1623 c 0,0,1
EndSplineSet
EndChar

StartChar: acute
Encoding: 180 180 118
Width: 585
Flags: W
LayerCount: 2
Fore
SplineSet
517 1431 m 1,0,-1
 301 1178 l 2,1,2
 293 1168 293 1168 284.5 1164.5 c 128,-1,3
 276 1161 276 1161 264 1161 c 2,4,-1
 207 1161 l 1,5,-1
 364 1399 l 2,6,7
 375 1417 375 1417 387 1424 c 128,-1,8
 399 1431 399 1431 423 1431 c 2,9,-1
 517 1431 l 1,0,-1
EndSplineSet
EndChar

StartChar: mu
Encoding: 181 181 119
Width: 1082
Flags: W
LayerCount: 2
Fore
SplineSet
233 995 m 1,0,-1
 233 359 l 2,1,2
 233 219 233 219 297 139.5 c 128,-1,3
 361 60 361 60 492 60 c 0,4,5
 589 60 589 60 673 109.5 c 128,-1,6
 757 159 757 159 824 247 c 1,7,-1
 824 995 l 1,8,-1
 920 995 l 1,9,-1
 920 0 l 1,10,-1
 867 0 l 2,11,12
 839 0 839 0 838 26 c 2,13,-1
 829 174 l 1,14,15
 759 86 759 86 674 40 c 128,-1,16
 589 -6 589 -6 487 -6 c 0,17,18
 389 -6 389 -6 323 32.5 c 128,-1,19
 257 71 257 71 220 143 c 1,20,21
 225 100 225 100 226.5 56 c 128,-1,22
 228 12 228 12 228 -24 c 2,23,-1
 228 -352 l 1,24,-1
 180 -352 l 2,25,26
 160 -352 160 -352 148.5 -341 c 128,-1,27
 137 -330 137 -330 137 -310 c 2,28,-1
 137 995 l 1,29,-1
 233 995 l 1,0,-1
EndSplineSet
EndChar

StartChar: paragraph
Encoding: 182 182 120
Width: 1264
Flags: W
LayerCount: 2
Fore
SplineSet
1220 1415 m 1,0,-1
 1220 1333 l 1,1,-1
 995 1333 l 1,2,-1
 995 -190 l 1,3,-1
 910 -190 l 1,4,-1
 910 1333 l 1,5,-1
 582 1333 l 1,6,-1
 582 -190 l 1,7,-1
 496 -190 l 1,8,-1
 496 699 l 1,9,10
 393 699 393 699 311 727 c 128,-1,11
 229 755 229 755 172 804 c 128,-1,12
 115 853 115 853 84.5 919.5 c 128,-1,13
 54 986 54 986 54 1063 c 0,14,15
 54 1143 54 1143 84.5 1208 c 128,-1,16
 115 1273 115 1273 172 1319 c 128,-1,17
 229 1365 229 1365 311 1390 c 128,-1,18
 393 1415 393 1415 496 1415 c 2,19,-1
 1220 1415 l 1,0,-1
EndSplineSet
EndChar

StartChar: periodcentered
Encoding: 183 183 121
Width: 532
Flags: W
LayerCount: 2
Fore
SplineSet
165 592 m 0,0,1
 165 613 165 613 173 632 c 128,-1,2
 181 651 181 651 194.5 665 c 128,-1,3
 208 679 208 679 226 687 c 128,-1,4
 244 695 244 695 264 695 c 0,5,6
 285 695 285 695 304 687 c 128,-1,7
 323 679 323 679 337 665 c 128,-1,8
 351 651 351 651 359 632 c 128,-1,9
 367 613 367 613 367 592 c 0,10,11
 367 572 367 572 359 553.5 c 128,-1,12
 351 535 351 535 337 521.5 c 128,-1,13
 323 508 323 508 304 500 c 128,-1,14
 285 492 285 492 264 492 c 0,15,16
 244 492 244 492 226 500 c 128,-1,17
 208 508 208 508 194.5 521.5 c 128,-1,18
 181 535 181 535 173 553.5 c 128,-1,19
 165 572 165 572 165 592 c 0,0,1
EndSplineSet
EndChar

StartChar: cedilla
Encoding: 184 184 122
Width: 585
Flags: W
LayerCount: 2
Fore
SplineSet
158 -273 m 0,0,1
 163 -273 163 -273 171.5 -278.5 c 128,-1,2
 180 -284 180 -284 193.5 -290.5 c 128,-1,3
 207 -297 207 -297 227 -302.5 c 128,-1,4
 247 -308 247 -308 276 -308 c 0,5,6
 327 -308 327 -308 355.5 -286 c 128,-1,7
 384 -264 384 -264 384 -226 c 0,8,9
 384 -201 384 -201 371 -184.5 c 128,-1,10
 358 -168 358 -168 334 -157 c 128,-1,11
 310 -146 310 -146 277.5 -140 c 128,-1,12
 245 -134 245 -134 206 -129 c 1,13,-1
 248 5 l 1,14,-1
 309 5 l 1,15,-1
 279 -91 l 1,16,17
 368 -107 368 -107 414.5 -137 c 128,-1,18
 461 -167 461 -167 461 -226 c 0,19,20
 461 -256 461 -256 447.5 -280 c 128,-1,21
 434 -304 434 -304 409.5 -320.5 c 128,-1,22
 385 -337 385 -337 351 -346 c 128,-1,23
 317 -355 317 -355 277 -355 c 0,24,25
 236 -355 236 -355 197 -343.5 c 128,-1,26
 158 -332 158 -332 132 -313 c 1,27,-1
 142 -285 l 2,28,29
 148 -273 148 -273 158 -273 c 0,0,1
EndSplineSet
EndChar

StartChar: onesuperior
Encoding: 185 185 123
Width: 662
Flags: W
LayerCount: 2
Fore
SplineSet
187 949 m 1,0,-1
 345 949 l 1,1,-1
 345 1489 l 1,2,-1
 349 1526 l 1,3,-1
 205 1400 l 2,4,5
 197 1394 197 1394 189 1394 c 0,6,7
 178 1394 178 1394 171 1403 c 2,8,-1
 149 1434 l 1,9,-1
 360 1618 l 1,10,-1
 418 1618 l 1,11,-1
 418 949 l 1,12,-1
 565 949 l 1,13,-1
 565 900 l 1,14,-1
 187 900 l 1,15,-1
 187 949 l 1,0,-1
EndSplineSet
EndChar

StartChar: ordmasculine
Encoding: 186 186 124
Width: 747
Flags: W
LayerCount: 2
Fore
SplineSet
375 1429 m 0,0,1
 441 1429 441 1429 494 1408 c 128,-1,2
 547 1387 547 1387 584 1347.5 c 128,-1,3
 621 1308 621 1308 640.5 1252.5 c 128,-1,4
 660 1197 660 1197 660 1128 c 256,5,6
 660 1059 660 1059 640.5 1003.5 c 128,-1,7
 621 948 621 948 584 908.5 c 128,-1,8
 547 869 547 869 494 848 c 128,-1,9
 441 827 441 827 375 827 c 0,10,11
 307 827 307 827 254 848 c 128,-1,12
 201 869 201 869 163.5 908.5 c 128,-1,13
 126 948 126 948 106.5 1003.5 c 128,-1,14
 87 1059 87 1059 87 1128 c 256,15,16
 87 1197 87 1197 106.5 1252.5 c 128,-1,17
 126 1308 126 1308 163.5 1347.5 c 128,-1,18
 201 1387 201 1387 254 1408 c 128,-1,19
 307 1429 307 1429 375 1429 c 0,0,1
375 885 m 0,20,21
 479 885 479 885 531.5 949.5 c 128,-1,22
 584 1014 584 1014 584 1128 c 0,23,24
 584 1241 584 1241 531.5 1306 c 128,-1,25
 479 1371 479 1371 375 1371 c 0,26,27
 268 1371 268 1371 215.5 1306 c 128,-1,28
 163 1241 163 1241 163 1128 c 0,29,30
 163 1014 163 1014 215.5 949.5 c 128,-1,31
 268 885 268 885 375 885 c 0,20,21
EndSplineSet
EndChar

StartChar: guillemotright
Encoding: 187 187 125
Width: 874
Flags: W
LayerCount: 2
Fore
SplineSet
223 134 m 1,0,-1
 193 149 l 2,1,2
 176 158 176 158 176 175 c 0,3,4
 176 186 176 186 183 197 c 2,5,-1
 366 491 l 2,6,7
 372 502 372 502 377.5 508.5 c 128,-1,8
 383 515 383 515 388 519 c 1,9,10
 383 524 383 524 377.5 530.5 c 128,-1,11
 372 537 372 537 366 548 c 2,12,-1
 183 841 l 2,13,14
 176 852 176 852 176 864 c 0,15,16
 176 880 176 880 193 889 c 2,17,-1
 223 904 l 1,18,-1
 464 526 l 1,19,-1
 464 513 l 1,20,-1
 223 134 l 1,0,-1
478 134 m 1,21,-1
 448 149 l 2,22,23
 431 158 431 158 431 175 c 0,24,25
 431 186 431 186 438 197 c 2,26,-1
 621 491 l 2,27,28
 627 502 627 502 632.5 508.5 c 128,-1,29
 638 515 638 515 643 519 c 1,30,31
 638 524 638 524 632.5 530.5 c 128,-1,32
 627 537 627 537 621 548 c 2,33,-1
 438 841 l 2,34,35
 431 852 431 852 431 864 c 0,36,37
 431 880 431 880 448 889 c 2,38,-1
 478 904 l 1,39,-1
 719 526 l 1,40,-1
 719 513 l 1,41,-1
 478 134 l 1,21,-1
EndSplineSet
EndChar

StartChar: onequarter
Encoding: 188 188 126
Width: 1424
Flags: W
LayerCount: 2
Fore
SplineSet
1267 247 m 1,0,-1
 1393 247 l 1,1,-1
 1393 211 l 2,2,3
 1393 195 1393 195 1376 195 c 2,4,-1
 1267 195 l 1,5,-1
 1267 0 l 1,6,-1
 1204 0 l 1,7,-1
 1204 195 l 1,8,-1
 879 195 l 2,9,10
 856 195 856 195 854 211 c 2,11,-1
 848 243 l 1,12,-1
 1200 715 l 1,13,-1
 1267 715 l 1,14,-1
 1267 247 l 1,0,-1
172 750 m 1,15,-1
 330 750 l 1,16,-1
 330 1290 l 1,17,-1
 334 1327 l 1,18,-1
 190 1201 l 2,19,20
 182 1195 182 1195 174 1195 c 0,21,22
 163 1195 163 1195 156 1204 c 2,23,-1
 134 1235 l 1,24,-1
 345 1419 l 1,25,-1
 403 1419 l 1,26,-1
 403 750 l 1,27,-1
 550 750 l 1,28,-1
 550 701 l 1,29,-1
 172 701 l 1,30,-1
 172 750 l 1,15,-1
1204 582 m 2,31,32
 1204 605 1204 605 1207 634 c 1,33,-1
 918 247 l 1,34,-1
 1204 247 l 1,35,-1
 1204 582 l 2,31,32
408 31 m 2,36,37
 397 13 397 13 383.5 6.5 c 128,-1,38
 370 0 370 0 353 0 c 2,39,-1
 313 0 l 1,40,-1
 1113 1380 l 2,41,42
 1123 1397 1123 1397 1135.5 1406 c 128,-1,43
 1148 1415 1148 1415 1168 1415 c 2,44,-1
 1210 1415 l 1,45,-1
 408 31 l 2,36,37
EndSplineSet
EndChar

StartChar: onehalf
Encoding: 189 189 127
Width: 1424
Flags: W
LayerCount: 2
Fore
SplineSet
1126 723 m 0,0,1
 1170 723 1170 723 1209 710 c 128,-1,2
 1248 697 1248 697 1276.5 672.5 c 128,-1,3
 1305 648 1305 648 1321.5 611.5 c 128,-1,4
 1338 575 1338 575 1338 527 c 0,5,6
 1338 487 1338 487 1325.5 452.5 c 128,-1,7
 1313 418 1313 418 1292 386.5 c 128,-1,8
 1271 355 1271 355 1243 325.5 c 128,-1,9
 1215 296 1215 296 1185 266 c 2,10,-1
 978 56 l 1,11,12
 997 61 997 61 1016.5 63.5 c 128,-1,13
 1036 66 1036 66 1056 66 c 2,14,-1
 1331 66 l 2,15,16
 1355 66 1355 66 1355 42 c 2,17,-1
 1355 0 l 1,18,-1
 881 0 l 1,19,-1
 881 24 l 2,20,21
 881 32 881 32 884 40 c 128,-1,22
 887 48 887 48 895 55 c 2,23,-1
 1130 292 l 2,24,25
 1158 320 1158 320 1182.5 348 c 128,-1,26
 1207 376 1207 376 1225.5 404.5 c 128,-1,27
 1244 433 1244 433 1254.5 463 c 128,-1,28
 1265 493 1265 493 1265 525 c 0,29,30
 1265 560 1265 560 1253.5 586 c 128,-1,31
 1242 612 1242 612 1222.5 629 c 128,-1,32
 1203 646 1203 646 1177 654.5 c 128,-1,33
 1151 663 1151 663 1123 663 c 0,34,35
 1061 663 1061 663 1024.5 631 c 128,-1,36
 988 599 988 599 969 537 c 0,37,38
 963 518 963 518 942 518 c 0,39,40
 940 518 940 518 930 519 c 128,-1,41
 920 520 920 520 918 521 c 2,42,-1
 895 525 l 1,43,44
 909 621 909 621 971 672 c 128,-1,45
 1033 723 1033 723 1126 723 c 0,0,1
172 750 m 1,46,-1
 330 750 l 1,47,-1
 330 1290 l 1,48,-1
 334 1327 l 1,49,-1
 190 1201 l 2,50,51
 182 1195 182 1195 174 1195 c 0,52,53
 163 1195 163 1195 156 1204 c 2,54,-1
 134 1235 l 1,55,-1
 345 1419 l 1,56,-1
 403 1419 l 1,57,-1
 403 750 l 1,58,-1
 550 750 l 1,59,-1
 550 701 l 1,60,-1
 172 701 l 1,61,-1
 172 750 l 1,46,-1
361 31 m 2,62,63
 350 13 350 13 336.5 6.5 c 128,-1,64
 323 0 323 0 306 0 c 2,65,-1
 266 0 l 1,66,-1
 1066 1380 l 2,67,68
 1076 1397 1076 1397 1088.5 1406 c 128,-1,69
 1101 1415 1101 1415 1121 1415 c 2,70,-1
 1163 1415 l 1,71,-1
 361 31 l 2,62,63
EndSplineSet
EndChar

StartChar: threequarters
Encoding: 190 190 128
Width: 1428
Flags: W
LayerCount: 2
Fore
SplineSet
1267 247 m 1,0,-1
 1393 247 l 1,1,-1
 1393 211 l 2,2,3
 1393 195 1393 195 1376 195 c 2,4,-1
 1267 195 l 1,5,-1
 1267 0 l 1,6,-1
 1204 0 l 1,7,-1
 1204 195 l 1,8,-1
 879 195 l 2,9,10
 856 195 856 195 854 211 c 2,11,-1
 848 243 l 1,12,-1
 1200 715 l 1,13,-1
 1267 715 l 1,14,-1
 1267 247 l 1,0,-1
333 1424 m 0,15,16
 377 1424 377 1424 415 1411.5 c 128,-1,17
 453 1399 453 1399 480.5 1375.5 c 128,-1,18
 508 1352 508 1352 524 1318.5 c 128,-1,19
 540 1285 540 1285 540 1242 c 0,20,21
 540 1176 540 1176 504 1132.5 c 128,-1,22
 468 1089 468 1089 408 1070 c 1,23,24
 481 1053 481 1053 519.5 1011 c 128,-1,25
 558 969 558 969 558 903 c 0,26,27
 558 855 558 855 539.5 816.5 c 128,-1,28
 521 778 521 778 489 750.5 c 128,-1,29
 457 723 457 723 414 708 c 128,-1,30
 371 693 371 693 323 693 c 0,31,32
 263 693 263 693 222.5 708 c 128,-1,33
 182 723 182 723 154.5 748.5 c 128,-1,34
 127 774 127 774 110.5 807.5 c 128,-1,35
 94 841 94 841 83 877 c 1,36,-1
 113 890 l 2,37,38
 117 892 117 892 120.5 893 c 128,-1,39
 124 894 124 894 129 894 c 0,40,41
 137 894 137 894 144 890 c 128,-1,42
 151 886 151 886 154 878 c 2,43,-1
 157 870 l 2,44,45
 161 858 161 858 170.5 838 c 128,-1,46
 180 818 180 818 198 799.5 c 128,-1,47
 216 781 216 781 245.5 767 c 128,-1,48
 275 753 275 753 320 753 c 0,49,50
 361 753 361 753 392 766.5 c 128,-1,51
 423 780 423 780 443.5 801 c 128,-1,52
 464 822 464 822 474.5 848 c 128,-1,53
 485 874 485 874 485 899 c 0,54,55
 485 932 485 932 474.5 958 c 128,-1,56
 464 984 464 984 441 1002.5 c 128,-1,57
 418 1021 418 1021 381 1031 c 128,-1,58
 344 1041 344 1041 291 1041 c 1,59,-1
 291 1090 l 1,60,61
 382 1092 382 1092 426.5 1129.5 c 128,-1,62
 471 1167 471 1167 471 1230 c 0,63,64
 471 1264 471 1264 460 1289 c 128,-1,65
 449 1314 449 1314 429.5 1330.5 c 128,-1,66
 410 1347 410 1347 384.5 1355 c 128,-1,67
 359 1363 359 1363 330 1363 c 0,68,69
 268 1363 268 1363 231 1327.5 c 128,-1,70
 194 1292 194 1292 176 1239 c 0,71,72
 169 1219 169 1219 152 1219 c 0,73,74
 151 1219 151 1219 149 1219 c 128,-1,75
 147 1219 147 1219 142.5 1220 c 128,-1,76
 138 1221 138 1221 129 1222 c 128,-1,77
 120 1223 120 1223 105 1226 c 1,78,79
 119 1322 119 1322 180.5 1373 c 128,-1,80
 242 1424 242 1424 333 1424 c 0,15,16
1204 582 m 2,81,82
 1204 605 1204 605 1207 634 c 1,83,-1
 918 247 l 1,84,-1
 1204 247 l 1,85,-1
 1204 582 l 2,81,82
416 31 m 2,86,87
 405 13 405 13 391.5 6.5 c 128,-1,88
 378 0 378 0 361 0 c 2,89,-1
 321 0 l 1,90,-1
 1121 1380 l 2,91,92
 1131 1397 1131 1397 1143.5 1406 c 128,-1,93
 1156 1415 1156 1415 1176 1415 c 2,94,-1
 1218 1415 l 1,95,-1
 416 31 l 2,86,87
EndSplineSet
EndChar

StartChar: questiondown
Encoding: 191 191 129
Width: 741
Flags: W
LayerCount: 2
Fore
SplineSet
712 -224 m 1,0,1
 685 -251 685 -251 651 -276 c 128,-1,2
 617 -301 617 -301 576.5 -320.5 c 128,-1,3
 536 -340 536 -340 488 -351.5 c 128,-1,4
 440 -363 440 -363 384 -363 c 0,5,6
 315 -363 315 -363 252.5 -342.5 c 128,-1,7
 190 -322 190 -322 143.5 -283.5 c 128,-1,8
 97 -245 97 -245 69.5 -189.5 c 128,-1,9
 42 -134 42 -134 42 -63 c 0,10,11
 42 13 42 13 66 66.5 c 128,-1,12
 90 120 90 120 125.5 158.5 c 128,-1,13
 161 197 161 197 203 225.5 c 128,-1,14
 245 254 245 254 282 279 c 128,-1,15
 319 304 319 304 344.5 330 c 128,-1,16
 370 356 370 356 372 391 c 2,17,-1
 383 554 l 1,18,-1
 448 554 l 1,19,-1
 454 384 l 1,20,-1
 454 379 l 2,21,22
 454 337 454 337 430 307 c 128,-1,23
 406 277 406 277 370.5 251 c 128,-1,24
 335 225 335 225 293 198.5 c 128,-1,25
 251 172 251 172 215.5 137.5 c 128,-1,26
 180 103 180 103 156 56.5 c 128,-1,27
 132 10 132 10 132 -56 c 0,28,29
 132 -110 132 -110 153 -152.5 c 128,-1,30
 174 -195 174 -195 210 -224.5 c 128,-1,31
 246 -254 246 -254 293 -269.5 c 128,-1,32
 340 -285 340 -285 391 -285 c 0,33,34
 460 -285 460 -285 507.5 -267.5 c 128,-1,35
 555 -250 555 -250 587 -228.5 c 128,-1,36
 619 -207 619 -207 637 -189.5 c 128,-1,37
 655 -172 655 -172 665 -172 c 0,38,39
 674 -172 674 -172 678.5 -175.5 c 128,-1,40
 683 -179 683 -179 687 -185 c 2,41,-1
 712 -224 l 1,0,1
325 918 m 0,42,43
 325 937 325 937 332 954 c 128,-1,44
 339 971 339 971 351.5 983.5 c 128,-1,45
 364 996 364 996 380.5 1003.5 c 128,-1,46
 397 1011 397 1011 417 1011 c 0,47,48
 436 1011 436 1011 453 1003.5 c 128,-1,49
 470 996 470 996 482.5 983.5 c 128,-1,50
 495 971 495 971 502.5 954 c 128,-1,51
 510 937 510 937 510 918 c 0,52,53
 510 898 510 898 502.5 881.5 c 128,-1,54
 495 865 495 865 482.5 852.5 c 128,-1,55
 470 840 470 840 453 833 c 128,-1,56
 436 826 436 826 417 826 c 0,57,58
 378 826 378 826 351.5 852.5 c 128,-1,59
 325 879 325 879 325 918 c 0,42,43
EndSplineSet
EndChar

StartChar: AE
Encoding: 198 198 136
Width: 1847
Flags: W
LayerCount: 2
Fore
SplineSet
763 1415 m 1,0,-1
 1723 1415 l 1,1,-1
 1723 1330 l 1,2,-1
 908 1330 l 1,3,-1
 980 758 l 1,4,-1
 1598 758 l 1,5,-1
 1598 675 l 1,6,-1
 991 675 l 1,7,-1
 1066 85 l 1,8,-1
 1723 85 l 1,9,-1
 1723 0 l 1,10,-1
 981 0 l 1,11,-1
 925 438 l 1,12,-1
 329 438 l 1,13,-1
 102 25 l 2,14,15
 89 0 89 0 60 0 c 2,16,-1
 -19 0 l 1,17,-1
 763 1415 l 1,0,-1
371 514 m 1,18,-1
 915 514 l 1,19,-1
 810 1337 l 1,20,21
 802 1311 802 1311 792 1288 c 128,-1,22
 782 1265 782 1265 771 1242 c 2,23,-1
 371 514 l 1,18,-1
EndSplineSet
EndChar

StartChar: Ccedilla
Encoding: 199 199 137
Width: 1407
Flags: W
LayerCount: 2
Fore
SplineSet
656 -273 m 0,0,1
 661 -273 661 -273 669.5 -278.5 c 128,-1,2
 678 -284 678 -284 691.5 -290.5 c 128,-1,3
 705 -297 705 -297 725 -302.5 c 128,-1,4
 745 -308 745 -308 774 -308 c 0,5,6
 825 -308 825 -308 853.5 -286 c 128,-1,7
 882 -264 882 -264 882 -226 c 0,8,9
 882 -201 882 -201 869 -184.5 c 128,-1,10
 856 -168 856 -168 832 -157 c 128,-1,11
 808 -146 808 -146 775.5 -140 c 128,-1,12
 743 -134 743 -134 704 -129 c 1,13,-1
 740 -14 l 1,14,15
 603 -6 603 -6 489.5 49 c 128,-1,16
 376 104 376 104 295 198 c 128,-1,17
 214 292 214 292 169 421 c 128,-1,18
 124 550 124 550 124 708 c 0,19,20
 124 869 124 869 174.5 1002 c 128,-1,21
 225 1135 225 1135 316.5 1230.5 c 128,-1,22
 408 1326 408 1326 535.5 1378.5 c 128,-1,23
 663 1431 663 1431 817 1431 c 0,24,25
 894 1431 894 1431 958 1419.5 c 128,-1,26
 1022 1408 1022 1408 1077.5 1386.5 c 128,-1,27
 1133 1365 1133 1365 1182 1333 c 128,-1,28
 1231 1301 1231 1301 1278 1259 c 1,29,-1
 1247 1214 l 2,30,31
 1239 1202 1239 1202 1222 1202 c 0,32,33
 1213 1202 1213 1202 1199 1212.5 c 128,-1,34
 1185 1223 1185 1223 1163.5 1238.5 c 128,-1,35
 1142 1254 1142 1254 1111.5 1272.5 c 128,-1,36
 1081 1291 1081 1291 1039 1306.5 c 128,-1,37
 997 1322 997 1322 942 1332.5 c 128,-1,38
 887 1343 887 1343 817 1343 c 0,39,40
 688 1343 688 1343 580 1298.5 c 128,-1,41
 472 1254 472 1254 394 1171.5 c 128,-1,42
 316 1089 316 1089 272.5 971.5 c 128,-1,43
 229 854 229 854 229 708 c 0,44,45
 229 558 229 558 272 440 c 128,-1,46
 315 322 315 322 391 240.5 c 128,-1,47
 467 159 467 159 570.5 115.5 c 128,-1,48
 674 72 674 72 795 72 c 0,49,50
 871 72 871 72 930.5 82 c 128,-1,51
 990 92 990 92 1040 112 c 128,-1,52
 1090 132 1090 132 1133 161 c 128,-1,53
 1176 190 1176 190 1218 229 c 0,54,55
 1223 233 1223 233 1227.5 235.5 c 128,-1,56
 1232 238 1232 238 1238 238 c 0,57,58
 1248 238 1248 238 1255 231 c 2,59,-1
 1295 188 l 1,60,61
 1251 142 1251 142 1200.5 105 c 128,-1,62
 1150 68 1150 68 1089.5 41.5 c 128,-1,63
 1029 15 1029 15 957 0 c 128,-1,64
 885 -15 885 -15 800 -16 c 1,65,-1
 777 -91 l 1,66,67
 866 -107 866 -107 912.5 -137 c 128,-1,68
 959 -167 959 -167 959 -226 c 0,69,70
 959 -256 959 -256 945.5 -280 c 128,-1,71
 932 -304 932 -304 907.5 -320.5 c 128,-1,72
 883 -337 883 -337 849 -346 c 128,-1,73
 815 -355 815 -355 775 -355 c 0,74,75
 734 -355 734 -355 695 -343.5 c 128,-1,76
 656 -332 656 -332 630 -313 c 1,77,-1
 640 -285 l 2,78,79
 646 -273 646 -273 656 -273 c 0,0,1
EndSplineSet
EndChar

StartChar: Eth
Encoding: 208 208 146
Width: 1575
Flags: W
LayerCount: 2
Fore
SplineSet
49 749 m 1,0,-1
 265 749 l 1,1,-1
 265 1415 l 1,2,-1
 781 1415 l 2,3,4
 932 1415 932 1415 1056 1366 c 128,-1,5
 1180 1317 1180 1317 1269 1225 c 128,-1,6
 1358 1133 1358 1133 1407 1002 c 128,-1,7
 1456 871 1456 871 1456 708 c 0,8,9
 1456 544 1456 544 1407 413 c 128,-1,10
 1358 282 1358 282 1269 190 c 128,-1,11
 1180 98 1180 98 1056 49 c 128,-1,12
 932 0 932 0 781 0 c 2,13,-1
 265 0 l 1,14,-1
 265 685 l 1,15,-1
 49 685 l 1,16,-1
 49 749 l 1,0,-1
1350 708 m 0,17,18
 1350 856 1350 856 1309 972 c 128,-1,19
 1268 1088 1268 1088 1193.5 1168 c 128,-1,20
 1119 1248 1119 1248 1014 1290 c 128,-1,21
 909 1332 909 1332 781 1332 c 2,22,-1
 368 1332 l 1,23,-1
 368 749 l 1,24,-1
 772 749 l 1,25,-1
 772 685 l 1,26,-1
 368 685 l 1,27,-1
 368 83 l 1,28,-1
 781 83 l 2,29,30
 909 83 909 83 1014 125 c 128,-1,31
 1119 167 1119 167 1193.5 247 c 128,-1,32
 1268 327 1268 327 1309 443 c 128,-1,33
 1350 559 1350 559 1350 708 c 0,17,18
EndSplineSet
EndChar

StartChar: multiply
Encoding: 215 215 153
Width: 1160
Flags: W
LayerCount: 2
Fore
SplineSet
998 1036 m 1,0,-1
 631 670 l 1,1,-1
 1003 298 l 1,2,-1
 952 246 l 1,3,-1
 579 618 l 1,4,-1
 205 244 l 1,5,-1
 153 296 l 1,6,-1
 526 670 l 1,7,-1
 158 1038 l 1,8,-1
 211 1092 l 1,9,-1
 579 723 l 1,10,-1
 945 1090 l 1,11,-1
 998 1036 l 1,0,-1
EndSplineSet
EndChar

StartChar: Oslash
Encoding: 216 216 154
Width: 1595
Flags: W
LayerCount: 2
Fore
SplineSet
1472 708 m 0,0,1
 1472 544 1472 544 1423 410.5 c 128,-1,2
 1374 277 1374 277 1285 182.5 c 128,-1,3
 1196 88 1196 88 1072 36.5 c 128,-1,4
 948 -15 948 -15 797 -15 c 0,5,6
 682 -15 682 -15 582.5 15.5 c 128,-1,7
 483 46 483 46 402 103 c 1,8,-1
 271 -73 l 2,9,10
 258 -90 258 -90 242 -97.5 c 128,-1,11
 226 -105 226 -105 209 -105 c 2,12,-1
 165 -105 l 1,13,-1
 350 144 l 1,14,15
 242 240 242 240 182.5 382.5 c 128,-1,16
 123 525 123 525 123 708 c 0,17,18
 123 871 123 871 172.5 1004.5 c 128,-1,19
 222 1138 222 1138 311 1232.5 c 128,-1,20
 400 1327 400 1327 524 1379 c 128,-1,21
 648 1431 648 1431 797 1431 c 0,22,23
 918 1431 918 1431 1022 1397.5 c 128,-1,24
 1126 1364 1126 1364 1209 1301 c 1,25,-1
 1320 1450 l 2,26,27
 1332 1466 1332 1466 1341 1473 c 128,-1,28
 1350 1480 1350 1480 1370 1480 c 2,29,-1
 1425 1480 l 1,30,-1
 1260 1258 l 1,31,32
 1361 1162 1361 1162 1416.5 1023 c 128,-1,33
 1472 884 1472 884 1472 708 c 0,0,1
228 708 m 0,34,35
 228 548 228 548 275 425.5 c 128,-1,36
 322 303 322 303 407 221 c 1,37,-1
 1153 1226 l 1,38,39
 1082 1283 1082 1283 992.5 1313 c 128,-1,40
 903 1343 903 1343 797 1343 c 0,41,42
 671 1343 671 1343 566.5 1299.5 c 128,-1,43
 462 1256 462 1256 386.5 1174 c 128,-1,44
 311 1092 311 1092 269.5 974 c 128,-1,45
 228 856 228 856 228 708 c 0,34,35
1366 708 m 0,46,47
 1366 860 1366 860 1323 979 c 128,-1,48
 1280 1098 1280 1098 1202 1180 c 1,49,-1
 457 178 l 1,50,51
 526 127 526 127 611.5 100.5 c 128,-1,52
 697 74 697 74 797 74 c 0,53,54
 925 74 925 74 1030 117 c 128,-1,55
 1135 160 1135 160 1209.5 242 c 128,-1,56
 1284 324 1284 324 1325 441.5 c 128,-1,57
 1366 559 1366 559 1366 708 c 0,46,47
EndSplineSet
EndChar

StartChar: Thorn
Encoding: 222 222 160
Width: 1187
Flags: W
LayerCount: 2
Fore
SplineSet
342 286 m 1,0,-1
 342 0 l 1,1,-1
 240 0 l 1,2,-1
 240 1415 l 1,3,-1
 342 1415 l 1,4,-1
 342 1131 l 1,5,-1
 605 1131 l 2,6,7
 854 1131 854 1131 980.5 1022 c 128,-1,8
 1107 913 1107 913 1107 711 c 0,9,10
 1107 618 1107 618 1072.5 540 c 128,-1,11
 1038 462 1038 462 973 405.5 c 128,-1,12
 908 349 908 349 815 317.5 c 128,-1,13
 722 286 722 286 605 286 c 2,14,-1
 342 286 l 1,0,-1
342 368 m 1,15,-1
 605 368 l 2,16,17
 699 368 699 368 773 394 c 128,-1,18
 847 420 847 420 898.5 466 c 128,-1,19
 950 512 950 512 977.5 574.5 c 128,-1,20
 1005 637 1005 637 1005 711 c 0,21,22
 1005 874 1005 874 904.5 961.5 c 128,-1,23
 804 1049 804 1049 605 1049 c 2,24,-1
 342 1049 l 1,25,-1
 342 368 l 1,15,-1
EndSplineSet
EndChar

StartChar: germandbls
Encoding: 223 223 161
Width: 1158
Flags: W
LayerCount: 2
Fore
SplineSet
641 1433 m 0,0,1
 726 1433 726 1433 792 1407.5 c 128,-1,2
 858 1382 858 1382 903 1341.5 c 128,-1,3
 948 1301 948 1301 971 1251 c 128,-1,4
 994 1201 994 1201 994 1151 c 0,5,6
 994 1089 994 1089 970.5 1043 c 128,-1,7
 947 997 947 997 911.5 961.5 c 128,-1,8
 876 926 876 926 835 898 c 128,-1,9
 794 870 794 870 758.5 842.5 c 128,-1,10
 723 815 723 815 699.5 786 c 128,-1,11
 676 757 676 757 676 720 c 0,12,13
 676 684 676 684 692.5 659.5 c 128,-1,14
 709 635 709 635 736.5 617 c 128,-1,15
 764 599 764 599 798.5 584 c 128,-1,16
 833 569 833 569 869.5 552.5 c 128,-1,17
 906 536 906 536 940.5 515.5 c 128,-1,18
 975 495 975 495 1002.5 465 c 128,-1,19
 1030 435 1030 435 1046.5 393.5 c 128,-1,20
 1063 352 1063 352 1063 293 c 0,21,22
 1063 225 1063 225 1038 168 c 128,-1,23
 1013 111 1013 111 968 70 c 128,-1,24
 923 29 923 29 860 6.5 c 128,-1,25
 797 -16 797 -16 720 -16 c 0,26,27
 619 -16 619 -16 546.5 17.5 c 128,-1,28
 474 51 474 51 414 105 c 1,29,-1
 436 139 l 2,30,31
 441 147 441 147 447.5 151 c 128,-1,32
 454 155 454 155 465 155 c 0,33,34
 478 155 478 155 496.5 139 c 128,-1,35
 515 123 515 123 545 104.5 c 128,-1,36
 575 86 575 86 619.5 70 c 128,-1,37
 664 54 664 54 727 54 c 0,38,39
 786 54 786 54 832 71.5 c 128,-1,40
 878 89 878 89 909.5 119.5 c 128,-1,41
 941 150 941 150 957.5 191 c 128,-1,42
 974 232 974 232 974 279 c 0,43,44
 974 346 974 346 944.5 386.5 c 128,-1,45
 915 427 915 427 871 453 c 128,-1,46
 827 479 827 479 776 498 c 128,-1,47
 725 517 725 517 681 541.5 c 128,-1,48
 637 566 637 566 607.5 603.5 c 128,-1,49
 578 641 578 641 578 704 c 0,50,51
 578 753 578 753 602 789 c 128,-1,52
 626 825 626 825 662.5 856 c 128,-1,53
 699 887 699 887 741 916 c 128,-1,54
 783 945 783 945 819.5 979 c 128,-1,55
 856 1013 856 1013 880 1054.5 c 128,-1,56
 904 1096 904 1096 904 1152 c 0,57,58
 904 1183 904 1183 890 1219.5 c 128,-1,59
 876 1256 876 1256 844.5 1287.5 c 128,-1,60
 813 1319 813 1319 762 1340 c 128,-1,61
 711 1361 711 1361 638 1361 c 0,62,63
 567 1361 567 1361 504.5 1339.5 c 128,-1,64
 442 1318 442 1318 395 1274 c 128,-1,65
 348 1230 348 1230 321 1161.5 c 128,-1,66
 294 1093 294 1093 294 999 c 2,67,-1
 294 0 l 1,68,-1
 199 0 l 1,69,-1
 199 1001 l 2,70,71
 199 1102 199 1102 232 1182.5 c 128,-1,72
 265 1263 265 1263 323.5 1318.5 c 128,-1,73
 382 1374 382 1374 463.5 1403.5 c 128,-1,74
 545 1433 545 1433 641 1433 c 0,0,1
EndSplineSet
EndChar

StartChar: ae
Encoding: 230 230 168
Width: 1609
Flags: W
LayerCount: 2
Fore
SplineSet
1159 1011 m 0,0,1
 1234 1011 1234 1011 1299 981 c 128,-1,2
 1364 951 1364 951 1412 893.5 c 128,-1,3
 1460 836 1460 836 1487.5 751 c 128,-1,4
 1515 666 1515 666 1515 555 c 0,5,6
 1515 533 1515 533 1510 525 c 128,-1,7
 1505 517 1505 517 1491 517 c 2,8,-1
 831 517 l 1,9,10
 831 405 831 405 855 320 c 128,-1,11
 879 235 879 235 923 178 c 128,-1,12
 967 121 967 121 1029 92 c 128,-1,13
 1091 63 1091 63 1167 63 c 0,14,15
 1238 63 1238 63 1288 79.5 c 128,-1,16
 1338 96 1338 96 1372 115.5 c 128,-1,17
 1406 135 1406 135 1425 151.5 c 128,-1,18
 1444 168 1444 168 1454 168 c 0,19,20
 1468 168 1468 168 1476 158 c 2,21,-1
 1500 128 l 1,22,23
 1477 98 1477 98 1440 72 c 128,-1,24
 1403 46 1403 46 1358 27.5 c 128,-1,25
 1313 9 1313 9 1262.5 -2 c 128,-1,26
 1212 -13 1212 -13 1160 -13 c 0,27,28
 1029 -13 1029 -13 934.5 56 c 128,-1,29
 840 125 840 125 793 262 c 1,30,31
 773 185 773 185 730.5 132 c 128,-1,32
 688 79 688 79 634 46 c 128,-1,33
 580 13 580 13 519.5 -1.5 c 128,-1,34
 459 -16 459 -16 404 -16 c 0,35,36
 341 -16 341 -16 287 -0.5 c 128,-1,37
 233 15 233 15 193 48 c 128,-1,38
 153 81 153 81 130 133 c 128,-1,39
 107 185 107 185 107 258 c 0,40,41
 107 322 107 322 143 378.5 c 128,-1,42
 179 435 179 435 255.5 478 c 128,-1,43
 332 521 332 521 452.5 548 c 128,-1,44
 573 575 573 575 742 579 c 1,45,-1
 742 648 l 2,46,47
 742 786 742 786 682.5 861.5 c 128,-1,48
 623 937 623 937 506 937 c 0,49,50
 434 937 434 937 383.5 916.5 c 128,-1,51
 333 896 333 896 298 872 c 128,-1,52
 263 848 263 848 241 827.5 c 128,-1,53
 219 807 219 807 204 807 c 0,54,55
 193 807 193 807 186 812 c 128,-1,56
 179 817 179 817 174 825 c 2,57,-1
 157 854 l 1,58,59
 234 932 234 932 317.5 972 c 128,-1,60
 401 1012 401 1012 508 1012 c 0,61,62
 634 1012 634 1012 706 947.5 c 128,-1,63
 778 883 778 883 801 771 c 1,64,65
 848 882 848 882 938 946.5 c 128,-1,66
 1028 1011 1028 1011 1159 1011 c 0,0,1
742 515 m 1,67,68
 600 510 600 510 497.5 490 c 128,-1,69
 395 470 395 470 328.5 437 c 128,-1,70
 262 404 262 404 230.5 359.5 c 128,-1,71
 199 315 199 315 199 262 c 0,72,73
 199 206 199 206 215.5 166.5 c 128,-1,74
 232 127 232 127 262 102 c 128,-1,75
 292 77 292 77 333 65 c 128,-1,76
 374 53 374 53 423 53 c 0,77,78
 489 53 489 53 547 75 c 128,-1,79
 605 97 605 97 648.5 139.5 c 128,-1,80
 692 182 692 182 717 244 c 128,-1,81
 742 306 742 306 742 385 c 2,82,-1
 742 515 l 1,67,68
1157 940 m 0,83,84
 1085 940 1085 940 1027.5 914 c 128,-1,85
 970 888 970 888 929 841 c 128,-1,86
 888 794 888 794 863.5 727 c 128,-1,87
 839 660 839 660 833 578 c 1,88,-1
 1431 578 l 1,89,90
 1431 663 1431 663 1411 730.5 c 128,-1,91
 1391 798 1391 798 1355 844.5 c 128,-1,92
 1319 891 1319 891 1268.5 915.5 c 128,-1,93
 1218 940 1218 940 1157 940 c 0,83,84
EndSplineSet
EndChar

StartChar: ccedilla
Encoding: 231 231 169
Width: 910
Flags: W
LayerCount: 2
Fore
SplineSet
393 -273 m 0,0,1
 398 -273 398 -273 406.5 -278.5 c 128,-1,2
 415 -284 415 -284 428.5 -290.5 c 128,-1,3
 442 -297 442 -297 462 -302.5 c 128,-1,4
 482 -308 482 -308 511 -308 c 0,5,6
 562 -308 562 -308 590.5 -286 c 128,-1,7
 619 -264 619 -264 619 -226 c 0,8,9
 619 -201 619 -201 606 -184.5 c 128,-1,10
 593 -168 593 -168 569 -157 c 128,-1,11
 545 -146 545 -146 512.5 -140 c 128,-1,12
 480 -134 480 -134 441 -129 c 1,13,-1
 478 -11 l 1,14,15
 391 -5 391 -5 319 32.5 c 128,-1,16
 247 70 247 70 195.5 135 c 128,-1,17
 144 200 144 200 116 291.5 c 128,-1,18
 88 383 88 383 88 498 c 0,19,20
 88 612 88 612 118 706 c 128,-1,21
 148 800 148 800 205.5 868 c 128,-1,22
 263 936 263 936 346.5 973.5 c 128,-1,23
 430 1011 430 1011 538 1011 c 0,24,25
 635 1011 635 1011 710.5 980 c 128,-1,26
 786 949 786 949 842 896 c 1,27,-1
 817 862 l 2,28,29
 812 857 812 857 807.5 853.5 c 128,-1,30
 803 850 803 850 795 850 c 0,31,32
 785 850 785 850 767.5 863.5 c 128,-1,33
 750 877 750 877 721 893 c 128,-1,34
 692 909 692 909 648.5 922.5 c 128,-1,35
 605 936 605 936 543 936 c 0,36,37
 457 936 457 936 390.5 905.5 c 128,-1,38
 324 875 324 875 278.5 818 c 128,-1,39
 233 761 233 761 209 680 c 128,-1,40
 185 599 185 599 185 498 c 0,41,42
 185 393 185 393 209.5 312 c 128,-1,43
 234 231 234 231 279 175.5 c 128,-1,44
 324 120 324 120 388 91 c 128,-1,45
 452 62 452 62 530 62 c 0,46,47
 602 62 602 62 650.5 79 c 128,-1,48
 699 96 699 96 730.5 116 c 128,-1,49
 762 136 762 136 780.5 153 c 128,-1,50
 799 170 799 170 810 170 c 0,51,52
 823 170 823 170 830 160 c 2,53,-1
 856 128 l 1,54,55
 811 70 811 70 727.5 31 c 128,-1,56
 644 -8 644 -8 538 -12 c 1,57,-1
 514 -91 l 1,58,59
 603 -107 603 -107 649.5 -137 c 128,-1,60
 696 -167 696 -167 696 -226 c 0,61,62
 696 -256 696 -256 682.5 -280 c 128,-1,63
 669 -304 669 -304 644.5 -320.5 c 128,-1,64
 620 -337 620 -337 586 -346 c 128,-1,65
 552 -355 552 -355 512 -355 c 0,66,67
 471 -355 471 -355 432 -343.5 c 128,-1,68
 393 -332 393 -332 367 -313 c 1,69,-1
 377 -285 l 2,70,71
 383 -273 383 -273 393 -273 c 0,0,1
EndSplineSet
EndChar

StartChar: eth
Encoding: 240 240 178
Width: 1072
Flags: W
LayerCount: 2
Fore
SplineSet
454 1070 m 2,0,1
 447 1078 447 1078 447 1088 c 256,2,3
 447 1098 447 1098 459 1109 c 2,4,-1
 585 1218 l 1,5,6
 525 1251 525 1251 458.5 1274.5 c 128,-1,7
 392 1298 392 1298 318 1313 c 0,8,9
 308 1315 308 1315 300 1322.5 c 128,-1,10
 292 1330 292 1330 292 1344 c 0,11,12
 292 1347 292 1347 294.5 1357.5 c 128,-1,13
 297 1368 297 1368 299 1372 c 2,14,-1
 305 1392 l 1,15,16
 395 1378 395 1378 482.5 1348 c 128,-1,17
 570 1318 570 1318 648 1270 c 1,18,-1
 801 1405 l 1,19,-1
 819 1376 l 2,20,21
 824 1368 824 1368 824 1360 c 0,22,23
 824 1349 824 1349 811 1337 c 2,24,-1
 697 1237 l 1,25,26
 760 1190 760 1190 812.5 1129 c 128,-1,27
 865 1068 865 1068 903.5 989 c 128,-1,28
 942 910 942 910 963 813 c 128,-1,29
 984 716 984 716 984 599 c 0,30,31
 984 461 984 461 955.5 348.5 c 128,-1,32
 927 236 927 236 870 155.5 c 128,-1,33
 813 75 813 75 727 31.5 c 128,-1,34
 641 -12 641 -12 526 -12 c 0,35,36
 435 -12 435 -12 355.5 20.5 c 128,-1,37
 276 53 276 53 216.5 113.5 c 128,-1,38
 157 174 157 174 123 260.5 c 128,-1,39
 89 347 89 347 89 455 c 0,40,41
 89 551 89 551 118 636 c 128,-1,42
 147 721 147 721 202.5 784.5 c 128,-1,43
 258 848 258 848 339 884.5 c 128,-1,44
 420 921 420 921 523 921 c 0,45,46
 576 921 576 921 629.5 907.5 c 128,-1,47
 683 894 683 894 732.5 865.5 c 128,-1,48
 782 837 782 837 825 793 c 128,-1,49
 868 749 868 749 900 689 c 1,50,51
 885 870 885 870 815 991 c 128,-1,52
 745 1112 745 1112 635 1187 c 1,53,-1
 471 1042 l 1,54,-1
 454 1070 l 2,0,1
528 63 m 0,55,56
 616 63 616 63 683 97.5 c 128,-1,57
 750 132 750 132 796 196.5 c 128,-1,58
 842 261 842 261 867 354 c 128,-1,59
 892 447 892 447 895 563 c 1,60,61
 880 614 880 614 850.5 665 c 128,-1,62
 821 716 821 716 777 756 c 128,-1,63
 733 796 733 796 674 821 c 128,-1,64
 615 846 615 846 539 846 c 0,65,66
 451 846 451 846 384.5 816 c 128,-1,67
 318 786 318 786 273.5 733 c 128,-1,68
 229 680 229 680 206.5 608.5 c 128,-1,69
 184 537 184 537 184 455 c 0,70,71
 184 362 184 362 211.5 289 c 128,-1,72
 239 216 239 216 286.5 166 c 128,-1,73
 334 116 334 116 396.5 89.5 c 128,-1,74
 459 63 459 63 528 63 c 0,55,56
EndSplineSet
EndChar

StartChar: divide
Encoding: 247 247 185
Width: 1160
Flags: W
LayerCount: 2
Fore
SplineSet
109 707 m 1,0,-1
 1048 707 l 1,1,-1
 1048 634 l 1,2,-1
 109 634 l 1,3,-1
 109 707 l 1,0,-1
486 1025 m 256,4,5
 486 1064 486 1064 512.5 1091.5 c 128,-1,6
 539 1119 539 1119 578 1119 c 0,7,8
 597 1119 597 1119 614 1111.5 c 128,-1,9
 631 1104 631 1104 643.5 1091.5 c 128,-1,10
 656 1079 656 1079 663.5 1061.5 c 128,-1,11
 671 1044 671 1044 671 1025 c 0,12,13
 671 1005 671 1005 663.5 988.5 c 128,-1,14
 656 972 656 972 643.5 959.5 c 128,-1,15
 631 947 631 947 614 940 c 128,-1,16
 597 933 597 933 578 933 c 0,17,18
 539 933 539 933 512.5 959.5 c 128,-1,19
 486 986 486 986 486 1025 c 256,4,5
486 313 m 256,20,21
 486 352 486 352 512.5 379.5 c 128,-1,22
 539 407 539 407 578 407 c 0,23,24
 597 407 597 407 614 399.5 c 128,-1,25
 631 392 631 392 643.5 379.5 c 128,-1,26
 656 367 656 367 663.5 349.5 c 128,-1,27
 671 332 671 332 671 313 c 0,28,29
 671 293 671 293 663.5 276.5 c 128,-1,30
 656 260 656 260 643.5 247.5 c 128,-1,31
 631 235 631 235 614 228 c 128,-1,32
 597 221 597 221 578 221 c 0,33,34
 539 221 539 221 512.5 247.5 c 128,-1,35
 486 274 486 274 486 313 c 256,20,21
EndSplineSet
EndChar

StartChar: oslash
Encoding: 248 248 186
Width: 1082
Flags: W
LayerCount: 2
Fore
SplineSet
872 873 m 1,0,1
 932 806 932 806 963 711 c 128,-1,2
 994 616 994 616 994 498 c 0,3,4
 994 381 994 381 963.5 287 c 128,-1,5
 933 193 933 193 875 126 c 128,-1,6
 817 59 817 59 732.5 23 c 128,-1,7
 648 -13 648 -13 541 -13 c 0,8,9
 380 -13 380 -13 272 66 c 1,10,-1
 191 -43 l 2,11,12
 178 -60 178 -60 161.5 -67.5 c 128,-1,13
 145 -75 145 -75 128 -75 c 2,14,-1
 90 -75 l 1,15,-1
 225 106 l 1,16,17
 157 173 157 173 122 272 c 128,-1,18
 87 371 87 371 87 498 c 0,19,20
 87 615 87 615 117.5 709.5 c 128,-1,21
 148 804 148 804 206.5 871 c 128,-1,22
 265 938 265 938 349.5 974.5 c 128,-1,23
 434 1011 434 1011 541 1011 c 0,24,25
 629 1011 629 1011 700.5 986.5 c 128,-1,26
 772 962 772 962 827 917 c 1,27,-1
 914 1033 l 2,28,29
 925 1048 925 1048 934.5 1055 c 128,-1,30
 944 1062 944 1062 963 1062 c 2,31,-1
 1013 1062 l 1,32,-1
 872 873 l 1,0,1
180 498 m 0,33,34
 180 394 180 394 203.5 312 c 128,-1,35
 227 230 227 230 275 173 c 1,36,-1
 779 852 l 1,37,38
 734 894 734 894 675 916 c 128,-1,39
 616 938 616 938 541 938 c 0,40,41
 452 938 452 938 384.5 906.5 c 128,-1,42
 317 875 317 875 271.5 817.5 c 128,-1,43
 226 760 226 760 203 678.5 c 128,-1,44
 180 597 180 597 180 498 c 0,33,34
541 60 m 0,45,46
 630 60 630 60 697.5 91 c 128,-1,47
 765 122 765 122 810 179 c 128,-1,48
 855 236 855 236 878 317 c 128,-1,49
 901 398 901 398 901 498 c 0,50,51
 901 689 901 689 821 804 c 1,52,-1
 319 129 l 1,53,54
 406 60 406 60 541 60 c 0,45,46
EndSplineSet
EndChar

StartChar: thorn
Encoding: 254 254 192
Width: 1070
Flags: W
LayerCount: 2
Fore
SplineSet
162 -352 m 1,0,-1
 162 1455 l 1,1,-1
 257 1455 l 1,2,-1
 257 820 l 1,3,4
 323 908 323 908 410 959.5 c 128,-1,5
 497 1011 497 1011 606 1011 c 0,6,7
 790 1011 790 1011 892 884.5 c 128,-1,8
 994 758 994 758 994 504 c 0,9,10
 994 395 994 395 965.5 300.5 c 128,-1,11
 937 206 937 206 882 136.5 c 128,-1,12
 827 67 827 67 746.5 27 c 128,-1,13
 666 -13 666 -13 561 -13 c 0,14,15
 459 -13 459 -13 385 26 c 128,-1,16
 311 65 311 65 257 141 c 1,17,-1
 257 -352 l 1,18,-1
 162 -352 l 1,0,-1
579 935 m 0,19,20
 480 935 480 935 399.5 883.5 c 128,-1,21
 319 832 319 832 257 740 c 1,22,-1
 257 218 l 1,23,24
 314 132 314 132 383.5 97 c 128,-1,25
 453 62 453 62 542 62 c 0,26,27
 630 62 630 62 696 94 c 128,-1,28
 762 126 762 126 806.5 184.5 c 128,-1,29
 851 243 851 243 873.5 324.5 c 128,-1,30
 896 406 896 406 896 504 c 0,31,32
 896 726 896 726 814.5 830.5 c 128,-1,33
 733 935 733 935 579 935 c 0,19,20
EndSplineSet
EndChar

StartChar: Aogonek
Encoding: 260 260 194
Width: 1289
Flags: W
LayerCount: 2
Fore
SplineSet
1350 -243 m 0,0,1
 1360 -243 1360 -243 1363 -251 c 2,2,-1
 1379 -285 l 1,3,4
 1351 -309 1351 -309 1309 -323.5 c 128,-1,5
 1267 -338 1267 -338 1220 -338 c 0,6,7
 1144 -338 1144 -338 1097 -300.5 c 128,-1,8
 1050 -263 1050 -263 1050 -197 c 0,9,10
 1050 -166 1050 -166 1061.5 -137.5 c 128,-1,11
 1073 -109 1073 -109 1092.5 -84 c 128,-1,12
 1112 -59 1112 -59 1136.5 -38 c 128,-1,13
 1161 -17 1161 -17 1187 0 c 1,14,15
 1167 4 1167 4 1159 27 c 2,16,-1
 992 438 l 1,17,-1
 297 438 l 1,18,-1
 131 27 l 2,19,20
 127 16 127 16 117 8 c 128,-1,21
 107 0 107 0 93 0 c 2,22,-1
 15 0 l 1,23,-1
 594 1415 l 1,24,-1
 696 1415 l 1,25,-1
 1275 0 l 1,26,27
 1263 0 1263 0 1238 -12.5 c 128,-1,28
 1213 -25 1213 -25 1187.5 -48.5 c 128,-1,29
 1162 -72 1162 -72 1143 -104.5 c 128,-1,30
 1124 -137 1124 -137 1124 -176 c 0,31,32
 1124 -224 1124 -224 1156 -250.5 c 128,-1,33
 1188 -277 1188 -277 1238 -277 c 0,34,35
 1266 -277 1266 -277 1285 -271.5 c 128,-1,36
 1304 -266 1304 -266 1317 -260 c 128,-1,37
 1330 -254 1330 -254 1337.5 -248.5 c 128,-1,38
 1345 -243 1345 -243 1350 -243 c 0,0,1
328 514 m 1,39,-1
 962 514 l 1,40,-1
 673 1229 l 2,41,42
 666 1246 666 1246 659 1267.5 c 128,-1,43
 652 1289 652 1289 645 1313 c 1,44,45
 638 1289 638 1289 631 1267.5 c 128,-1,46
 624 1246 624 1246 617 1228 c 2,47,-1
 328 514 l 1,39,-1
EndSplineSet
EndChar

StartChar: aogonek
Encoding: 261 261 195
Width: 973
Flags: W
LayerCount: 2
Fore
SplineSet
928 -243 m 0,0,1
 938 -243 938 -243 941 -251 c 2,2,-1
 957 -285 l 1,3,4
 929 -309 929 -309 887 -323.5 c 128,-1,5
 845 -338 845 -338 798 -338 c 0,6,7
 722 -338 722 -338 675 -300.5 c 128,-1,8
 628 -263 628 -263 628 -197 c 0,9,10
 628 -165 628 -165 640.5 -135.5 c 128,-1,11
 653 -106 653 -106 673.5 -80.5 c 128,-1,12
 694 -55 694 -55 720 -33.5 c 128,-1,13
 746 -12 746 -12 773 5 c 1,14,15
 763 14 763 14 760 28 c 2,16,-1
 746 155 l 1,17,18
 705 115 705 115 664.5 83 c 128,-1,19
 624 51 624 51 580 29 c 128,-1,20
 536 7 536 7 485 -4.5 c 128,-1,21
 434 -16 434 -16 373 -16 c 0,22,23
 322 -16 322 -16 274 -1 c 128,-1,24
 226 14 226 14 189 45 c 128,-1,25
 152 76 152 76 129.5 124.5 c 128,-1,26
 107 173 107 173 107 241 c 0,27,28
 107 304 107 304 143 358 c 128,-1,29
 179 412 179 412 255.5 452 c 128,-1,30
 332 492 332 492 452.5 516 c 128,-1,31
 573 540 573 540 742 544 c 1,32,-1
 742 648 l 2,33,34
 742 786 742 786 682.5 860.5 c 128,-1,35
 623 935 623 935 506 935 c 0,36,37
 434 935 434 935 383.5 915 c 128,-1,38
 333 895 333 895 298 871 c 128,-1,39
 263 847 263 847 241 827 c 128,-1,40
 219 807 219 807 204 807 c 0,41,42
 193 807 193 807 186 812 c 128,-1,43
 179 817 179 817 174 825 c 2,44,-1
 157 854 l 1,45,46
 235 932 235 932 321 972 c 128,-1,47
 407 1012 407 1012 516 1012 c 0,48,49
 596 1012 596 1012 656 986.5 c 128,-1,50
 716 961 716 961 755.5 913.5 c 128,-1,51
 795 866 795 866 815 798.5 c 128,-1,52
 835 731 835 731 835 648 c 2,53,-1
 835 0 l 1,54,55
 815 -11 815 -11 792 -28 c 128,-1,56
 769 -45 769 -45 749 -67.5 c 128,-1,57
 729 -90 729 -90 715.5 -117.5 c 128,-1,58
 702 -145 702 -145 702 -176 c 0,59,60
 702 -224 702 -224 734 -250.5 c 128,-1,61
 766 -277 766 -277 816 -277 c 0,62,63
 844 -277 844 -277 863 -271.5 c 128,-1,64
 882 -266 882 -266 895 -260 c 128,-1,65
 908 -254 908 -254 915.5 -248.5 c 128,-1,66
 923 -243 923 -243 928 -243 c 0,0,1
397 53 m 0,67,68
 455 53 455 53 503.5 65.5 c 128,-1,69
 552 78 552 78 593.5 100.5 c 128,-1,70
 635 123 635 123 671 154 c 128,-1,71
 707 185 707 185 742 221 c 1,72,-1
 742 480 l 1,73,74
 600 476 600 476 497.5 458.5 c 128,-1,75
 395 441 395 441 328.5 411 c 128,-1,76
 262 381 262 381 230.5 339.5 c 128,-1,77
 199 298 199 298 199 245 c 0,78,79
 199 195 199 195 215.5 158.5 c 128,-1,80
 232 122 232 122 259 98.5 c 128,-1,81
 286 75 286 75 322 64 c 128,-1,82
 358 53 358 53 397 53 c 0,67,68
EndSplineSet
EndChar

StartChar: Eogonek
Encoding: 280 280 198
Width: 1224
Flags: W
LayerCount: 2
Fore
SplineSet
1060 -243 m 0,0,1
 1070 -243 1070 -243 1073 -251 c 2,2,-1
 1089 -285 l 1,3,4
 1061 -309 1061 -309 1019 -323.5 c 128,-1,5
 977 -338 977 -338 930 -338 c 0,6,7
 854 -338 854 -338 807 -300.5 c 128,-1,8
 760 -263 760 -263 760 -197 c 0,9,10
 760 -166 760 -166 771.5 -138 c 128,-1,11
 783 -110 783 -110 802 -85 c 128,-1,12
 821 -60 821 -60 845.5 -38.5 c 128,-1,13
 870 -17 870 -17 896 0 c 1,14,-1
 210 0 l 1,15,-1
 210 1415 l 1,16,-1
 1058 1415 l 1,17,-1
 1058 1330 l 1,18,-1
 313 1330 l 1,19,-1
 313 758 l 1,20,-1
 933 758 l 1,21,-1
 933 675 l 1,22,-1
 313 675 l 1,23,-1
 313 85 l 1,24,-1
 1058 85 l 1,25,-1
 1058 0 l 1,26,-1
 967 0 l 1,27,28
 947 -11 947 -11 924 -28 c 128,-1,29
 901 -45 901 -45 881 -67.5 c 128,-1,30
 861 -90 861 -90 847.5 -117.5 c 128,-1,31
 834 -145 834 -145 834 -176 c 0,32,33
 834 -224 834 -224 866 -250.5 c 128,-1,34
 898 -277 898 -277 948 -277 c 0,35,36
 976 -277 976 -277 995 -271.5 c 128,-1,37
 1014 -266 1014 -266 1027 -260 c 128,-1,38
 1040 -254 1040 -254 1047.5 -248.5 c 128,-1,39
 1055 -243 1055 -243 1060 -243 c 0,0,1
EndSplineSet
EndChar

StartChar: eogonek
Encoding: 281 281 199
Width: 1022
Flags: W
LayerCount: 2
Fore
SplineSet
745 -243 m 0,0,1
 755 -243 755 -243 758 -251 c 2,2,-1
 774 -285 l 1,3,4
 746 -309 746 -309 704 -323.5 c 128,-1,5
 662 -338 662 -338 615 -338 c 0,6,7
 539 -338 539 -338 492 -300.5 c 128,-1,8
 445 -263 445 -263 445 -197 c 0,9,10
 445 -169 445 -169 454.5 -143 c 128,-1,11
 464 -117 464 -117 480.5 -93.5 c 128,-1,12
 497 -70 497 -70 518.5 -49.5 c 128,-1,13
 540 -29 540 -29 563 -12 c 1,14,15
 558 -12 558 -12 553 -12.5 c 128,-1,16
 548 -13 548 -13 543 -13 c 0,17,18
 441 -13 441 -13 357 22.5 c 128,-1,19
 273 58 273 58 213 126 c 128,-1,20
 153 194 153 194 120.5 292.5 c 128,-1,21
 88 391 88 391 88 518 c 0,22,23
 88 625 88 625 118.5 715.5 c 128,-1,24
 149 806 149 806 206.5 871.5 c 128,-1,25
 264 937 264 937 347.5 974 c 128,-1,26
 431 1011 431 1011 537 1011 c 0,27,28
 621 1011 621 1011 692.5 982 c 128,-1,29
 764 953 764 953 816.5 897.5 c 128,-1,30
 869 842 869 842 898.5 761 c 128,-1,31
 928 680 928 680 928 575 c 0,32,33
 928 553 928 553 921.5 545 c 128,-1,34
 915 537 915 537 901 537 c 2,35,-1
 182 537 l 1,36,-1
 182 518 l 2,37,38
 182 406 182 406 208 321 c 128,-1,39
 234 236 234 236 282 178.5 c 128,-1,40
 330 121 330 121 398 92 c 128,-1,41
 466 63 466 63 550 63 c 0,42,43
 625 63 625 63 680 79.5 c 128,-1,44
 735 96 735 96 772.5 116.5 c 128,-1,45
 810 137 810 137 832 153.5 c 128,-1,46
 854 170 854 170 864 170 c 0,47,48
 877 170 877 170 884 160 c 2,49,-1
 910 128 l 1,50,51
 891 105 891 105 863.5 84 c 128,-1,52
 836 63 836 63 801.5 46 c 128,-1,53
 767 29 767 29 727 16.5 c 128,-1,54
 687 4 687 4 645 -3 c 1,55,56
 625 -15 625 -15 603 -32 c 128,-1,57
 581 -49 581 -49 562 -71 c 128,-1,58
 543 -93 543 -93 531 -119.5 c 128,-1,59
 519 -146 519 -146 519 -176 c 0,60,61
 519 -224 519 -224 551 -250.5 c 128,-1,62
 583 -277 583 -277 633 -277 c 0,63,64
 661 -277 661 -277 680 -271.5 c 128,-1,65
 699 -266 699 -266 712 -260 c 128,-1,66
 725 -254 725 -254 732.5 -248.5 c 128,-1,67
 740 -243 740 -243 745 -243 c 0,0,1
538 940 m 0,68,69
 461 940 461 940 400 916 c 128,-1,70
 339 892 339 892 294.5 847 c 128,-1,71
 250 802 250 802 222.5 739 c 128,-1,72
 195 676 195 676 186 598 c 1,73,-1
 842 598 l 1,74,75
 842 678 842 678 820 741.5 c 128,-1,76
 798 805 798 805 758 849 c 128,-1,77
 718 893 718 893 662 916.5 c 128,-1,78
 606 940 606 940 538 940 c 0,68,69
EndSplineSet
EndChar

StartChar: dotlessi
Encoding: 305 305 200
Width: 475
Flags: W
LayerCount: 2
Fore
SplineSet
285 995 m 1,0,-1
 285 0 l 1,1,-1
 190 0 l 1,2,-1
 190 995 l 1,3,-1
 285 995 l 1,0,-1
EndSplineSet
EndChar

StartChar: Lslash
Encoding: 321 321 201
Width: 1066
Flags: W
LayerCount: 2
Fore
SplineSet
355 722 m 1,0,-1
 772 939 l 1,1,-1
 772 876 l 2,2,3
 772 865 772 865 768 858 c 128,-1,4
 764 851 764 851 753 845 c 2,5,-1
 355 633 l 1,6,-1
 355 87 l 1,7,-1
 1026 87 l 1,8,-1
 1026 0 l 1,9,-1
 253 0 l 1,10,-1
 253 587 l 1,11,-1
 58 486 l 1,12,-1
 58 552 l 2,13,14
 58 571 58 571 76 581 c 2,15,-1
 253 674 l 1,16,-1
 253 1415 l 1,17,-1
 355 1415 l 1,18,-1
 355 722 l 1,0,-1
EndSplineSet
EndChar

StartChar: lslash
Encoding: 322 322 202
Width: 600
Flags: W
LayerCount: 2
Fore
SplineSet
347 1455 m 1,0,-1
 347 862 l 1,1,-1
 543 951 l 1,2,-1
 543 901 l 2,3,4
 543 890 543 890 539 882.5 c 128,-1,5
 535 875 535 875 524 870 c 2,6,-1
 347 786 l 1,7,-1
 347 0 l 1,8,-1
 252 0 l 1,9,-1
 252 750 l 1,10,-1
 57 660 l 1,11,-1
 57 712 l 2,12,13
 57 733 57 733 75 741 c 2,14,-1
 252 825 l 1,15,-1
 252 1455 l 1,16,-1
 347 1455 l 1,0,-1
EndSplineSet
EndChar

StartChar: OE
Encoding: 338 338 205
Width: 2227
Flags: W
LayerCount: 2
Fore
SplineSet
2103 1330 m 1,0,-1
 1358 1330 l 1,1,-1
 1358 758 l 1,2,-1
 1978 758 l 1,3,-1
 1978 675 l 1,4,-1
 1358 675 l 1,5,-1
 1358 85 l 1,6,-1
 2103 85 l 1,7,-1
 2103 0 l 1,8,-1
 1266 0 l 1,9,-1
 1266 334 l 1,10,11
 1229 252 1229 252 1175.5 187.5 c 128,-1,12
 1122 123 1122 123 1054 78.5 c 128,-1,13
 986 34 986 34 904.5 10.5 c 128,-1,14
 823 -13 823 -13 730 -13 c 0,15,16
 595 -13 595 -13 483.5 38 c 128,-1,17
 372 89 372 89 292 183.5 c 128,-1,18
 212 278 212 278 167.5 411 c 128,-1,19
 123 544 123 544 123 708 c 0,20,21
 123 871 123 871 167.5 1004.5 c 128,-1,22
 212 1138 212 1138 292 1232.5 c 128,-1,23
 372 1327 372 1327 483.5 1379 c 128,-1,24
 595 1431 595 1431 730 1431 c 0,25,26
 823 1431 823 1431 904.5 1407 c 128,-1,27
 986 1383 986 1383 1054 1338 c 128,-1,28
 1122 1293 1122 1293 1175.5 1228.5 c 128,-1,29
 1229 1164 1229 1164 1266 1082 c 1,30,-1
 1266 1415 l 1,31,-1
 2103 1415 l 1,32,-1
 2103 1330 l 1,0,-1
1255 708 m 0,33,34
 1255 856 1255 856 1218 974 c 128,-1,35
 1181 1092 1181 1092 1113.5 1174.5 c 128,-1,36
 1046 1257 1046 1257 951.5 1301 c 128,-1,37
 857 1345 857 1345 742 1345 c 0,38,39
 628 1345 628 1345 533 1301 c 128,-1,40
 438 1257 438 1257 370.5 1174.5 c 128,-1,41
 303 1092 303 1092 265.5 974 c 128,-1,42
 228 856 228 856 228 708 c 0,43,44
 228 559 228 559 265.5 441 c 128,-1,45
 303 323 303 323 370.5 241.5 c 128,-1,46
 438 160 438 160 533 116.5 c 128,-1,47
 628 73 628 73 742 73 c 0,48,49
 857 73 857 73 951.5 116.5 c 128,-1,50
 1046 160 1046 160 1113.5 241.5 c 128,-1,51
 1181 323 1181 323 1218 441 c 128,-1,52
 1255 559 1255 559 1255 708 c 0,33,34
EndSplineSet
EndChar

StartChar: oe
Encoding: 339 339 206
Width: 1717
Flags: W
LayerCount: 2
Fore
SplineSet
1266 1011 m 0,0,1
 1341 1011 1341 1011 1406.5 981 c 128,-1,2
 1472 951 1472 951 1520 893.5 c 128,-1,3
 1568 836 1568 836 1595.5 751 c 128,-1,4
 1623 666 1623 666 1623 555 c 0,5,6
 1623 533 1623 533 1617.5 525 c 128,-1,7
 1612 517 1612 517 1598 517 c 2,8,-1
 938 517 l 1,9,10
 938 405 938 405 962 320 c 128,-1,11
 986 235 986 235 1030.5 178 c 128,-1,12
 1075 121 1075 121 1137 92 c 128,-1,13
 1199 63 1199 63 1275 63 c 0,14,15
 1342 63 1342 63 1391.5 79.5 c 128,-1,16
 1441 96 1441 96 1475.5 116.5 c 128,-1,17
 1510 137 1510 137 1530.5 153.5 c 128,-1,18
 1551 170 1551 170 1562 170 c 0,19,20
 1574 170 1574 170 1581 160 c 2,21,-1
 1607 128 l 1,22,23
 1584 98 1584 98 1547 72 c 128,-1,24
 1510 46 1510 46 1465 27.5 c 128,-1,25
 1420 9 1420 9 1369.5 -2 c 128,-1,26
 1319 -13 1319 -13 1267 -13 c 0,27,28
 1132 -13 1132 -13 1035 61.5 c 128,-1,29
 938 136 938 136 894 282 c 1,30,31
 852 143 852 143 754 65 c 128,-1,32
 656 -13 656 -13 508 -13 c 0,33,34
 410 -13 410 -13 332 23 c 128,-1,35
 254 59 254 59 199.5 126 c 128,-1,36
 145 193 145 193 116 287 c 128,-1,37
 87 381 87 381 87 498 c 256,38,39
 87 615 87 615 116 709.5 c 128,-1,40
 145 804 145 804 199.5 871 c 128,-1,41
 254 938 254 938 333 974.5 c 128,-1,42
 412 1011 412 1011 511 1011 c 0,43,44
 655 1011 655 1011 752 934 c 128,-1,45
 849 857 849 857 891 722 c 1,46,47
 911 788 911 788 945.5 841 c 128,-1,48
 980 894 980 894 1027 932 c 128,-1,49
 1074 970 1074 970 1134 990.5 c 128,-1,50
 1194 1011 1194 1011 1266 1011 c 0,0,1
516 62 m 0,51,52
 598 62 598 62 659.5 92.5 c 128,-1,53
 721 123 721 123 762 180 c 128,-1,54
 803 237 803 237 823.5 317.5 c 128,-1,55
 844 398 844 398 844 498 c 0,56,57
 844 597 844 597 823.5 678 c 128,-1,58
 803 759 803 759 762 816.5 c 128,-1,59
 721 874 721 874 659.5 905 c 128,-1,60
 598 936 598 936 516 936 c 0,61,62
 433 936 433 936 371 905 c 128,-1,63
 309 874 309 874 267.5 816.5 c 128,-1,64
 226 759 226 759 205.5 678 c 128,-1,65
 185 597 185 597 185 498 c 0,66,67
 185 398 185 398 205.5 317.5 c 128,-1,68
 226 237 226 237 267.5 180 c 128,-1,69
 309 123 309 123 371 92.5 c 128,-1,70
 433 62 433 62 516 62 c 0,51,52
1264 940 m 0,71,72
 1192 940 1192 940 1134.5 914 c 128,-1,73
 1077 888 1077 888 1036 841 c 128,-1,74
 995 794 995 794 970.5 727 c 128,-1,75
 946 660 946 660 940 578 c 1,76,-1
 1539 578 l 1,77,78
 1539 663 1539 663 1519 730.5 c 128,-1,79
 1499 798 1499 798 1462.5 844.5 c 128,-1,80
 1426 891 1426 891 1375.5 915.5 c 128,-1,81
 1325 940 1325 940 1264 940 c 0,71,72
EndSplineSet
EndChar

StartChar: florin
Encoding: 402 402 218
Width: 1160
Flags: W
LayerCount: 2
Fore
SplineSet
635 797 m 1,0,-1
 539 13 l 2,1,2
 527 -85 527 -85 493 -155 c 128,-1,3
 459 -225 459 -225 405 -271 c 128,-1,4
 351 -317 351 -317 278.5 -338.5 c 128,-1,5
 206 -360 206 -360 118 -360 c 1,6,-1
 118 -312 l 2,7,8
 118 -280 118 -280 154 -280 c 0,9,10
 205 -279 205 -279 253 -263.5 c 128,-1,11
 301 -248 301 -248 340 -213 c 128,-1,12
 379 -178 379 -178 406.5 -122 c 128,-1,13
 434 -66 434 -66 444 16 c 2,14,-1
 539 794 l 1,15,-1
 347 804 l 2,16,17
 321 806 321 806 321 829 c 2,18,-1
 321 868 l 1,19,-1
 548 868 l 1,20,-1
 572 1059 l 2,21,22
 595 1251 595 1251 703 1342 c 128,-1,23
 811 1433 811 1433 993 1433 c 1,24,-1
 993 1382 l 2,25,26
 993 1352 993 1352 957 1352 c 0,27,28
 904 1352 904 1352 856 1336.5 c 128,-1,29
 808 1321 808 1321 769 1286 c 128,-1,30
 730 1251 730 1251 702.5 1195 c 128,-1,31
 675 1139 675 1139 665 1057 c 2,32,-1
 640 868 l 1,33,-1
 997 868 l 1,34,-1
 997 797 l 1,35,-1
 635 797 l 1,0,-1
EndSplineSet
EndChar

StartChar: circumflex
Encoding: 710 710 219
Width: 585
Flags: W
LayerCount: 2
Fore
SplineSet
552 1169 m 1,0,-1
 487 1169 l 2,1,2
 471 1169 471 1169 460 1181 c 2,3,-1
 304 1344 l 2,4,5
 298 1348 298 1348 293 1355 c 1,6,7
 291 1351 291 1351 288 1348.5 c 128,-1,8
 285 1346 285 1346 283 1344 c 2,9,-1
 126 1181 l 2,10,11
 121 1176 121 1176 114 1172.5 c 128,-1,12
 107 1169 107 1169 99 1169 c 2,13,-1
 32 1169 l 1,14,-1
 250 1415 l 1,15,-1
 335 1415 l 1,16,-1
 552 1169 l 1,0,-1
EndSplineSet
EndChar

StartChar: caron
Encoding: 65537 -1 220
Width: 585
Flags: W
LayerCount: 2
Fore
SplineSet
32 1415 m 1,0,-1
 99 1415 l 2,1,2
 115 1415 115 1415 126 1404 c 2,3,-1
 282 1241 l 1,4,-1
 293 1228 l 1,5,-1
 304 1241 l 1,6,-1
 460 1404 l 2,7,8
 465 1410 465 1410 472.5 1412.5 c 128,-1,9
 480 1415 480 1415 487 1415 c 2,10,-1
 552 1415 l 1,11,-1
 335 1169 l 1,12,-1
 250 1169 l 1,13,-1
 32 1415 l 1,0,-1
EndSplineSet
EndChar

StartChar: dotaccent
Encoding: 65538 -1 221
Width: 585
Flags: W
LayerCount: 2
Fore
SplineSet
381 1350 m 256,0,1
 381 1332 381 1332 373.5 1316.5 c 128,-1,2
 366 1301 366 1301 354 1289 c 128,-1,3
 342 1277 342 1277 326 1270 c 128,-1,4
 310 1263 310 1263 292 1263 c 256,5,6
 274 1263 274 1263 258 1270 c 128,-1,7
 242 1277 242 1277 230 1289 c 128,-1,8
 218 1301 218 1301 211 1316.5 c 128,-1,9
 204 1332 204 1332 204 1350 c 256,10,11
 204 1368 204 1368 211 1384.5 c 128,-1,12
 218 1401 218 1401 230 1413 c 128,-1,13
 242 1425 242 1425 258 1432 c 128,-1,14
 274 1439 274 1439 292 1439 c 256,15,16
 310 1439 310 1439 326 1432 c 128,-1,17
 342 1425 342 1425 354 1413 c 128,-1,18
 366 1401 366 1401 373.5 1384.5 c 128,-1,19
 381 1368 381 1368 381 1350 c 256,0,1
EndSplineSet
EndChar

StartChar: ring
Encoding: 730 730 222
Width: 585
Flags: W
LayerCount: 2
Fore
SplineSet
120 1302 m 256,0,1
 120 1338 120 1338 133.5 1368 c 128,-1,2
 147 1398 147 1398 170.5 1419.5 c 128,-1,3
 194 1441 194 1441 225.5 1453.5 c 128,-1,4
 257 1466 257 1466 292 1466 c 256,5,6
 327 1466 327 1466 358.5 1453.5 c 128,-1,7
 390 1441 390 1441 413.5 1419.5 c 128,-1,8
 437 1398 437 1398 451 1368 c 128,-1,9
 465 1338 465 1338 465 1302 c 256,10,11
 465 1266 465 1266 451 1236.5 c 128,-1,12
 437 1207 437 1207 413.5 1185 c 128,-1,13
 390 1163 390 1163 358.5 1151 c 128,-1,14
 327 1139 327 1139 292 1139 c 256,15,16
 257 1139 257 1139 225.5 1151 c 128,-1,17
 194 1163 194 1163 170.5 1185 c 128,-1,18
 147 1207 147 1207 133.5 1236.5 c 128,-1,19
 120 1266 120 1266 120 1302 c 256,0,1
178 1302 m 256,20,21
 178 1252 178 1252 210 1220 c 128,-1,22
 242 1188 242 1188 293 1188 c 0,23,24
 343 1188 343 1188 375 1220 c 128,-1,25
 407 1252 407 1252 407 1302 c 256,26,27
 407 1352 407 1352 375 1384 c 128,-1,28
 343 1416 343 1416 293 1416 c 0,29,30
 242 1416 242 1416 210 1384 c 128,-1,31
 178 1352 178 1352 178 1302 c 256,20,21
EndSplineSet
EndChar

StartChar: tilde
Encoding: 732 732 223
Width: 585
Flags: W
LayerCount: 2
Fore
SplineSet
407 1280 m 0,0,1
 450 1280 450 1280 472 1307.5 c 128,-1,2
 494 1335 494 1335 495 1382 c 1,3,-1
 554 1382 l 1,4,5
 554 1346 554 1346 544.5 1314.5 c 128,-1,6
 535 1283 535 1283 516.5 1260 c 128,-1,7
 498 1237 498 1237 471 1224 c 128,-1,8
 444 1211 444 1211 410 1211 c 0,9,10
 377 1211 377 1211 347.5 1227.5 c 128,-1,11
 318 1244 318 1244 291 1263.5 c 128,-1,12
 264 1283 264 1283 238.5 1299.5 c 128,-1,13
 213 1316 213 1316 187 1316 c 0,14,15
 145 1316 145 1316 123 1287.5 c 128,-1,16
 101 1259 101 1259 99 1214 c 1,17,-1
 38 1214 l 1,18,19
 38 1250 38 1250 48 1281.5 c 128,-1,20
 58 1313 58 1313 77 1336 c 128,-1,21
 96 1359 96 1359 123 1372 c 128,-1,22
 150 1385 150 1385 184 1385 c 256,23,24
 218 1385 218 1385 247.5 1368.5 c 128,-1,25
 277 1352 277 1352 303.5 1332.5 c 128,-1,26
 330 1313 330 1313 355.5 1296.5 c 128,-1,27
 381 1280 381 1280 407 1280 c 0,0,1
EndSplineSet
EndChar

StartChar: endash
Encoding: 8211 8211 224
Width: 1082
Flags: W
LayerCount: 2
Fore
SplineSet
147 614 m 1,0,-1
 934 614 l 1,1,-1
 934 543 l 1,2,-1
 147 543 l 1,3,-1
 147 614 l 1,0,-1
EndSplineSet
EndChar

StartChar: emdash
Encoding: 8212 8212 225
Width: 1591
Flags: W
LayerCount: 2
Fore
SplineSet
147 614 m 1,0,-1
 1444 614 l 1,1,-1
 1444 543 l 1,2,-1
 147 543 l 1,3,-1
 147 614 l 1,0,-1
EndSplineSet
EndChar

StartChar: quoteleft
Encoding: 8216 8216 226
Width: 395
Flags: W
LayerCount: 2
Fore
SplineSet
171 1057 m 1,0,1
 150 1095 150 1095 140 1132.5 c 128,-1,2
 130 1170 130 1170 130 1208 c 0,3,4
 130 1286 130 1286 168 1358 c 128,-1,5
 206 1430 206 1430 267 1489 c 1,6,-1
 294 1471 l 2,7,8
 302 1465 302 1465 302 1457 c 0,9,10
 302 1450 302 1450 296 1444 c 0,11,12
 258 1393 258 1393 233 1343 c 128,-1,13
 208 1293 208 1293 208 1239 c 0,14,15
 208 1180 208 1180 243 1119 c 0,16,17
 248 1111 248 1111 248 1103 c 0,18,19
 248 1089 248 1089 233 1083 c 2,20,-1
 171 1057 l 1,0,1
EndSplineSet
EndChar

StartChar: quoteright
Encoding: 8217 8217 227
Width: 395
Flags: W
LayerCount: 2
Fore
SplineSet
240 1477 m 1,0,1
 262 1439 262 1439 272 1401.5 c 128,-1,2
 282 1364 282 1364 282 1326 c 0,3,4
 282 1248 282 1248 244 1176 c 128,-1,5
 206 1104 206 1104 145 1045 c 1,6,-1
 117 1063 l 2,7,8
 110 1069 110 1069 110 1077 c 256,9,10
 110 1085 110 1085 116 1091 c 0,11,12
 154 1141 154 1141 179 1191.5 c 128,-1,13
 204 1242 204 1242 204 1296 c 0,14,15
 204 1354 204 1354 169 1415 c 0,16,17
 164 1423 164 1423 164 1431 c 0,18,19
 164 1445 164 1445 179 1451 c 2,20,-1
 240 1477 l 1,0,1
EndSplineSet
EndChar

StartChar: quotesinglbase
Encoding: 8218 8218 228
Width: 395
Flags: W
LayerCount: 2
Fore
SplineSet
240 176 m 1,0,1
 262 138 262 138 272 100.5 c 128,-1,2
 282 63 282 63 282 25 c 0,3,4
 282 -53 282 -53 244 -125 c 128,-1,5
 206 -197 206 -197 145 -256 c 1,6,-1
 117 -238 l 2,7,8
 110 -232 110 -232 110 -224 c 256,9,10
 110 -216 110 -216 116 -210 c 0,11,12
 154 -160 154 -160 179 -109.5 c 128,-1,13
 204 -59 204 -59 204 -5 c 0,14,15
 204 53 204 53 169 114 c 0,16,17
 164 122 164 122 164 130 c 0,18,19
 164 144 164 144 179 150 c 2,20,-1
 240 176 l 1,0,1
EndSplineSet
EndChar

StartChar: quotedblleft
Encoding: 8220 8220 229
Width: 665
Flags: W
LayerCount: 2
Fore
SplineSet
171 1057 m 1,0,1
 150 1095 150 1095 140 1132.5 c 128,-1,2
 130 1170 130 1170 130 1208 c 0,3,4
 130 1286 130 1286 168 1358 c 128,-1,5
 206 1430 206 1430 267 1489 c 1,6,-1
 294 1471 l 2,7,8
 302 1465 302 1465 302 1457 c 0,9,10
 302 1450 302 1450 296 1444 c 0,11,12
 258 1393 258 1393 233 1343 c 128,-1,13
 208 1293 208 1293 208 1239 c 0,14,15
 208 1180 208 1180 243 1119 c 0,16,17
 248 1111 248 1111 248 1103 c 0,18,19
 248 1089 248 1089 233 1083 c 2,20,-1
 171 1057 l 1,0,1
440 1057 m 1,21,22
 419 1095 419 1095 409 1132.5 c 128,-1,23
 399 1170 399 1170 399 1208 c 0,24,25
 399 1286 399 1286 437 1358 c 128,-1,26
 475 1430 475 1430 536 1489 c 1,27,-1
 563 1471 l 2,28,29
 571 1465 571 1465 571 1457 c 0,30,31
 571 1450 571 1450 565 1444 c 0,32,33
 527 1393 527 1393 502 1343 c 128,-1,34
 477 1293 477 1293 477 1239 c 0,35,36
 477 1180 477 1180 512 1119 c 0,37,38
 517 1111 517 1111 517 1103 c 0,39,40
 517 1089 517 1089 502 1083 c 2,41,-1
 440 1057 l 1,21,22
EndSplineSet
EndChar

StartChar: quotedblright
Encoding: 8221 8221 230
Width: 665
Flags: W
LayerCount: 2
Fore
SplineSet
240 1477 m 1,0,1
 262 1439 262 1439 272 1401.5 c 128,-1,2
 282 1364 282 1364 282 1326 c 0,3,4
 282 1248 282 1248 244 1176 c 128,-1,5
 206 1104 206 1104 145 1045 c 1,6,-1
 117 1063 l 2,7,8
 110 1069 110 1069 110 1077 c 256,9,10
 110 1085 110 1085 116 1091 c 0,11,12
 154 1141 154 1141 179 1191.5 c 128,-1,13
 204 1242 204 1242 204 1296 c 0,14,15
 204 1354 204 1354 169 1415 c 0,16,17
 164 1423 164 1423 164 1431 c 0,18,19
 164 1445 164 1445 179 1451 c 2,20,-1
 240 1477 l 1,0,1
509 1477 m 1,21,22
 531 1439 531 1439 541 1401.5 c 128,-1,23
 551 1364 551 1364 551 1326 c 0,24,25
 551 1248 551 1248 513 1176 c 128,-1,26
 475 1104 475 1104 414 1045 c 1,27,-1
 386 1063 l 2,28,29
 379 1069 379 1069 379 1077 c 256,30,31
 379 1085 379 1085 385 1091 c 0,32,33
 423 1141 423 1141 448 1191.5 c 128,-1,34
 473 1242 473 1242 473 1296 c 0,35,36
 473 1354 473 1354 438 1415 c 0,37,38
 433 1423 433 1423 433 1431 c 0,39,40
 433 1445 433 1445 448 1451 c 2,41,-1
 509 1477 l 1,21,22
EndSplineSet
EndChar

StartChar: quotedblbase
Encoding: 8222 8222 231
Width: 665
Flags: W
LayerCount: 2
Fore
SplineSet
240 176 m 1,0,1
 262 138 262 138 272 100.5 c 128,-1,2
 282 63 282 63 282 25 c 0,3,4
 282 -53 282 -53 244 -125 c 128,-1,5
 206 -197 206 -197 145 -256 c 1,6,-1
 117 -238 l 2,7,8
 110 -232 110 -232 110 -224 c 256,9,10
 110 -216 110 -216 116 -210 c 0,11,12
 154 -160 154 -160 179 -109.5 c 128,-1,13
 204 -59 204 -59 204 -5 c 0,14,15
 204 53 204 53 169 114 c 0,16,17
 164 122 164 122 164 130 c 0,18,19
 164 144 164 144 179 150 c 2,20,-1
 240 176 l 1,0,1
509 176 m 1,21,22
 531 138 531 138 541 100.5 c 128,-1,23
 551 63 551 63 551 25 c 0,24,25
 551 -53 551 -53 513 -125 c 128,-1,26
 475 -197 475 -197 414 -256 c 1,27,-1
 386 -238 l 2,28,29
 379 -232 379 -232 379 -224 c 256,30,31
 379 -216 379 -216 385 -210 c 0,32,33
 423 -160 423 -160 448 -109.5 c 128,-1,34
 473 -59 473 -59 473 -5 c 0,35,36
 473 53 473 53 438 114 c 0,37,38
 433 122 433 122 433 130 c 0,39,40
 433 144 433 144 448 150 c 2,41,-1
 509 176 l 1,21,22
EndSplineSet
EndChar

StartChar: dagger
Encoding: 8224 8224 232
Width: 1160
Flags: W
LayerCount: 2
Fore
SplineSet
160 924 m 2,0,1
 160 941 160 941 171.5 955 c 128,-1,2
 183 969 183 969 206 969 c 0,3,4
 283 967 283 967 370 959.5 c 128,-1,5
 457 952 457 952 540 949 c 1,6,-1
 527 1432 l 1,7,8
 550 1445 550 1445 578 1445 c 0,9,10
 605 1445 605 1445 628 1432 c 1,11,-1
 615 949 l 1,12,13
 697 952 697 952 784 959.5 c 128,-1,14
 871 967 871 967 949 969 c 0,15,16
 972 969 972 969 984 955 c 128,-1,17
 996 941 996 941 996 924 c 2,18,-1
 996 892 l 1,19,-1
 615 892 l 1,20,-1
 615 397 l 1,21,-1
 628 -349 l 1,22,23
 605 -362 605 -362 578 -362 c 0,24,25
 550 -362 550 -362 527 -349 c 1,26,-1
 540 397 l 1,27,-1
 540 892 l 1,28,-1
 160 892 l 1,29,-1
 160 924 l 2,0,1
EndSplineSet
EndChar

StartChar: bullet
Encoding: 8226 8226 233
Width: 1160
Flags: W
LayerCount: 2
Fore
SplineSet
286 596 m 0,0,1
 286 657 286 657 309 711 c 128,-1,2
 332 765 332 765 372 805.5 c 128,-1,3
 412 846 412 846 465 869 c 128,-1,4
 518 892 518 892 578 892 c 0,5,6
 639 892 639 892 693 869 c 128,-1,7
 747 846 747 846 787 805.5 c 128,-1,8
 827 765 827 765 850 711 c 128,-1,9
 873 657 873 657 873 596 c 0,10,11
 873 536 873 536 850 483.5 c 128,-1,12
 827 431 827 431 787 391 c 128,-1,13
 747 351 747 351 693 328 c 128,-1,14
 639 305 639 305 578 305 c 0,15,16
 518 305 518 305 465 328 c 128,-1,17
 412 351 412 351 372 391 c 128,-1,18
 332 431 332 431 309 483.5 c 128,-1,19
 286 536 286 536 286 596 c 0,0,1
EndSplineSet
EndChar

StartChar: ellipsis
Encoding: 8230 8230 234
Width: 1376
Flags: W
LayerCount: 2
Fore
SplineSet
105 77 m 0,0,1
 105 96 105 96 112 113 c 128,-1,2
 119 130 119 130 131.5 142.5 c 128,-1,3
 144 155 144 155 160.5 162.5 c 128,-1,4
 177 170 177 170 197 170 c 0,5,6
 216 170 216 170 233 162.5 c 128,-1,7
 250 155 250 155 262.5 142.5 c 128,-1,8
 275 130 275 130 282.5 113 c 128,-1,9
 290 96 290 96 290 77 c 0,10,11
 290 57 290 57 282.5 40.5 c 128,-1,12
 275 24 275 24 262.5 11.5 c 128,-1,13
 250 -1 250 -1 233 -8 c 128,-1,14
 216 -15 216 -15 197 -15 c 0,15,16
 158 -15 158 -15 131.5 11.5 c 128,-1,17
 105 38 105 38 105 77 c 0,0,1
1086 77 m 0,18,19
 1086 96 1086 96 1093 113 c 128,-1,20
 1100 130 1100 130 1112.5 142.5 c 128,-1,21
 1125 155 1125 155 1141.5 162.5 c 128,-1,22
 1158 170 1158 170 1178 170 c 0,23,24
 1197 170 1197 170 1214 162.5 c 128,-1,25
 1231 155 1231 155 1243.5 142.5 c 128,-1,26
 1256 130 1256 130 1263.5 113 c 128,-1,27
 1271 96 1271 96 1271 77 c 0,28,29
 1271 57 1271 57 1263.5 40.5 c 128,-1,30
 1256 24 1256 24 1243.5 11.5 c 128,-1,31
 1231 -1 1231 -1 1214 -8 c 128,-1,32
 1197 -15 1197 -15 1178 -15 c 0,33,34
 1139 -15 1139 -15 1112.5 11.5 c 128,-1,35
 1086 38 1086 38 1086 77 c 0,18,19
595 77 m 0,36,37
 595 96 595 96 602 113 c 128,-1,38
 609 130 609 130 621.5 142.5 c 128,-1,39
 634 155 634 155 650.5 162.5 c 128,-1,40
 667 170 667 170 687 170 c 0,41,42
 706 170 706 170 723 162.5 c 128,-1,43
 740 155 740 155 752.5 142.5 c 128,-1,44
 765 130 765 130 772.5 113 c 128,-1,45
 780 96 780 96 780 77 c 0,46,47
 780 57 780 57 772.5 40.5 c 128,-1,48
 765 24 765 24 752.5 11.5 c 128,-1,49
 740 -1 740 -1 723 -8 c 128,-1,50
 706 -15 706 -15 687 -15 c 0,51,52
 648 -15 648 -15 621.5 11.5 c 128,-1,53
 595 38 595 38 595 77 c 0,36,37
EndSplineSet
EndChar

StartChar: guilsinglleft
Encoding: 8249 8249 235
Width: 619
Flags: W
LayerCount: 2
Fore
SplineSet
155 513 m 1,0,-1
 155 526 l 1,1,-1
 396 904 l 1,2,-1
 426 889 l 2,3,4
 442 879 442 879 442 864 c 0,5,6
 442 852 442 852 435 841 c 2,7,-1
 252 548 l 2,8,9
 239 528 239 528 230 519 c 1,10,11
 240 511 240 511 252 491 c 2,12,-1
 435 197 l 2,13,14
 442 186 442 186 442 174 c 0,15,16
 442 159 442 159 426 149 c 2,17,-1
 396 134 l 1,18,-1
 155 513 l 1,0,-1
EndSplineSet
EndChar

StartChar: guilsinglright
Encoding: 8250 8250 236
Width: 619
Flags: W
LayerCount: 2
Fore
SplineSet
223 134 m 1,0,-1
 193 149 l 2,1,2
 176 158 176 158 176 175 c 0,3,4
 176 186 176 186 183 197 c 2,5,-1
 366 491 l 2,6,7
 372 502 372 502 377.5 508.5 c 128,-1,8
 383 515 383 515 388 519 c 1,9,10
 383 524 383 524 377.5 530.5 c 128,-1,11
 372 537 372 537 366 548 c 2,12,-1
 183 841 l 2,13,14
 176 852 176 852 176 864 c 0,15,16
 176 880 176 880 193 889 c 2,17,-1
 223 904 l 1,18,-1
 464 526 l 1,19,-1
 464 513 l 1,20,-1
 223 134 l 1,0,-1
EndSplineSet
EndChar

StartChar: fraction
Encoding: 8260 8260 237
Width: 497
Flags: W
LayerCount: 2
Fore
SplineSet
-107 31 m 2,0,1
 -118 13 -118 13 -131.5 6.5 c 128,-1,2
 -145 0 -145 0 -162 0 c 2,3,-1
 -202 0 l 1,4,-1
 598 1380 l 2,5,6
 608 1397 608 1397 620.5 1406 c 128,-1,7
 633 1415 633 1415 653 1415 c 2,8,-1
 695 1415 l 1,9,-1
 -107 31 l 2,0,1
EndSplineSet
EndChar

StartChar: Euro
Encoding: 8364 8364 238
Width: 1160
Flags: W
LayerCount: 2
Fore
SplineSet
31 863 m 1,0,-1
 195 863 l 1,1,2
 211 995 211 995 256 1100 c 128,-1,3
 301 1205 301 1205 370 1278 c 128,-1,4
 439 1351 439 1351 530 1390 c 128,-1,5
 621 1429 621 1429 731 1429 c 0,6,7
 795 1429 795 1429 849.5 1417.5 c 128,-1,8
 904 1406 904 1406 950.5 1384 c 128,-1,9
 997 1362 997 1362 1037.5 1329.5 c 128,-1,10
 1078 1297 1078 1297 1115 1254 c 1,11,-1
 1084 1219 l 2,12,13
 1080 1214 1080 1214 1075 1210.5 c 128,-1,14
 1070 1207 1070 1207 1062 1207 c 256,15,16
 1054 1207 1054 1207 1043 1217.5 c 128,-1,17
 1032 1228 1032 1228 1015 1243 c 128,-1,18
 998 1258 998 1258 973.5 1276.5 c 128,-1,19
 949 1295 949 1295 915.5 1310 c 128,-1,20
 882 1325 882 1325 837.5 1335.5 c 128,-1,21
 793 1346 793 1346 735 1346 c 0,22,23
 645 1346 645 1346 570 1314.5 c 128,-1,24
 495 1283 495 1283 438.5 1222 c 128,-1,25
 382 1161 382 1161 345 1071 c 128,-1,26
 308 981 308 981 293 863 c 1,27,-1
 895 863 l 1,28,-1
 895 833 l 2,29,30
 895 822 895 822 887.5 813.5 c 128,-1,31
 880 805 880 805 863 805 c 2,32,-1
 287 805 l 1,33,34
 284 758 284 758 284 708 c 0,35,36
 284 687 284 687 284.5 667.5 c 128,-1,37
 285 648 285 648 286 628 c 1,38,-1
 803 628 l 1,39,-1
 803 598 l 2,40,41
 803 586 803 586 795 577.5 c 128,-1,42
 787 569 787 569 772 569 c 2,43,-1
 291 569 l 1,44,45
 304 445 304 445 340 351 c 128,-1,46
 376 257 376 257 432 194 c 128,-1,47
 488 131 488 131 563 99 c 128,-1,48
 638 67 638 67 728 67 c 0,49,50
 790 67 790 67 837.5 79 c 128,-1,51
 885 91 885 91 921 109.5 c 128,-1,52
 957 128 957 128 983 149.5 c 128,-1,53
 1009 171 1009 171 1027 189.5 c 128,-1,54
 1045 208 1045 208 1057.5 220 c 128,-1,55
 1070 232 1070 232 1079 232 c 0,56,57
 1089 232 1089 232 1098 223 c 2,58,-1
 1135 188 l 1,59,60
 1099 142 1099 142 1057 104.5 c 128,-1,61
 1015 67 1015 67 964 40.5 c 128,-1,62
 913 14 913 14 853 -0.5 c 128,-1,63
 793 -15 793 -15 723 -15 c 0,64,65
 610 -15 610 -15 518 24 c 128,-1,66
 426 63 426 63 358.5 138 c 128,-1,67
 291 213 291 213 249 321.5 c 128,-1,68
 207 430 207 430 193 569 c 1,69,-1
 31 569 l 1,70,-1
 31 628 l 1,71,-1
 188 628 l 1,72,73
 187 648 187 648 186.5 667.5 c 128,-1,74
 186 687 186 687 186 708 c 0,75,76
 186 757 186 757 189 805 c 1,77,-1
 31 805 l 1,78,-1
 31 863 l 1,0,-1
EndSplineSet
EndChar

StartChar: trademark
Encoding: 8482 8482 239
Width: 1427
Flags: W
LayerCount: 2
Fore
SplineSet
979 1010 m 1,0,1
 984 1026 984 1026 992 1039 c 2,2,-1
 1205 1403 l 2,3,4
 1210 1411 1210 1411 1214.5 1413 c 128,-1,5
 1219 1415 1219 1415 1229 1415 c 2,6,-1
 1286 1415 l 1,7,-1
 1286 840 l 1,8,-1
 1224 840 l 1,9,-1
 1224 1283 l 1,10,-1
 1229 1327 l 1,11,-1
 1010 947 l 2,12,13
 1002 931 1002 931 985 931 c 2,14,-1
 974 931 l 2,15,16
 957 931 957 931 949 947 c 2,17,-1
 726 1325 l 1,18,-1
 731 1283 l 1,19,-1
 731 840 l 1,20,-1
 668 840 l 1,21,-1
 668 1415 l 1,22,-1
 725 1415 l 2,23,24
 735 1415 735 1415 739.5 1413 c 128,-1,25
 744 1411 744 1411 751 1403 c 2,26,-1
 968 1039 l 1,27,-1
 979 1010 l 1,0,1
543 1415 m 1,28,-1
 543 1356 l 1,29,-1
 344 1356 l 1,30,-1
 344 840 l 1,31,-1
 273 840 l 1,32,-1
 273 1356 l 1,33,-1
 72 1356 l 1,34,-1
 72 1415 l 1,35,-1
 543 1415 l 1,28,-1
EndSplineSet
EndChar

StartChar: minus
Encoding: 8722 8722 240
Width: 1160
Flags: W
LayerCount: 2
Fore
SplineSet
164 707 m 1,0,-1
 993 707 l 1,1,-1
 993 634 l 1,2,-1
 164 634 l 1,3,-1
 164 707 l 1,0,-1
EndSplineSet
EndChar

StartChar: fi
Encoding: 65539 -1 241
Width: 1066
Flags: W
LayerCount: 2
Fore
SplineSet
199 0 m 1,0,-1
 199 891 l 1,1,-1
 59 900 l 2,2,3
 30 902 30 902 30 925 c 2,4,-1
 30 964 l 1,5,-1
 199 964 l 1,6,-1
 199 1049 l 2,7,8
 199 1141 199 1141 226 1214.5 c 128,-1,9
 253 1288 253 1288 304.5 1339.5 c 128,-1,10
 356 1391 356 1391 430 1418.5 c 128,-1,11
 504 1446 504 1446 599 1446 c 0,12,13
 632 1446 632 1446 667.5 1440.5 c 128,-1,14
 703 1435 703 1435 727 1425 c 1,15,-1
 723 1377 l 2,16,17
 722 1367 722 1367 709 1367 c 0,18,19
 698 1367 698 1367 676.5 1370.5 c 128,-1,20
 655 1374 655 1374 622 1374 c 0,21,22
 464 1374 464 1374 378 1293 c 128,-1,23
 292 1212 292 1212 292 1046 c 2,24,-1
 292 964 l 1,25,-1
 875 964 l 1,26,-1
 875 0 l 1,27,-1
 779 0 l 1,28,-1
 779 893 l 1,29,-1
 294 893 l 1,30,-1
 294 0 l 1,31,-1
 199 0 l 1,0,-1
EndSplineSet
Ligature2: "'liga' Standard Ligatures in Latin lookup 0 subtable" f i
EndChar

StartChar: fl
Encoding: 65540 -1 242
Width: 1132
Flags: W
LayerCount: 2
Fore
SplineSet
199 0 m 1,0,-1
 199 891 l 1,1,-1
 59 900 l 2,2,3
 30 902 30 902 30 925 c 2,4,-1
 30 964 l 1,5,-1
 199 964 l 1,6,-1
 199 1029 l 2,7,8
 199 1117 199 1117 225 1192.5 c 128,-1,9
 251 1268 251 1268 301 1323 c 128,-1,10
 351 1378 351 1378 425.5 1409 c 128,-1,11
 500 1440 500 1440 596 1440 c 0,12,13
 630 1440 630 1440 666.5 1438 c 128,-1,14
 703 1436 703 1436 737.5 1433 c 128,-1,15
 772 1430 772 1430 802 1428 c 128,-1,16
 832 1426 832 1426 853 1426 c 2,17,-1
 925 1426 l 1,18,-1
 925 0 l 1,19,-1
 830 0 l 1,20,-1
 830 1359 l 1,21,22
 776 1361 776 1361 716.5 1365 c 128,-1,23
 657 1369 657 1369 609 1369 c 0,24,25
 534 1369 534 1369 475 1345.5 c 128,-1,26
 416 1322 416 1322 375.5 1277.5 c 128,-1,27
 335 1233 335 1233 313.5 1170 c 128,-1,28
 292 1107 292 1107 292 1029 c 2,29,-1
 292 964 l 1,30,-1
 580 964 l 1,31,-1
 580 893 l 1,32,-1
 294 893 l 1,33,-1
 294 0 l 1,34,-1
 199 0 l 1,0,-1
EndSplineSet
Ligature2: "'liga' Standard Ligatures in Latin lookup 0 subtable" f l
EndChar

StartChar: grave.case
Encoding: 65541 -1 243
Width: 585
Flags: W
LayerCount: 2
Fore
SplineSet
116 1770 m 2,0,1
 140 1770 140 1770 151.5 1765.5 c 128,-1,2
 163 1761 163 1761 177 1748 c 2,3,-1
 405 1542 l 1,4,-1
 334 1542 l 2,5,6
 322 1542 322 1542 314 1544 c 128,-1,7
 306 1546 306 1546 296 1554 c 2,8,-1
 3 1770 l 1,9,-1
 116 1770 l 2,0,1
EndSplineSet
EndChar

StartChar: dieresis.case
Encoding: 65542 -1 244
Width: 585
Flags: W
LayerCount: 2
Fore
SplineSet
165 1665 m 256,0,1
 165 1649 165 1649 158 1634.5 c 128,-1,2
 151 1620 151 1620 140 1609.5 c 128,-1,3
 129 1599 129 1599 114 1592.5 c 128,-1,4
 99 1586 99 1586 83 1586 c 256,5,6
 67 1586 67 1586 52.5 1592.5 c 128,-1,7
 38 1599 38 1599 27 1609.5 c 128,-1,8
 16 1620 16 1620 9.5 1634.5 c 128,-1,9
 3 1649 3 1649 3 1665 c 256,10,11
 3 1681 3 1681 9.5 1696 c 128,-1,12
 16 1711 16 1711 27 1722.5 c 128,-1,13
 38 1734 38 1734 52.5 1740.5 c 128,-1,14
 67 1747 67 1747 83 1747 c 256,15,16
 99 1747 99 1747 114 1740.5 c 128,-1,17
 129 1734 129 1734 140 1722.5 c 128,-1,18
 151 1711 151 1711 158 1696 c 128,-1,19
 165 1681 165 1681 165 1665 c 256,0,1
581 1665 m 256,20,21
 581 1649 581 1649 574.5 1634.5 c 128,-1,22
 568 1620 568 1620 556.5 1609.5 c 128,-1,23
 545 1599 545 1599 530.5 1592.5 c 128,-1,24
 516 1586 516 1586 500 1586 c 0,25,26
 483 1586 483 1586 468.5 1592.5 c 128,-1,27
 454 1599 454 1599 443 1609.5 c 128,-1,28
 432 1620 432 1620 425.5 1634.5 c 128,-1,29
 419 1649 419 1649 419 1665 c 0,30,31
 419 1698 419 1698 443 1722.5 c 128,-1,32
 467 1747 467 1747 500 1747 c 0,33,34
 516 1747 516 1747 530.5 1740.5 c 128,-1,35
 545 1734 545 1734 556.5 1722.5 c 128,-1,36
 568 1711 568 1711 574.5 1696 c 128,-1,37
 581 1681 581 1681 581 1665 c 256,20,21
EndSplineSet
EndChar

StartChar: acute.case
Encoding: 65543 -1 245
Width: 585
Flags: W
LayerCount: 2
Fore
SplineSet
586 1770 m 1,0,-1
 294 1554 l 2,1,2
 284 1547 284 1547 275.5 1544.5 c 128,-1,3
 267 1542 267 1542 255 1542 c 2,4,-1
 185 1542 l 1,5,-1
 412 1748 l 2,6,7
 426 1761 426 1761 438 1765.5 c 128,-1,8
 450 1770 450 1770 474 1770 c 2,9,-1
 586 1770 l 1,0,-1
EndSplineSet
EndChar

StartChar: circumflex.case
Encoding: 65544 -1 246
Width: 585
Flags: W
LayerCount: 2
Fore
SplineSet
572 1542 m 1,0,-1
 499 1542 l 2,1,2
 491 1542 491 1542 481.5 1544.5 c 128,-1,3
 472 1547 472 1547 465 1552 c 2,4,-1
 309 1675 l 2,5,6
 301 1681 301 1681 298 1684 c 128,-1,7
 295 1687 295 1687 293 1689 c 1,8,9
 291 1687 291 1687 287.5 1684 c 128,-1,10
 284 1681 284 1681 276 1675 c 2,11,-1
 119 1552 l 2,12,13
 112 1547 112 1547 103 1544.5 c 128,-1,14
 94 1542 94 1542 86 1542 c 2,15,-1
 12 1542 l 1,16,-1
 247 1741 l 1,17,-1
 337 1741 l 1,18,-1
 572 1542 l 1,0,-1
EndSplineSet
EndChar

StartChar: caron.case
Encoding: 65545 -1 247
Width: 585
Flags: W
LayerCount: 2
Fore
SplineSet
12 1741 m 1,0,-1
 86 1741 l 2,1,2
 94 1741 94 1741 103 1738.5 c 128,-1,3
 112 1736 112 1736 119 1731 c 2,4,-1
 276 1608 l 2,5,6
 284 1602 284 1602 287 1599 c 128,-1,7
 290 1596 290 1596 292 1594 c 1,8,9
 294 1596 294 1596 297 1598.5 c 128,-1,10
 300 1601 300 1601 309 1608 c 2,11,-1
 465 1731 l 2,12,13
 472 1736 472 1736 481.5 1738.5 c 128,-1,14
 491 1741 491 1741 499 1741 c 2,15,-1
 572 1741 l 1,16,-1
 337 1542 l 1,17,-1
 247 1542 l 1,18,-1
 12 1741 l 1,0,-1
EndSplineSet
EndChar

StartChar: dotaccent.case
Encoding: 65546 -1 248
Width: 585
Flags: W
LayerCount: 2
Fore
SplineSet
379 1677 m 0,0,1
 379 1660 379 1660 371.5 1644.5 c 128,-1,2
 364 1629 364 1629 352 1617.5 c 128,-1,3
 340 1606 340 1606 324 1599 c 128,-1,4
 308 1592 308 1592 291 1592 c 256,5,6
 274 1592 274 1592 258.5 1599 c 128,-1,7
 243 1606 243 1606 231.5 1617.5 c 128,-1,8
 220 1629 220 1629 213 1644.5 c 128,-1,9
 206 1660 206 1660 206 1677 c 0,10,11
 206 1695 206 1695 213 1710.5 c 128,-1,12
 220 1726 220 1726 231.5 1738 c 128,-1,13
 243 1750 243 1750 258.5 1757 c 128,-1,14
 274 1764 274 1764 291 1764 c 256,15,16
 308 1764 308 1764 324 1757 c 128,-1,17
 340 1750 340 1750 352 1738 c 128,-1,18
 364 1726 364 1726 371.5 1710.5 c 128,-1,19
 379 1695 379 1695 379 1677 c 0,0,1
EndSplineSet
EndChar

StartChar: ring.case
Encoding: 65547 -1 249
Width: 585
Flags: W
LayerCount: 2
Fore
SplineSet
125 1630 m 0,0,1
 125 1664 125 1664 138.5 1693.5 c 128,-1,2
 152 1723 152 1723 174.5 1744 c 128,-1,3
 197 1765 197 1765 227.5 1777 c 128,-1,4
 258 1789 258 1789 292 1789 c 256,5,6
 326 1789 326 1789 357 1777 c 128,-1,7
 388 1765 388 1765 410.5 1744 c 128,-1,8
 433 1723 433 1723 446.5 1693.5 c 128,-1,9
 460 1664 460 1664 460 1630 c 0,10,11
 460 1595 460 1595 446.5 1566 c 128,-1,12
 433 1537 433 1537 410.5 1516 c 128,-1,13
 388 1495 388 1495 357 1483.5 c 128,-1,14
 326 1472 326 1472 292 1472 c 256,15,16
 258 1472 258 1472 227.5 1483.5 c 128,-1,17
 197 1495 197 1495 174.5 1516 c 128,-1,18
 152 1537 152 1537 138.5 1566 c 128,-1,19
 125 1595 125 1595 125 1630 c 0,0,1
178 1630 m 256,20,21
 178 1580 178 1580 210 1548 c 128,-1,22
 242 1516 242 1516 293 1516 c 0,23,24
 343 1516 343 1516 375 1548 c 128,-1,25
 407 1580 407 1580 407 1630 c 256,26,27
 407 1680 407 1680 375 1712 c 128,-1,28
 343 1744 343 1744 293 1744 c 0,29,30
 242 1744 242 1744 210 1712 c 128,-1,31
 178 1680 178 1680 178 1630 c 256,20,21
EndSplineSet
EndChar

StartChar: tilde.case
Encoding: 65548 -1 250
Width: 585
Flags: W
LayerCount: 2
Fore
SplineSet
412 1616 m 0,0,1
 454 1616 454 1616 476 1643.5 c 128,-1,2
 498 1671 498 1671 499 1714 c 1,3,-1
 553 1714 l 1,4,5
 553 1679 553 1679 544 1649.5 c 128,-1,6
 535 1620 535 1620 518 1597.5 c 128,-1,7
 501 1575 501 1575 474.5 1562.5 c 128,-1,8
 448 1550 448 1550 414 1550 c 0,9,10
 381 1550 381 1550 351 1566 c 128,-1,11
 321 1582 321 1582 293 1600.5 c 128,-1,12
 265 1619 265 1619 238.5 1635 c 128,-1,13
 212 1651 212 1651 185 1651 c 0,14,15
 143 1651 143 1651 121.5 1623 c 128,-1,16
 100 1595 100 1595 98 1553 c 1,17,-1
 42 1553 l 1,18,19
 42 1587 42 1587 51.5 1617 c 128,-1,20
 61 1647 61 1647 79 1669.5 c 128,-1,21
 97 1692 97 1692 123 1704.5 c 128,-1,22
 149 1717 149 1717 183 1717 c 256,23,24
 217 1717 217 1717 247 1701 c 128,-1,25
 277 1685 277 1685 305 1666.5 c 128,-1,26
 333 1648 333 1648 359 1632 c 128,-1,27
 385 1616 385 1616 412 1616 c 0,0,1
EndSplineSet
EndChar

StartChar: ccaron
Encoding: 269 269 251
Width: 910
Flags: W
LayerCount: 2
Fore
SplineSet
817 862 m 2
 812 857 812 857 807.5 853.5 c 0
 803 850 803 850 795 850 c 0
 785 850 785 850 767.5 863.5 c 0
 750 877 750 877 721 893 c 0
 692 909 692 909 648.5 922.5 c 0
 605 936 605 936 543 936 c 0
 457 936 457 936 390.5 905.5 c 0
 324 875 324 875 278.5 818 c 0
 233 761 233 761 209 680 c 0
 185 599 185 599 185 498 c 0
 185 393 185 393 209.5 312 c 0
 234 231 234 231 279 175.5 c 0
 324 120 324 120 388 91 c 0
 452 62 452 62 530 62 c 0
 602 62 602 62 650.5 79 c 0
 699 96 699 96 730.5 116 c 0
 762 136 762 136 780.5 153 c 0
 799 170 799 170 810 170 c 0
 823 170 823 170 830 160 c 2
 856 128 l 1
 833 98 833 98 798 72 c 0
 763 46 763 46 719 27 c 0
 675 8 675 8 623.5 -2.5 c 0
 572 -13 572 -13 516 -13 c 0
 421 -13 421 -13 342.5 21.5 c 0
 264 56 264 56 207.5 121.5 c 0
 151 187 151 187 119.5 282 c 0
 88 377 88 377 88 498 c 0
 88 612 88 612 118 706 c 0
 148 800 148 800 205.5 868 c 0
 263 936 263 936 346.5 973.5 c 0
 430 1011 430 1011 538 1011 c 0
 635 1011 635 1011 710.5 980 c 0
 786 949 786 949 842 896 c 1
 817 862 l 2
EndSplineSet
Refer: 220 -1 S 1 0 0 1 223 0 2
EndChar

